<?xml version="1.0" encoding="UTF-8" standalone="no"?>
<svg
   xmlns:dc="http://purl.org/dc/elements/1.1/"
   xmlns:cc="http://creativecommons.org/ns#"
   xmlns:rdf="http://www.w3.org/1999/02/22-rdf-syntax-ns#"
   xmlns:svg="http://www.w3.org/2000/svg"
   xmlns="http://www.w3.org/2000/svg"
   xmlns:sodipodi="http://sodipodi.sourceforge.net/DTD/sodipodi-0.dtd"
   xmlns:inkscape="http://www.inkscape.org/namespaces/inkscape"
   version="1.1"
   viewBox="0 0 125 125"
   width="100pt"
   height="100pt"
   id="svg2"
   inkscape:version="0.92.5 (2060ec1f9f, 2020-04-08)"
   sodipodi:docname="asatare.svg">
  <metadata
     id="metadata12">
    <rdf:RDF>
      <cc:Work
         rdf:about="">
        <dc:format>image/svg+xml</dc:format>
        <dc:type
           rdf:resource="http://purl.org/dc/dcmitype/StillImage" />
        <dc:title></dc:title>
      </cc:Work>
    </rdf:RDF>
  </metadata>
  <defs
     id="defs10" />
  <sodipodi:namedview
     pagecolor="#ffffff"
     bordercolor="#666666"
     borderopacity="1"
     objecttolerance="10"
     gridtolerance="10"
     guidetolerance="10"
     inkscape:pageopacity="0"
     inkscape:pageshadow="2"
     inkscape:window-width="2880"
     inkscape:window-height="1495"
     id="namedview8"
     showgrid="false"
     fit-margin-top="0"
     fit-margin-left="0"
     fit-margin-right="0"
     fit-margin-bottom="0"
     inkscape:zoom="5.6568543"
     inkscape:cx="52.743165"
     inkscape:cy="84.426388"
     inkscape:window-x="-13"
     inkscape:window-y="-13"
     inkscape:window-maximized="1"
     inkscape:current-layer="svg2"
     units="pt" />
  <path
     id="rect4133"
     transform="scale(0.93750004)"
     style="opacity:0.00100002;fill:#ffffff;fill-opacity:1;fill-rule:nonzero;stroke:none;stroke-width:0.43914869;stroke-linecap:square;stroke-miterlimit:4;stroke-dasharray:none;stroke-dashoffset:0;stroke-opacity:1"
     d="m -14.681641,82.396484 v 29.052736 c 1.513862,-0.72204 3.21599,-1.29808 4.027344,-1.54297 0.03578,-0.32934 0.08419,-0.65479 0.152344,-0.97266 0.259251,-1.20905 1.9603328,-1.23766 3.8320311,-1.07421 -0.5553634,-3.74141 4.2173395,-5.04607 6.4589844,-5.57813 1.6026294,-0.38039 3.2304561,-0.63552 4.8613281,-0.87695 -0.048106,-0.66772 0.045309,-1.38699 0.3203125,-2.250003 0.2834667,-0.889576 0.9150854,-1.657151 1.5800781,-2.3125 1.8519025,-1.825047 3.7745888,-2.180911 6.1718748,-3.039063 0.254087,-0.487732 0.535297,-0.954663 0.886719,-1.36914 -0.01095,-0.0585 -0.03225,-0.114874 -0.04102,-0.173828 -0.141608,-0.952605 -0.113192,-1.918543 0.05469,-2.861328 -0.711489,-1.55781 -0.891289,-3.129254 -0.714844,-5.19336 0.05603,-0.655477 0.458035,-1.238554 0.787109,-1.808594 H 5.0527344 c -1.3098855,1.621903 -2.7998641,2.676814 -6.3808594,0.875 -0.303862,-0.152891 -0.5793033,-0.469682 -0.8144531,-0.875 z M 6.0234375,104.66211 c -0.3011822,0.19813 -0.6182318,0.43426 -0.9511719,0.71289 0.4576567,-0.0707 0.9147337,-0.14472 1.3730469,-0.21094 -0.1481226,-0.16215 -0.2832008,-0.33306 -0.421875,-0.50195 z m -20.7050785,15.97266 v 95.09375 H 118.65234 v -70.87696 c -1.2305,-0.69702 -2.73787,-1.63171 -4.73632,-2.82422 -0.65008,-0.38791 -0.23779,-1.49896 -0.25196,-2.25586 -0.0188,-1.00332 0.0522,-2.0095 0.1543,-3.00781 0.0767,-0.74958 0.17655,-1.49611 0.2832,-2.24219 -4.89165,1.37262 -9.24731,1.71175 -14.656248,0.93946 -1.008516,-0.144 -1.945634,-0.36229 -2.849609,-0.6211 -0.662492,0.20725 -1.337179,0.37954 -2.017578,0.53516 2.578245,4.48423 0.671701,4.13551 -2.392578,4.14844 -0.454017,0.37234 -1.135383,0.22884 -1.84375,0.01 -5.711308,0.0322 -17.231445,0.0997 -20.578125,0.082 -4.880372,-0.0257 -9.761215,-0.0227 -14.638672,-0.19335 -2.17574,-0.0761 -4.348923,-0.20633 -6.517578,-0.38086 -1.55561,0.11514 -3.112914,0.21867 -4.671875,0.25781 -4.36631,0.10962 -10.388189,-0.19215 -14.814453,-0.57031 -1.658797,-0.14172 -8.201837,-0.87138 -10.195313,-1.28907 -1.058474,-0.22178 -2.071742,-0.62227 -3.107422,-0.93359 -0.03064,-0.0148 -1.8989,-0.94569 -2.132812,-0.97852 -2.343673,-0.3288 -6.7088365,0.6364 -7.919922,-2.375 -0.4498988,-1.11868 -0.5444247,-2.01815 -0.3964844,-2.75195 -0.7516908,-0.0414 -1.0002509,-0.067 -1.9902344,-0.11523 -13.2225613,-0.64463 0.082287,0.14769 -10.6992187,-0.10157 -1.4057051,-0.0325 -2.8075515,-0.17469 -4.2109375,-0.26171 -0.494141,-2.40393 -1.973053,-4.80632 -1.482422,-7.21094 0.218304,-1.06991 2.063477,-0.75869 3.1425782,-0.92578 0.4428019,-0.0686 0.8877743,-0.12465 1.3320313,-0.1836 -0.6005651,-0.0723 -1.1757968,-0.13835 -1.9374995,-0.25195 -0.55386,-0.0827 -1.088268,-0.26653 -1.634766,-0.38867 -0.272108,-0.0608 -0.544005,-0.1228 -0.820313,-0.16016 -0.578808,-0.0783 -1.216403,0.0522 -1.75,-0.16601 z" />
  <path
     id="flowRoot1304"
     transform="scale(0.93750004)"
     style="font-style:normal;font-weight:normal;font-size:40px;line-height:1.25;font-family:sans-serif;letter-spacing:0px;word-spacing:0px;fill:#000000;fill-opacity:1;stroke:none;stroke-width:3.53948808"
     d="M 64.226562,1.7246094 V 16.306641 H 26 L 15.380859,11.351562 v 38.509766 c 0,26.75853 -1.132931,56.065252 -14.44140588,79.992192 l 2.12499998,1.41601 C 19.204519,112.1563 23.167146,87.096215 24.158203,65.292969 l 0.992188,1.416015 C 33.362003,61.612122 40.724536,55.524291 46.529297,48.445312 V 68.125 h 1.556641 c 2.973169,0 6.654296,-1.982598 6.654296,-3.115234 V 44.623047 c 4.105807,2.690011 8.212157,7.220322 9.769532,11.042969 7.645294,4.388965 12.316874,-10.478002 -9.769532,-13.451172 v -3.113282 h 15.857422 c 1.274216,0 2.26376,-0.284289 2.830078,-0.992187 l 0.283204,0.992187 H 89.001953 C 83.90509,48.445813 76.261219,56.940467 66.775391,63.453125 l 1.697265,2.40625 C 78.524802,60.904092 87.020545,54.674591 93.533203,47.029297 v 20.669922 h 1.556641 c 3.114749,0 6.796876,-1.697442 6.796876,-2.830078 V 41.083984 c 5.66318,10.760044 14.15653,19.536993 22.22656,25.058594 1.27422,-3.964227 3.53955,-6.08698 6.6543,-6.511719 l 0.14258,-1.558593 C 121.99065,54.532778 111.37299,47.737915 104.71875,39.101562 h 21.09375 c 1.84053,0 3.25786,-0.70825 3.54102,-2.265624 -3.82265,-3.82265 -10.05274,-8.636719 -10.05274,-8.636719 l -5.23828,6.796875 h -12.17578 v -7.646485 c 3.53949,-0.566318 4.81254,-1.841106 5.0957,-3.68164 L 93.533203,22.111328 V 34.996094 H 72.580078 l 0.140625,0.423828 c -3.681067,-3.539488 -8.353515,-7.078125 -8.353515,-7.078125 l -5.238282,6.654297 h -4.388672 v -8.212891 c 3.397909,-0.566318 4.672918,-1.841105 5.097657,-3.681641 L 46.529297,21.544922 V 34.996094 H 25.574219 l 0.992187,4.105468 H 42.988281 C 38.599316,48.162654 32.228236,56.656353 24.158203,63.59375 24.441362,58.780046 24.441406,54.250293 24.441406,49.861328 V 20.554688 H 126.23828 c 1.98211,0 3.39753,-0.708249 3.82227,-2.265626 C 125.24684,13.758518 117.60156,7.6699219 117.60156,7.6699219 l -6.79492,8.6367191 H 73.146484 V 7.1035156 C 76.685972,6.6787771 78.101607,5.2633633 78.384766,3.28125 Z M 47.416016,71.111328 c -0.0052,-0.01217 -0.01886,-0.01213 -0.04883,0.0078 -7.41e-4,0.04621 0.0033,0.07301 0.0059,0.09766 0.008,-0.004 0.01547,-0.0079 0.02344,-0.01172 0.01621,-0.04124 0.02729,-0.07554 0.01953,-0.09375 z m -0.123047,0.08398 c -0.01176,-2.13e-4 0.01709,0.02197 0.0332,0.04102 0.0019,-0.001 0.004,-8.76e-4 0.0059,-0.002 -0.01296,-0.01354 -0.02077,-0.03873 -0.03906,-0.03906 z m 6.480469,0.04492 c 0.01344,0.01201 0.02735,0.02339 0.04102,0.03516 0.0226,-0.01464 0.04866,-0.02257 0.07227,-0.03516 z m -20.8125,41.322266 c 0.15974,-0.22775 -0.651048,0.84253 -0.685547,0.95898 0.229029,-0.31923 0.459937,-0.63732 0.685547,-0.95898 z" />
</svg>
