<?xml version="1.0" encoding="UTF-8" standalone="no"?>
<svg
   xmlns:dc="http://purl.org/dc/elements/1.1/"
   xmlns:cc="http://creativecommons.org/ns#"
   xmlns:rdf="http://www.w3.org/1999/02/22-rdf-syntax-ns#"
   xmlns:svg="http://www.w3.org/2000/svg"
   xmlns="http://www.w3.org/2000/svg"
   xmlns:sodipodi="http://sodipodi.sourceforge.net/DTD/sodipodi-0.dtd"
   xmlns:inkscape="http://www.inkscape.org/namespaces/inkscape"
   version="1.1"
   viewBox="0 0 125 125"
   width="100pt"
   height="100pt"
   id="svg2"
   inkscape:version="0.92.5 (2060ec1f9f, 2020-04-08)"
   sodipodi:docname="bakunyou.svg">
  <metadata
     id="metadata12">
    <rdf:RDF>
      <cc:Work
         rdf:about="">
        <dc:format>image/svg+xml</dc:format>
        <dc:type
           rdf:resource="http://purl.org/dc/dcmitype/StillImage" />
        <dc:title></dc:title>
      </cc:Work>
    </rdf:RDF>
  </metadata>
  <defs
     id="defs10" />
  <sodipodi:namedview
     pagecolor="#ffffff"
     bordercolor="#666666"
     borderopacity="1"
     objecttolerance="10"
     gridtolerance="10"
     guidetolerance="10"
     inkscape:pageopacity="0"
     inkscape:pageshadow="2"
     inkscape:window-width="2880"
     inkscape:window-height="1495"
     id="namedview8"
     showgrid="false"
     fit-margin-top="0"
     fit-margin-left="0"
     fit-margin-right="0"
     fit-margin-bottom="0"
     inkscape:zoom="8"
     inkscape:cx="8.2467601"
     inkscape:cy="76.147931"
     inkscape:window-x="-13"
     inkscape:window-y="-13"
     inkscape:window-maximized="1"
     inkscape:current-layer="svg2"
     units="pt" />
  <path
     id="rect4133"
     transform="scale(0.93750004)"
     style="opacity:0.00100002;fill:#ffffff;fill-opacity:1;fill-rule:nonzero;stroke:none;stroke-width:0.43914869;stroke-linecap:square;stroke-miterlimit:4;stroke-dasharray:none;stroke-dashoffset:0;stroke-opacity:1"
     d="m -14.681641,82.396484 v 29.052736 c 1.513862,-0.72204 3.21599,-1.29808 4.027344,-1.54297 0.03578,-0.32934 0.08419,-0.65479 0.152344,-0.97266 0.259251,-1.20905 1.9603328,-1.23765 3.8320311,-1.07421 -0.5553634,-3.7414 4.2173395,-5.04607 6.4589844,-5.57813 1.6026294,-0.38039 3.2304561,-0.63552 4.8613281,-0.87695 -0.048106,-0.66772 0.045309,-1.38699 0.3203125,-2.250003 0.2834667,-0.889576 0.9150854,-1.657151 1.5800781,-2.3125 1.8519024,-1.825047 3.7745888,-2.180911 6.1718748,-3.039063 0.254087,-0.487732 0.535297,-0.954663 0.886719,-1.36914 -0.01095,-0.0585 -0.03225,-0.114874 -0.04102,-0.173828 -0.141608,-0.952605 -0.11319,-1.918543 0.05469,-2.861328 -0.711489,-1.557809 -0.891289,-3.129254 -0.714844,-5.19336 0.05603,-0.655477 0.458035,-1.238554 0.787109,-1.808594 H 5.0527344 c -1.3098855,1.621903 -2.7998641,2.676814 -6.3808594,0.875 -0.303862,-0.152891 -0.5793033,-0.469682 -0.8144531,-0.875 z M 6.0234375,104.66211 c -0.3011822,0.19813 -0.6182318,0.43426 -0.9511719,0.71289 0.4576567,-0.0707 0.9147337,-0.14472 1.3730469,-0.21094 -0.1481226,-0.16215 -0.2832008,-0.33306 -0.421875,-0.50195 z m -20.7050785,15.97266 v 95.09375 H 118.65234 v -70.87696 c -1.2305,-0.69702 -2.73787,-1.63171 -4.73632,-2.82422 -0.65008,-0.38791 -0.23779,-1.49896 -0.25196,-2.25586 -0.0188,-1.00332 0.0522,-2.0095 0.1543,-3.00781 0.0767,-0.74958 0.17655,-1.49611 0.2832,-2.24219 -4.89165,1.37262 -9.24731,1.71175 -14.656248,0.93946 -1.008516,-0.144 -1.945634,-0.36229 -2.849609,-0.6211 -0.662492,0.20725 -1.337179,0.37954 -2.017578,0.53516 2.578245,4.48423 0.671701,4.13551 -2.392578,4.14844 -0.454017,0.37234 -1.135383,0.22908 -1.84375,0.01 -5.711308,0.0322 -17.231445,0.0997 -20.578125,0.082 -4.880372,-0.0257 -9.761215,-0.0227 -14.638672,-0.19335 -2.17574,-0.0761 -4.348923,-0.20633 -6.517578,-0.38086 -1.55561,0.11514 -3.112914,0.21867 -4.671875,0.25781 -4.36631,0.10962 -10.388189,-0.19215 -14.814453,-0.57031 -1.658797,-0.14172 -8.201837,-0.87138 -10.195313,-1.28907 -1.058474,-0.22178 -2.071742,-0.62227 -3.107422,-0.93359 -0.03064,-0.0148 -1.8989,-0.94569 -2.132812,-0.97852 -2.343673,-0.3288 -6.7088365,0.6364 -7.919922,-2.375 -0.4498988,-1.11868 -0.5444247,-2.01815 -0.3964844,-2.75195 -0.7516908,-0.0414 -1.000251,-0.067 -1.9902344,-0.11523 -13.2225613,-0.64463 0.082287,0.14769 -10.6992187,-0.10157 -1.4057051,-0.0325 -2.8075515,-0.17469 -4.2109375,-0.26171 -0.494141,-2.40392 -1.973053,-4.80632 -1.482422,-7.21094 0.218304,-1.06991 2.063477,-0.75869 3.1425782,-0.92578 0.4428018,-0.0686 0.8877743,-0.12465 1.3320313,-0.1836 -0.6005651,-0.0723 -1.1757963,-0.13835 -1.9374995,-0.25195 -0.553859,-0.0827 -1.088268,-0.26653 -1.634766,-0.38867 -0.272108,-0.0608 -0.544005,-0.1228 -0.820313,-0.16016 -0.578808,-0.0783 -1.216403,0.0522 -1.75,-0.16601 z" />
  <path
     id="flowRoot1221"
     transform="scale(0.93750004)"
     style="font-style:normal;font-weight:normal;font-size:40px;line-height:1.25;font-family:sans-serif;letter-spacing:0px;word-spacing:0px;fill:#000000;fill-opacity:1;stroke:none;stroke-width:3.48995638"
     d="M 29.003906,2.6835938 V 16.224609 H 2.7578125 L 3.875,20.412109 H 29.003906 V 41.492188 C 22.861583,54.056031 11.553653,66.619897 0.52539062,74.158203 L 1.78125,76.392578 C 11.41353,71.087844 21.326002,63.269601 29.003906,55.3125 v 10.050781 h 1.673828 c 3.071162,0 6.5625,-1.813928 6.5625,-3.070312 V 51.263672 c 6.979913,5.025537 15.076249,12.704306 18.007813,18.707031 8.655092,4.606743 12.424617,-12.843981 -18.007813,-21.638672 V 20.412109 h 25.964844 c 1.954376,0 3.210112,-0.696841 3.628906,-2.232421 C 62.646037,14.131329 55.666016,8.8261719 55.666016,8.8261719 L 49.664062,16.224609 H 37.240234 V 7.8496094 C 40.730191,7.4308146 42.1251,6.0335274 42.404297,4.21875 Z M 13.367188,22.646484 C 11.691999,34.931131 7.3661076,45.819116 1.6425781,53.357422 l 1.953125,1.396484 C 9.0400352,50.705557 13.228693,44.702469 16.439453,37.443359 c 1.535581,2.652367 2.931741,5.583861 3.210938,7.957032 5.165135,4.606742 10.888988,-4.886148 -1.814453,-11.447266 0.697991,-1.814777 1.394731,-3.629609 1.953124,-5.583984 2.931573,0 4.467924,-1.395134 4.886719,-3.070313 z m 34.203124,0 c -1.675179,9.492682 -5.026996,18.008894 -9.49414,23.732422 l 2.234375,1.394532 c 3.629555,-2.652376 6.83982,-6.5602 9.492187,-11.027344 2.791966,3.071161 5.585203,7.119318 6.283204,10.330078 6.142323,4.467144 11.585875,-6.841125 -4.886719,-13.123047 0.837589,-1.675179 1.675055,-3.488984 2.373047,-5.443359 2.931563,0 4.467924,-1.257388 4.886718,-2.792969 z m 15.927735,22.515625 c 0,0 0,0.002 0,0.002 0.0028,-1.72e-4 0.0044,2.43e-4 0.0078,0 0,0 -0.002,-0.002 -0.002,-0.002 -0.0013,1.03e-4 -0.0026,-4e-5 -0.0039,0 0,0 -0.002,0 -0.002,0 z m -5.25,7.472657 c -0.0086,0.0035 0.01423,0.01163 0.02148,0.01758 0.0039,-5.83e-4 0.0079,-0.0012 0.01172,-0.002 10e-4,-0.0032 0.0028,-0.0066 0.0039,-0.0098 -0.01239,-0.0044 -0.02558,-0.01059 -0.03711,-0.0059 z M 25.792969,65.921875 C 21.465423,78.904513 12.250293,94.121289 2.1992188,102.91602 L 3.875,104.58984 c 6.281922,-4.04835 12.28501,-9.63111 17.310547,-15.773434 2.791965,7.538306 5.862633,13.679544 9.492187,18.705074 -7.398707,8.6551 -17.170431,15.77535 -29.4550778,21.08008 l 1.1171876,2.09375 C 15.880875,126.22817 26.490265,120.08518 34.726562,112.54688 46.173629,124.69192 62.367079,127.625 86.517578,127.625 h 39.226562 c 0.4188,-3.62955 2.23373,-6.42208 5.86328,-6.98047 v -2.09375 c -10.88866,0.2792 -34.200977,0.2793 -44.531248,0.2793 -21.916927,0 -37.412218,-1.67489 -48.580078,-10.05078 6.979913,-7.53831 12.004184,-16.33452 15.49414,-25.9668 3.071162,-0.139598 4.606797,-0.557042 5.583985,-1.673828 l -9.492188,-8.515625 -5.583984,5.304687 H 29.142578 c 1.675179,-2.512768 3.071741,-5.026293 4.328125,-7.539062 3.21076,0.279196 4.327299,-0.278872 4.746094,-1.814453 z m 0.697265,16.054687 h 18.28711 C 42.264575,90.07327 38.49624,97.472112 33.470703,104.0332 29.282755,99.705684 25.931563,93.980739 23,86.582031 c 1.256384,-1.535581 2.373448,-3.069879 3.490234,-4.605469 z m 87.962886,4.007813 c -0.10435,0.02198 -0.21405,0.115603 -0.32421,0.121094 -0.0465,0.0023 -0.0525,0.0035 -0.0977,0.0059 0.0439,-9.83e-4 0.0637,0.0046 0.11523,0.002 0.14183,-0.0071 0.53805,-0.06358 0.40821,-0.121093 -0.0336,-0.01489 -0.0668,-0.01523 -0.10157,-0.0078 z M 74.785156,96.263672 c -0.01956,0.0072 -0.04012,0.01411 -0.06055,0.02148 0.01146,0.0082 0.02364,0.01533 0.03516,0.02344 0.01026,-0.01327 0.02092,-0.02589 0.03125,-0.03906 -0.002,-0.0019 -0.0038,-0.004 -0.0059,-0.0059 z" />
</svg>
