<svg xmlns="http://www.w3.org/2000/svg" xmlns:xlink="http://www.w3.org/1999/xlink" version="1.1" baseProfile="full" viewBox="0 0 200 200" width="200" height="200">
<g fill="black">
<path d="M 14.4 186.7 L 13.5 185.2 L 22.2 178.2 L 29.9 170.8 L 36.8 162.9 L 42.8 154.3 L 47.6 145.9 L 42 136.7 L 36.7 122.4 L 34.6 112.5 L 34.2 115 L 33.3 119.4 L 32.3 123.6 L 31.2 127.4 L 30 131 L 28.7 134.2 L 27.2 137.2 L 26.5 138.5 L 27.4 143.2 L 23.9 142.5 L 14 135.4 L 15.4 134 L 16.9 132.9 L 18.6 131.3 L 20.4 129.3 L 22.2 126.9 L 24 124.1 L 26 121 L 27.9 117.4 L 30 113.6 L 32.1 109.3 L 33.4 106.4 L 33.3 106.1 L 33.5 106 L 34.1 104.7 L 35.8 105.2 L 35.5 107.1 L 40.6 121 L 47.2 133.9 L 50.8 138.7 L 52.3 135.3 L 55.7 124.7 L 58.3 113.5 L 60.1 101.4 L 60.8 91 L 38.6 91 L 37.5 93.3 L 24.1 93.6 L 51.4 36 L 15 36 L 15 32 L 53 32 L 59 27 L 70 36 L 65 39 L 62.1 40.2 L 40.4 87 L 61 87 L 67 82 L 78 91 L 73 94 L 72.3 94.3 L 71.3 102.9 L 68.8 115.7 L 65.3 127.7 L 60.8 138.9 L 57 146.2 L 64.7 153.3 L 76.4 160.2 L 90.4 165.4 L 107.4 169 L 127.5 171 L 151.2 171.4 L 178.6 170.4 L 189.8 169.8 L 179.3 183.5 L 151.2 184 L 126.7 182.7 L 105.5 179.8 L 87.4 175.1 L 72.1 168.5 L 59.5 159.8 L 53 152.8 L 49.1 158.7 L 41.8 167.2 L 33.6 174.8 L 24.4 181.3 Z " />
</g>
</svg>
