<?xml version="1.0" encoding="UTF-8" standalone="no"?>
<svg
   xmlns:dc="http://purl.org/dc/elements/1.1/"
   xmlns:cc="http://creativecommons.org/ns#"
   xmlns:rdf="http://www.w3.org/1999/02/22-rdf-syntax-ns#"
   xmlns:svg="http://www.w3.org/2000/svg"
   xmlns="http://www.w3.org/2000/svg"
   xmlns:sodipodi="http://sodipodi.sourceforge.net/DTD/sodipodi-0.dtd"
   xmlns:inkscape="http://www.inkscape.org/namespaces/inkscape"
   version="1.1"
   viewBox="0 0 125 125"
   width="100pt"
   height="100pt"
   id="svg2"
   inkscape:version="0.92.5 (2060ec1f9f, 2020-04-08)"
   sodipodi:docname="futsuhen.svg">
  <metadata
     id="metadata12">
    <rdf:RDF>
      <cc:Work
         rdf:about="">
        <dc:format>image/svg+xml</dc:format>
        <dc:type
           rdf:resource="http://purl.org/dc/dcmitype/StillImage" />
        <dc:title></dc:title>
      </cc:Work>
    </rdf:RDF>
  </metadata>
  <defs
     id="defs10" />
  <sodipodi:namedview
     pagecolor="#ffffff"
     bordercolor="#666666"
     borderopacity="1"
     objecttolerance="10"
     gridtolerance="10"
     guidetolerance="10"
     inkscape:pageopacity="0"
     inkscape:pageshadow="2"
     inkscape:window-width="2880"
     inkscape:window-height="1495"
     id="namedview8"
     showgrid="false"
     fit-margin-top="0"
     fit-margin-left="0"
     fit-margin-right="0"
     fit-margin-bottom="0"
     inkscape:zoom="5.6568543"
     inkscape:cx="36.615078"
     inkscape:cy="65.431665"
     inkscape:window-x="-13"
     inkscape:window-y="-13"
     inkscape:window-maximized="1"
     inkscape:current-layer="svg2"
     units="pt" />
  <path
     id="rect4133"
     transform="scale(0.93750004)"
     style="opacity:0.00100002;fill:#ffffff;fill-opacity:1;fill-rule:nonzero;stroke:none;stroke-width:0.43914869;stroke-linecap:square;stroke-miterlimit:4;stroke-dasharray:none;stroke-dashoffset:0;stroke-opacity:1"
     d="M -14.681641,82.396484 V 215.72852 H 118.65234 v -82.68555 c -0.49863,0.18377 -1.07284,0.38351 -1.75,0.61523 -6.11096,2.0912 -11.03839,2.7192 -17.457028,1.80274 -1.008516,-0.144 -1.945634,-0.36229 -2.849609,-0.6211 -0.96601,0.3022 -1.950291,0.55259 -2.955078,0.74219 -1.013466,-0.0498 -2.049297,0.0662 -3.041016,-0.14844 -1.533151,-0.33189 -3.472078,-1.55693 -4.539062,-2.71679 -0.448691,-0.0795 -0.858828,-0.15816 -1.386719,-0.23828 -0.263484,-0.04 -0.187486,-0.42022 -0.158203,-0.75196 -0.09312,-0.15296 -0.0863,-0.26134 -0.0039,-0.33789 -0.01257,-0.0898 -0.02276,-0.1797 -0.03516,-0.26953 -0.332808,-0.41517 -0.518419,-0.83822 -0.27539,-1.25195 0.0186,-0.0317 0.04326,-0.0589 0.0625,-0.0898 -0.02833,-0.14526 -0.04054,-0.28806 0.01172,-0.42187 0.05285,-0.13532 0.07628,0.0452 0.09375,0.27344 0.03143,-0.0471 0.06478,-0.0927 0.09766,-0.13868 -0.01956,-0.47216 -0.0081,-0.94288 0.04492,-1.4082 -0.183081,-0.22033 -0.364799,-0.42961 -0.554688,-0.70117 -0.368559,-0.52708 -0.734827,-1.07716 -0.93164,-1.68945 -0.429447,-1.33604 -0.414839,-2.51966 0.09375,-3.75 -0.214661,-0.72871 -0.286016,-1.51187 -0.185547,-2.24805 0.06612,-0.48449 0.764198,-0.96714 1.501953,-1.36914 -0.01037,-0.42286 -0.01809,-0.84512 0.0039,-1.26758 0.07984,-1.53278 0.27704,-2.77685 0.705078,-4.24414 0.06451,-0.22113 0.338801,-1.06403 0.650391,-1.81445 -0.637763,-0.51019 -1.198486,-1.09893 -1.511719,-1.82617 -0.05395,-0.12526 -0.05523,-0.25915 -0.03125,-0.39649 -0.971354,-0.0947 -1.926357,-0.24491 -2.744141,-0.7207 -0.355851,0.31513 -0.750719,0.59464 -1.216796,0.83008 -0.334447,0.16894 -0.696527,0.27615 -1.044922,0.41406 -0.409915,0.0787 -0.816865,0.18011 -1.230469,0.23633 -0.200521,0.0272 -0.405058,0.0136 -0.607422,0.0137 -0.852751,2e-4 -1.688489,-0.0891 -2.513672,-0.31445 -0.260922,-0.0922 -0.729419,-0.25774 -0.933593,-0.34376 -0.452378,-0.19049 -0.861217,-0.4453 -1.257813,-0.71679 -0.07732,-0.0223 -0.13265,-0.0369 -0.220703,-0.0625 -0.08392,-0.0243 -0.164144,-0.0606 -0.240234,-0.10352 -0.166459,-0.094 -0.327935,-0.19778 -0.490235,-0.29883 0.01748,0.02 0.01533,0.0167 0.0332,0.0371 -0.08808,-0.0595 -0.357987,-0.23032 -0.265625,-0.17773 0.07858,0.0448 0.15563,0.0928 0.232422,0.14062 -0.03349,-0.0382 -0.03239,-0.0338 -0.06445,-0.0703 -0.03753,-0.0238 -0.07574,-0.0465 -0.113281,-0.0703 -0.279138,-0.0346 -0.54653,-0.0943 -0.757813,-0.26953 -1.761704,-1.46139 -1.557699,-1.87026 -1.503906,-3.38867 0.01095,-0.0603 0.02033,-0.11944 0.03125,-0.17969 0.0019,-0.0148 0.0038,-0.0301 0.0059,-0.0449 0.0018,-0.0132 0.01184,-0.0503 0.0098,-0.0371 -0.0046,0.0277 -0.01063,0.0544 -0.01563,0.082 -0.0055,0.0431 -0.01021,0.0875 -0.01367,0.13086 -0.003,0.0374 -0.03692,0.12927 -0.0039,0.11133 0.566069,-0.3079 1.112077,-0.65971 1.65625,-1.01368 -0.06676,-0.38613 -0.09278,-0.77978 -0.113281,-1.20898 0.01117,-0.28598 -0.005,-0.57379 0.0332,-0.85742 0.06871,-0.51014 0.172609,-0.966754 0.328125,-1.384768 0.0032,-0.01134 0.0084,-0.02189 0.01172,-0.0332 0.0228,-0.05984 0.04699,-0.119554 0.07227,-0.177734 0.1035,-0.303908 0.241777,-0.58992 0.410156,-0.859375 -0.147295,-0.325384 -0.211039,-0.631453 -0.414062,-1.351562 -0.156893,-1.068 -0.299325,-2.173814 -0.285156,-3.263672 -0.221773,-0.0971 -0.445182,-0.189085 -0.66211,-0.296875 -0.799575,-0.397305 -2.083023,-0.722173 -2.138672,-1.613282 -0.32482,-5.201389 0.911042,-5.52915 3.683594,-6.353515 0.01152,-0.09258 0.0204,-0.183925 0.03711,-0.279297 -0.0053,-0.03192 -0.01076,-0.0637 -0.01562,-0.0957 C 71.800012,85.070442 71.672087,84.955899 71.539062,84.847656 71.354079,84.601387 71.15071,84.367369 70.957031,84.126953 70.662783,83.840114 70.392068,83.529669 70.148438,83.199219 69.96175,82.946004 69.804544,82.67199 69.650391,82.396484 H 57.302734 c -0.368408,0.330441 -0.757638,0.632012 -1.240234,0.902344 -0.349107,0.195557 -0.737102,0.312467 -1.105469,0.46875 -0.782505,0.07123 -1.424407,0.247997 -2.130859,-0.183594 -0.08283,0.031 -0.165528,0.07015 -0.248047,0.09961 -0.459094,0.163904 -0.936463,0.275132 -1.404297,0.412109 -0.430575,0.06612 -1.900409,0.316941 -2.210937,0.230469 -0.747097,-0.208044 -1.494855,-0.53049 -2.082032,-1.03711 -0.262017,-0.226068 -0.401997,-0.554705 -0.519531,-0.892578 z m 99.19336,48.992186 c 0.0026,0.0183 0.0053,0.0364 0.0078,0.0547 0.01139,0.0812 0.0051,0.18107 -0.0039,0.2832 0.04253,0.0699 0.09492,0.14386 0.179687,0.23242 0.09294,-0.15158 0.02409,-0.0264 -0.0293,-0.45703 -0.0076,-0.0612 -0.01515,-0.12244 -0.02344,-0.18359 -9.05e-4,-9.9e-4 -0.003,-7.6e-4 -0.0039,-0.002 -0.05246,0.0198 -0.09586,0.0434 -0.126953,0.0723 z m -0.72461,-29.47461 c -0.0014,0.0132 -0.0064,0.0258 -0.0078,0.0391 0.0085,-0.004 0.01688,-0.008 0.02539,-0.0117 -0.0051,-0.009 -0.01249,-0.0179 -0.01758,-0.0273 z m -13.455078,4.27539 c -0.08913,-0.0105 0.708673,1.00926 0.84375,1.09375 0.1071,0.067 0.222694,0.11791 0.339844,0.16602 -0.730143,-0.82348 -1.137618,-1.25433 -1.183594,-1.25977 z m 0.158203,0.69336 c 0.321139,0.31634 0.516579,0.43218 0.955078,0.60352 -0.318245,-0.2015 -0.636811,-0.40205 -0.955078,-0.60352 z m 1.357422,0.86133 c -0.0114,-0.003 0.04113,0.0219 0.03125,0.0156 -0.0064,-0.004 -0.01313,-0.008 -0.01953,-0.0117 -0.0028,-6.7e-4 -0.009,-0.003 -0.01172,-0.004 z" />
  <path
     id="flowRoot152"
     transform="scale(0.93750004)"
     style="font-style:normal;font-weight:normal;font-size:40px;line-height:1.25;font-family:sans-serif;letter-spacing:0px;word-spacing:0px;fill:#000000;fill-opacity:1;stroke:none;stroke-width:3.31373096"
     d="M 24.882812,5.6464844 V 32.554688 H 4.4707031 l 1.0605469,3.84375 h 27.039062 v 15.90625 H 19.712891 l -1.589844,-0.796876 c 3.44628,-2.783533 6.627522,-5.698361 8.880859,-8.216796 2.783534,0.662746 3.84364,0.132133 4.771485,-1.19336 L 21.4375,36.53125 C 17.858671,43.158712 10.038518,52.834376 2.8808594,58.931641 l 1.7226562,1.722656 c 2.253337,-1.192943 4.5061642,-2.518521 6.6269534,-3.976563 V 127.0625 h 1.193359 c 3.44628,0 5.699219,-2.38635 5.699219,-3.18164 V 56.148438 h 14.447265 v 8.349609 L 22.498047,63.835938 c 0.795295,16.171006 -4.59e-4,32.607206 -3.181641,46.259762 l 2.253906,1.06055 c 5.301974,-11.266685 6.758866,-27.304766 7.289063,-43.078125 1.988239,-0.265098 3.048191,-0.927887 3.710937,-1.988281 v 60.044926 h 1.060547 c 3.57883,0 5.699219,-2.12268 5.699219,-2.91797 V 56.148438 h 15.509766 v 59.513672 c 0,1.59059 -0.530766,2.38672 -2.253906,2.38672 -2.120792,0 -9.808594,-0.66406 -9.808594,-0.66406 v 2.12109 c 3.843928,0.5302 5.965523,1.32606 7.291015,2.25391 1.060394,1.19294 1.590371,3.04883 1.855469,5.03711 8.880799,-0.92789 9.941406,-4.50768 9.941406,-10.33985 V 59.064453 c 3.44628,1.458042 5.964318,-0.399156 5.699219,-3.712891 l 0.132813,-0.130859 -0.132813,-0.132812 c -0.397648,-4.771773 -6.628501,-12.46065 -24.125,-17.232422 l -1.457031,1.326172 c 4.109026,2.783534 9.013757,7.024049 12.990234,11.265625 l -1.458984,1.857422 H 39.330078 v -15.90625 h 28.367188 c 1.72314,0 2.914852,-0.663053 3.3125,-2.121094 -3.57883,-3.57883 -9.410157,-8.482422 -9.410157,-8.482422 l -4.904297,6.759766 H 46.886719 V 10.152344 C 49.670253,9.6221456 50.598183,8.5629838 50.863281,6.8398438 L 39.330078,5.6464844 V 32.554688 h -7.15625 V 10.152344 c 2.783534,-0.5301984 3.844277,-1.5893602 4.109375,-3.3125002 z m 32.607422,5.3027346 c -2.385886,6.89256 -5.567765,13.917154 -8.21875,18.423828 l 1.855469,1.326172 c 4.374125,-3.181182 9.279119,-7.9531 13.123047,-12.857422 2.650985,0.265098 4.241551,-0.795865 4.904297,-2.253906 z M 9.2421875,12.009766 7.5195312,12.804688 c 3.1811818,4.374124 6.6280058,11.397775 7.1582028,16.964843 6.627462,6.097265 14.314289,-7.686024 -5.4355465,-17.759765 z M 114.43164,12.339844 c -0.12686,0.01128 -0.20049,0.05499 -0.25195,0.113281 0.002,0.0015 0.004,0.0024 0.006,0.0039 0.15711,0.0013 0.30813,-0.01293 0.46093,-0.02344 0.004,-0.02518 0.006,-0.04887 0.01,-0.07422 -0.0746,-0.0066 -0.16841,-0.02453 -0.22461,-0.01953 z m -8.10742,14.314453 c 0.0111,0.05004 0.0213,0.100162 0.0312,0.150391 0.002,0.0084 0.007,0.02686 0.01,0.03711 -0.006,-0.07544 -0.017,-0.142431 -0.041,-0.1875 z M 44.103516,63.4375 v 45.73047 h 1.191406 c 1.988238,0 4.375,-1.59169 4.375,-2.51953 V 67.28125 c 2.120788,-0.530197 3.049091,-1.192612 3.18164,-2.783203 z m 27.470703,27.615234 c -0.02121,0.01227 -0.04489,0.02837 -0.06641,0.04102 -0.0092,0.05139 -0.0053,0.109025 0.02734,0.111328 0.07712,0.0054 0.159244,0.0162 0.238282,0.02539 -0.06674,-0.05866 -0.130977,-0.121103 -0.199219,-0.177735 z" />
</svg>
