<?xml version="1.0" encoding="UTF-8" standalone="no"?>
<svg
   xmlns:dc="http://purl.org/dc/elements/1.1/"
   xmlns:cc="http://creativecommons.org/ns#"
   xmlns:rdf="http://www.w3.org/1999/02/22-rdf-syntax-ns#"
   xmlns:svg="http://www.w3.org/2000/svg"
   xmlns="http://www.w3.org/2000/svg"
   xmlns:sodipodi="http://sodipodi.sourceforge.net/DTD/sodipodi-0.dtd"
   xmlns:inkscape="http://www.inkscape.org/namespaces/inkscape"
   version="1.1"
   viewBox="0 0 125 125"
   width="100pt"
   height="100pt"
   id="svg2"
   inkscape:version="0.92.5 (2060ec1f9f, 2020-04-08)"
   sodipodi:docname="hahen.svg">
  <metadata
     id="metadata12">
    <rdf:RDF>
      <cc:Work
         rdf:about="">
        <dc:format>image/svg+xml</dc:format>
        <dc:type
           rdf:resource="http://purl.org/dc/dcmitype/StillImage" />
        <dc:title></dc:title>
      </cc:Work>
    </rdf:RDF>
  </metadata>
  <defs
     id="defs10" />
  <sodipodi:namedview
     pagecolor="#ffffff"
     bordercolor="#666666"
     borderopacity="1"
     objecttolerance="10"
     gridtolerance="10"
     guidetolerance="10"
     inkscape:pageopacity="0"
     inkscape:pageshadow="2"
     inkscape:window-width="2880"
     inkscape:window-height="1495"
     id="namedview8"
     showgrid="false"
     fit-margin-top="0"
     fit-margin-left="0"
     fit-margin-right="0"
     fit-margin-bottom="0"
     inkscape:zoom="5.6568543"
     inkscape:cx="75.102986"
     inkscape:cy="63.485952"
     inkscape:window-x="-13"
     inkscape:window-y="-13"
     inkscape:window-maximized="1"
     inkscape:current-layer="svg2"
     units="pt" />
  <path
     id="rect4133"
     style="opacity:0.00100002;fill:#ffffff;fill-opacity:1;fill-rule:nonzero;stroke:none;stroke-width:0.43914869;stroke-linecap:square;stroke-miterlimit:4;stroke-dasharray:none;stroke-dashoffset:0;stroke-opacity:1"
     d="M -14.681641,82.396484 V 215.72852 H 118.65234 v -96.46094 c -1.42906,0.49773 -2.83826,0.87 -4.89257,1.47851 -2.2998,0.19303 -1.79618,0.20783 -3.82422,0.19727 -0.48668,-0.002 -0.97899,0.0404 -1.46094,-0.0273 -0.12639,-0.0178 -0.25915,-0.0285 -0.38867,-0.041 0.54878,0.85488 1.07084,1.72581 1.51172,2.64844 -0.18521,1.2627 -0.10919,2.59387 -0.55664,3.78906 -0.40107,1.07125 -3.75583,3.31989 -4.2129,3.60742 -3.45232,2.17186 -7.160187,3.90215 -11.187495,4.66211 -1.013466,-0.0498 -2.049297,0.0662 -3.041016,-0.14844 -1.533151,-0.33189 -3.472078,-1.55693 -4.539062,-2.71679 -0.448691,-0.0795 -0.858828,-0.15816 -1.386719,-0.23828 -0.263484,-0.04 -0.187486,-0.42022 -0.158203,-0.75196 -0.09312,-0.15296 -0.08626,-0.26134 -0.0039,-0.33789 -0.01257,-0.0898 -0.02276,-0.1797 -0.03516,-0.26953 -0.332808,-0.41517 -0.518419,-0.83822 -0.27539,-1.25195 0.0186,-0.0317 0.04326,-0.0587 0.0625,-0.0898 -0.02833,-0.14526 -0.04054,-0.28806 0.01172,-0.42187 0.05285,-0.13532 0.07628,0.0452 0.09375,0.27344 0.03143,-0.0471 0.06478,-0.0927 0.09766,-0.13868 -0.04255,-1.02708 0.03783,-2.04769 0.453125,-3.01953 0.364095,-0.88656 0.770759,-1.74096 1.18164,-2.59375 -0.467107,-0.75945 -0.860362,-1.54346 -1.144531,-2.32226 -0.285234,-0.78172 -0.337396,-1.63041 -0.505859,-2.44531 -0.0041,-0.68465 -0.04732,-1.36902 -0.01172,-2.05274 0.07984,-1.53278 0.27704,-2.77685 0.705078,-4.24414 0.103681,-0.35541 0.740019,-2.35062 1.222657,-2.91211 -0.03995,-0.21739 -0.07874,-0.43542 -0.107422,-0.65625 -0.0898,-0.69132 -0.03104,-1.3929 -0.04687,-2.08984 0.05583,-0.69265 0.08069,-1.38868 0.166015,-2.07813 -0.187589,-0.21932 -0.357518,-0.43428 -0.482422,-0.63867 -0.146589,-0.23987 -0.270476,-0.46301 -0.386718,-0.68164 -0.100849,-0.0625 -0.200645,-0.12186 -0.302735,-0.19922 -2.31027,-1.75062 -2.091234,-4.047638 -2.328125,-6.568359 -0.0043,-0.806848 -0.06276,-1.614557 -0.01367,-2.419922 0.126651,-2.077696 0.35413,-2.902489 0.890625,-4.849609 0.193753,-0.703197 0.407972,-1.400685 0.623047,-2.097656 0.149314,-0.483866 0.109631,-1.088306 0.46875,-1.445313 0.01919,-0.01908 0.0333,-0.01986 0.04687,-0.02344 0.0014,-0.80139 0.144882,-1.484957 0.556641,-2.109375 -0.115276,-0.165601 -0.222811,-0.336087 -0.322266,-0.511719 -0.211132,-0.37285 -0.3799,-0.751815 -0.527344,-1.134766 z m 99.19336,48.992186 c 0.0026,0.0183 0.0053,0.0364 0.0078,0.0547 0.01139,0.0812 0.0051,0.18107 -0.0039,0.2832 0.04253,0.0699 0.09492,0.14386 0.179687,0.23242 0.09294,-0.15158 0.02409,-0.0264 -0.0293,-0.45703 -0.0076,-0.0612 -0.01515,-0.12244 -0.02344,-0.18359 -9.05e-4,-9.9e-4 -0.003,-9.6e-4 -0.0039,-0.002 -0.05246,0.0198 -0.09586,0.0434 -0.126953,0.0723 z M 106.47266,82.396484 c -0.95886,0.804881 -2.15657,1.067919 -3.47071,1.199219 -1.49485,0.07545 -1.99627,0.18063 -3.525388,-0.09766 -0.05208,-0.0095 -0.105858,-0.02864 -0.158203,-0.03906 -0.08854,0.07479 -0.175292,0.151423 -0.265625,0.22461 0.240106,0.245996 0.487638,0.522032 0.761719,0.876953 1.689207,2.187438 1.812937,4.923692 1.757817,7.550781 -0.13544,0.648052 -0.15276,1.333711 -0.40625,1.945313 -0.43365,1.046272 -1.13557,1.87221 -1.996098,2.445312 -0.04043,0.206101 -0.08158,0.412382 -0.117188,0.619141 -0.186653,0.216546 -0.382234,0.425814 -0.576172,0.636718 0.0573,-0.02924 0.114685,-0.04861 0.166016,-0.04492 0.28988,0.02083 -0.04923,0.341003 -0.394531,0.626953 0.08259,0.407209 0.174706,0.812835 0.228515,1.224609 0.07321,0.560267 0.10566,1.122067 0.117188,1.683597 2.08849,-0.87726 3.43203,-1.07841 5.67187,-1.56055 2.10427,-0.31235 4.39214,-0.908646 6.09961,1.06836 0.2215,0.25646 0.31671,0.57761 0.38477,0.91406 0.0357,-0.005 0.0716,-0.009 0.10742,-0.0137 0.001,-0.004 8.4e-4,-0.0113 0.002,-0.0156 0.004,0.005 0.008,0.009 0.0117,0.0137 0.0609,-0.007 0.12025,-0.0238 0.18164,-0.0274 0.061,-0.12131 0.22548,-0.37769 0.33204,-0.56054 -0.0111,-0.17851 -0.0287,-0.36109 -0.0391,-0.53711 -0.10144,-3.522038 -0.002,-0.672193 -0.1582,-4.003909 -0.0719,-1.539402 -0.29457,-3.124592 0.74609,-4.523438 -0.47109,-0.727578 -0.71296,-2.208958 -0.74218,-2.847656 -0.10489,-2.292107 0.34633,-4.547905 0.92382,-6.757813 z m -2.61719,31.134766 c -0.24743,0.002 -0.49501,0.004 -0.74219,0.004 0.0463,0.0545 0.0972,0.10487 0.14258,0.16015 0.16352,0.19932 0.26501,0.33944 0.40234,0.51367 0.002,-0.0102 0.001,-0.021 0.004,-0.0312 0.0525,-0.2187 0.12526,-0.43183 0.19336,-0.64648 z m -7.152345,3.19336 c -0.0059,0.20169 0.0013,0.43681 -0.0078,0.61914 -0.02279,0.45498 8.19e-4,0.92305 -0.05078,1.375 0.396145,0.34579 0.825297,0.66227 1.138672,1.08203 1.117355,1.49668 1.415416,2.89998 1.302735,4.69922 -0.02598,0.41471 -0.05659,0.83261 -0.146485,1.23828 -0.06034,0.2723 -0.1468,0.53684 -0.238281,0.80078 0.748505,-0.38286 1.527928,-0.83477 2.718748,-1.60742 0.24758,-0.16063 0.48529,-0.33652 0.72461,-0.50976 -0.0844,-0.15307 -0.16476,-0.30883 -0.25976,-0.45313 -0.41341,-0.6279 -0.83983,-1.24635 -1.2461,-1.87891 -1.20742,-1.87991 -1.531767,-2.6328 -2.917967,-4.28906 -0.316833,-0.37856 -0.669077,-0.72594 -1.017578,-1.07617 z m -2.150391,6.00586 c -0.03295,0.0206 -0.0625,0.0462 -0.0957,0.0664 0.06457,0.0331 0.09792,0.0159 0.0957,-0.0664 z"
     transform="scale(0.93750004)" />
  <path
     id="flowRoot302"
     transform="scale(0.93750004)"
     style="font-style:normal;font-weight:normal;font-size:40px;line-height:1.25;font-family:sans-serif;letter-spacing:0px;word-spacing:0px;fill:#000000;fill-opacity:1;stroke:none;stroke-width:3.52544427"
     d="M 33.810547,1.6953125 V 35.962891 H 21.119141 V 14.810547 c 2.961373,-0.564071 4.372259,-1.69216 4.654297,-3.525391 L 13.082031,9.875 V 35.962891 H 1.3769531 l 1.1289063,4.089843 H 68.783203 c 1.833231,0 3.244916,-0.704663 3.667969,-2.255859 C 68.079621,33.70736 61.310547,28.347656 61.310547,28.347656 l -6.064453,7.615235 H 42.273438 V 23.412109 h 23.408203 c 1.974248,0 3.242962,-0.704663 3.666015,-2.255859 -3.948497,-3.80748 -10.152344,-8.884766 -10.152344,-8.884766 l -5.359374,7.050782 h -11.5625 V 6.6308594 C 45.375829,6.2078061 46.643746,4.9386998 46.925781,3.1054688 Z M 7.0175781,43.578125 v 86.162105 h 1.5507813 c 2.8203556,0 6.3476566,-1.97342 6.3476566,-3.10156 v -6.6289 h 42.164062 v 8.32031 h 1.550781 c 2.961374,0 6.205079,-1.97342 6.205079,-3.10156 V 47.949219 c 2.820355,-0.423054 3.807808,-1.550367 4.089843,-3.101563 L 57.080078,43.578125 V 76.294922 H 14.916016 V 47.808594 c 2.397302,-0.423054 3.524997,-1.409349 3.666015,-3.101563 z m 17.2050779,0.564453 c -1.26916,10.15328 -4.090565,19.741698 -8.039062,26.228516 l 2.257812,1.410156 c 3.102391,-3.102391 5.781611,-7.332349 7.75586,-12.126953 1.833231,2.115266 3.383194,4.653872 3.947265,6.910156 4.512569,3.666462 9.306824,-4.653829 -2.679687,-9.730469 0.846106,-2.397302 1.552723,-4.793711 2.257812,-7.332031 2.961374,-0.141018 4.369916,-1.55232 4.792969,-3.103515 z m 18.472656,0.140625 C 41.285135,55.141572 37.760626,64.730372 32.542969,71.076172 l 2.255859,1.550781 c 3.80748,-3.243409 7.051524,-7.473748 9.589844,-12.691406 2.397302,2.961373 4.511708,6.768703 5.216797,9.871094 4.794604,4.230533 10.011541,-5.35692 -3.949219,-12.548829 0.987124,-2.397302 1.974597,-4.935896 2.679688,-7.615234 2.820355,0 4.090225,-1.411695 4.654296,-2.96289 z M 14.916016,80.384766 H 57.080078 V 115.91992 H 14.916016 Z m 9.023437,3.101562 C 22.670293,94.062661 19.568424,104.07411 15.337891,111.125 l 2.115234,1.26953 c 3.666462,-3.66646 6.487856,-8.46164 8.744141,-13.820311 1.974248,2.115271 3.666397,4.655431 4.230468,7.052731 4.653587,3.66647 9.165031,-4.51398 -3.103515,-10.013669 0.846106,-2.115266 1.55077,-4.511293 2.255859,-6.767578 2.820356,-0.141018 4.230851,-1.551925 4.794922,-3.244141 z m 18.615235,0.140625 c -1.692216,11.281422 -5.641325,21.152627 -11,28.062497 l 2.115234,1.55078 c 4.371551,-3.66646 8.039019,-8.74326 10.859375,-14.666011 2.53832,3.243411 4.652333,7.474951 5.357422,10.859371 4.935622,4.23054 10.295922,-5.49909 -4.087891,-13.537106 0.846107,-2.256284 1.550769,-4.512854 2.25586,-6.910156 2.820355,0 4.23085,-1.268724 4.794921,-2.960937 z M 68,119.7168 c -0.0061,0.002 -0.01146,0.004 -0.01758,0.006 -0.01961,0.0384 -0.03898,0.0768 -0.05859,0.11523 0.02558,-0.0403 0.05069,-0.0808 0.07617,-0.12109 z m -0.212891,0.0723 c -0.09809,0.0338 -0.199759,0.0747 -0.300781,0.11524 0.07548,0.021 0.151207,0.0403 0.226563,0.0586 0.02283,-0.0595 0.0495,-0.11721 0.07422,-0.17383 z m -0.777343,1.41211 c -0.01003,0.0348 -0.04924,0.13365 -0.0293,0.10352 0.0021,-0.003 0.0038,-0.007 0.0059,-0.01 0.0063,-0.0249 0.01839,-0.0736 0.02344,-0.0937 z" />
</svg>
