<?xml version="1.0" encoding="UTF-8" standalone="no"?>
<svg
   xmlns:dc="http://purl.org/dc/elements/1.1/"
   xmlns:cc="http://creativecommons.org/ns#"
   xmlns:rdf="http://www.w3.org/1999/02/22-rdf-syntax-ns#"
   xmlns:svg="http://www.w3.org/2000/svg"
   xmlns="http://www.w3.org/2000/svg"
   xmlns:sodipodi="http://sodipodi.sourceforge.net/DTD/sodipodi-0.dtd"
   xmlns:inkscape="http://www.inkscape.org/namespaces/inkscape"
   version="1.1"
   viewBox="0 0 125 125"
   width="100pt"
   height="100pt"
   id="svg2"
   inkscape:version="0.92.5 (2060ec1f9f, 2020-04-08)"
   sodipodi:docname="hahen15-2.svg">
  <metadata
     id="metadata12">
    <rdf:RDF>
      <cc:Work
         rdf:about="">
        <dc:format>image/svg+xml</dc:format>
        <dc:type
           rdf:resource="http://purl.org/dc/dcmitype/StillImage" />
        <dc:title></dc:title>
      </cc:Work>
    </rdf:RDF>
  </metadata>
  <defs
     id="defs10" />
  <sodipodi:namedview
     pagecolor="#ffffff"
     bordercolor="#666666"
     borderopacity="1"
     objecttolerance="10"
     gridtolerance="10"
     guidetolerance="10"
     inkscape:pageopacity="0"
     inkscape:pageshadow="2"
     inkscape:window-width="2880"
     inkscape:window-height="1495"
     id="namedview8"
     showgrid="false"
     fit-margin-top="0"
     fit-margin-left="0"
     fit-margin-right="0"
     fit-margin-bottom="0"
     inkscape:zoom="5.6568543"
     inkscape:cx="75.102986"
     inkscape:cy="63.485952"
     inkscape:window-x="-13"
     inkscape:window-y="-13"
     inkscape:window-maximized="1"
     inkscape:current-layer="svg2"
     units="pt" />
  <path
     id="rect4133"
     style="opacity:0.00100002;fill:#ffffff;fill-opacity:1;fill-rule:nonzero;stroke:none;stroke-width:0.43914869;stroke-linecap:square;stroke-miterlimit:4;stroke-dasharray:none;stroke-dashoffset:0;stroke-opacity:1"
     d="M -14.681641,82.396484 V 215.72852 H 118.65234 v -96.46094 c -1.42906,0.49773 -2.83826,0.87 -4.89257,1.47851 -2.2998,0.19303 -1.79618,0.20783 -3.82422,0.19727 -0.48668,-0.002 -0.97899,0.0404 -1.46094,-0.0273 -0.12639,-0.0178 -0.25915,-0.0285 -0.38867,-0.041 0.54878,0.85488 1.07084,1.72581 1.51172,2.64844 -0.18521,1.2627 -0.10919,2.59387 -0.55664,3.78906 -0.40107,1.07125 -3.75583,3.31989 -4.2129,3.60742 -3.45232,2.17186 -7.160187,3.90215 -11.187495,4.66211 -1.013466,-0.0498 -2.049297,0.0662 -3.041016,-0.14844 -1.533151,-0.33189 -3.472078,-1.55693 -4.539062,-2.71679 -0.448691,-0.0795 -0.858828,-0.15816 -1.386719,-0.23828 -0.263484,-0.04 -0.187486,-0.42022 -0.158203,-0.75196 -0.09312,-0.15296 -0.08626,-0.26134 -0.0039,-0.33789 -0.01257,-0.0898 -0.02276,-0.1797 -0.03516,-0.26953 -0.332808,-0.41517 -0.518419,-0.83822 -0.27539,-1.25195 0.0186,-0.0317 0.04326,-0.0587 0.0625,-0.0898 -0.02833,-0.14526 -0.04054,-0.28806 0.01172,-0.42187 0.05285,-0.13532 0.07628,0.0452 0.09375,0.27344 0.03143,-0.0471 0.06478,-0.0927 0.09766,-0.13868 -0.04255,-1.02708 0.03783,-2.04769 0.453125,-3.01953 0.364095,-0.88656 0.770759,-1.74096 1.18164,-2.59375 -0.467107,-0.75945 -0.860362,-1.54346 -1.144531,-2.32226 -0.285234,-0.78172 -0.337396,-1.63041 -0.505859,-2.44531 -0.0041,-0.68465 -0.04732,-1.36902 -0.01172,-2.05274 0.07984,-1.53278 0.27704,-2.77685 0.705078,-4.24414 0.103681,-0.35541 0.740019,-2.35062 1.222657,-2.91211 -0.03995,-0.21739 -0.07874,-0.43542 -0.107422,-0.65625 -0.0898,-0.69132 -0.03104,-1.3929 -0.04687,-2.08984 0.05583,-0.69265 0.08069,-1.38868 0.166015,-2.07813 -0.187589,-0.21932 -0.357518,-0.43428 -0.482422,-0.63867 -0.146589,-0.23987 -0.270476,-0.46301 -0.386718,-0.68164 -0.100849,-0.0625 -0.200645,-0.12186 -0.302735,-0.19922 -2.31027,-1.75062 -2.091234,-4.047638 -2.328125,-6.568359 -0.0043,-0.806848 -0.06276,-1.614557 -0.01367,-2.419922 0.126651,-2.077696 0.35413,-2.902489 0.890625,-4.849609 0.193753,-0.703197 0.407972,-1.400685 0.623047,-2.097656 0.149314,-0.483866 0.109631,-1.088306 0.46875,-1.445313 0.01919,-0.01908 0.0333,-0.01986 0.04687,-0.02344 0.0014,-0.80139 0.144882,-1.484957 0.556641,-2.109375 -0.115276,-0.165601 -0.222811,-0.336087 -0.322266,-0.511719 -0.211132,-0.37285 -0.3799,-0.751815 -0.527344,-1.134766 z m 99.19336,48.992186 c 0.0026,0.0183 0.0053,0.0364 0.0078,0.0547 0.01139,0.0812 0.0051,0.18107 -0.0039,0.2832 0.04253,0.0699 0.09492,0.14386 0.179687,0.23242 0.09294,-0.15158 0.02409,-0.0264 -0.0293,-0.45703 -0.0076,-0.0612 -0.01515,-0.12244 -0.02344,-0.18359 -9.05e-4,-9.9e-4 -0.003,-9.6e-4 -0.0039,-0.002 -0.05246,0.0198 -0.09586,0.0434 -0.126953,0.0723 z M 106.47266,82.396484 c -0.95886,0.804881 -2.15657,1.067919 -3.47071,1.199219 -1.49485,0.07545 -1.99627,0.18063 -3.525388,-0.09766 -0.05208,-0.0095 -0.105858,-0.02864 -0.158203,-0.03906 -0.08854,0.07479 -0.175292,0.151423 -0.265625,0.22461 0.240106,0.245996 0.487638,0.522032 0.761719,0.876953 1.689207,2.187438 1.812937,4.923692 1.757817,7.550781 -0.13544,0.648052 -0.15276,1.333711 -0.40625,1.945313 -0.43365,1.046272 -1.13557,1.87221 -1.996098,2.445312 -0.04043,0.206101 -0.08158,0.412382 -0.117188,0.619141 -0.186653,0.216546 -0.382234,0.425814 -0.576172,0.636718 0.0573,-0.02924 0.114685,-0.04861 0.166016,-0.04492 0.28988,0.02083 -0.04923,0.341003 -0.394531,0.626953 0.08259,0.407209 0.174706,0.812835 0.228515,1.224609 0.07321,0.560267 0.10566,1.122067 0.117188,1.683597 2.08849,-0.87726 3.43203,-1.07841 5.67187,-1.56055 2.10427,-0.31235 4.39214,-0.908646 6.09961,1.06836 0.2215,0.25646 0.31671,0.57761 0.38477,0.91406 0.0357,-0.005 0.0716,-0.009 0.10742,-0.0137 0.001,-0.004 8.4e-4,-0.0113 0.002,-0.0156 0.004,0.005 0.008,0.009 0.0117,0.0137 0.0609,-0.007 0.12025,-0.0238 0.18164,-0.0274 0.061,-0.12131 0.22548,-0.37769 0.33204,-0.56054 -0.0111,-0.17851 -0.0287,-0.36109 -0.0391,-0.53711 -0.10144,-3.522038 -0.002,-0.672193 -0.1582,-4.003909 -0.0719,-1.539402 -0.29457,-3.124592 0.74609,-4.523438 -0.47109,-0.727578 -0.71296,-2.208958 -0.74218,-2.847656 -0.10489,-2.292107 0.34633,-4.547905 0.92382,-6.757813 z m -2.61719,31.134766 c -0.24743,0.002 -0.49501,0.004 -0.74219,0.004 0.0463,0.0545 0.0972,0.10487 0.14258,0.16015 0.16352,0.19932 0.26501,0.33944 0.40234,0.51367 0.002,-0.0102 0.001,-0.021 0.004,-0.0312 0.0525,-0.2187 0.12526,-0.43183 0.19336,-0.64648 z m -7.152345,3.19336 c -0.0059,0.20169 0.0013,0.43681 -0.0078,0.61914 -0.02279,0.45498 8.19e-4,0.92305 -0.05078,1.375 0.396145,0.34579 0.825297,0.66227 1.138672,1.08203 1.117355,1.49668 1.415416,2.89998 1.302735,4.69922 -0.02598,0.41471 -0.05659,0.83261 -0.146485,1.23828 -0.06034,0.2723 -0.1468,0.53684 -0.238281,0.80078 0.748505,-0.38286 1.527928,-0.83477 2.718748,-1.60742 0.24758,-0.16063 0.48529,-0.33652 0.72461,-0.50976 -0.0844,-0.15307 -0.16476,-0.30883 -0.25976,-0.45313 -0.41341,-0.6279 -0.83983,-1.24635 -1.2461,-1.87891 -1.20742,-1.87991 -1.531767,-2.6328 -2.917967,-4.28906 -0.316833,-0.37856 -0.669077,-0.72594 -1.017578,-1.07617 z m -2.150391,6.00586 c -0.03295,0.0206 -0.0625,0.0462 -0.0957,0.0664 0.06457,0.0331 0.09792,0.0159 0.0957,-0.0664 z"
     transform="scale(0.93750004)" />
  <path
     id="flowRoot150"
     style="font-style:normal;font-weight:normal;font-size:40px;line-height:1.25;font-family:sans-serif;letter-spacing:0px;word-spacing:0px;fill:#000000;fill-opacity:1;stroke:none;stroke-width:3.21491742"
     d="M 31.500356,3.3553193 V 35.376805 H 20.184437 V 15.572117 c 2.700531,-0.385791 3.857187,-1.543576 4.11438,-3.215333 l -11.572266,-1.2854 V 35.376805 H 1.9233284 l 0.9008788,3.858032 H 65.321769 c 1.671756,0 2.829542,-0.643529 3.215331,-2.058106 -3.8579,-3.857899 -10.288696,-8.745117 -10.288696,-8.745116 l -5.527954,6.94519 H 39.346425 V 22.387303 h 22.117311 c 1.800354,0 2.957716,-0.642134 3.343506,-1.928101 -3.8579,-3.729304 -9.772352,-8.616944 -9.772339,-8.616944 l -5.273437,6.817017 H 39.346425 V 7.9842258 C 42.304163,7.469839 43.331787,6.3124767 43.588979,4.6407198 Z M 97.30846,5.1405977 c 0.06975,0.064603 0.138863,0.1306728 0.206916,0.2050782 0.322294,0.036262 0.639094,0.1011058 0.948487,0.1867675 0.01059,-0.041084 0.02803,-0.076243 0.03666,-0.1190185 z M 83.363151,9.2879371 c -0.190858,0.6591798 -0.378633,1.3173769 -0.591431,1.9866939 0.0073,3.69e-4 0.01465,-3.71e-4 0.02197,0 0.115636,-0.349075 0.23117,-0.698261 0.357057,-1.043701 0.08305,-0.227905 0.174061,-0.4531885 0.261841,-0.679321 0.0031,-0.063694 0.0083,-0.1282237 0.01282,-0.1922606 -0.02337,-0.022622 -0.03937,-0.048581 -0.06226,-0.071409 z M 7.1967661,42.448338 v 77.286992 h 1.543579 c 2.7005309,0 5.7861329,-1.80021 5.7861329,-2.82898 v -7.5879 h 38.578493 v 7.84425 h 1.415405 c 2.829128,0 6.044311,-1.67161 6.044312,-2.82899 V 50.422582 46.692723 c 2.186144,-0.385789 2.956731,-1.286652 3.085328,-2.572632 L 53.104971,42.962865 V 105.46043 H 14.526478 V 46.692723 c 2.443337,-0.385789 3.472665,-1.413992 3.729859,-2.957153 z m 53.3679219,7.974244 c 4.61e-4,-3.42e-4 0.0013,0.0094 0.0019,0.01099 7.64e-4,-0.0042 2.49e-4,-0.0085 0,-0.01282 -5.74e-4,6.29e-4 -0.0012,0.0012 -0.0019,0.0019 z M 30.473134,43.477392 V 67.268286 H 16.454579 l 1.029053,3.858032 h 10.803223 c -3.086334,8.101592 -7.458999,16.07338 -13.245851,22.631839 l 1.671753,2.058103 c 5.401062,-4.50087 10.031074,-9.773029 13.760377,-15.688476 v 22.761836 h 1.157227 c 2.31474,0 4.885254,-1.54428 4.885254,-2.44445 V 76.52793 c 3.472111,3.857901 6.94547,9.258507 7.974244,13.502198 5.915447,4.500885 11.186663,-7.844206 -7.974244,-16.203004 v -2.700806 h 12.989502 c 1.800354,0 2.958126,-0.643542 3.215333,-2.058105 -2.957738,-2.957724 -7.459718,-6.300659 -7.459718,-6.300659 L 41.4027,67.268286 h -4.887085 v -19.54651 c 2.443337,-0.38579 3.472665,-1.415824 3.729859,-2.958985 z m 37.47986,3.464355 c -0.0095,0.02424 -0.01781,0.04905 -0.02747,0.07325 -0.0071,0.01778 -0.01469,0.03538 -0.02197,0.0531 0.02297,-0.02123 0.04664,-0.04097 0.06958,-0.06226 -0.006,-0.02159 -0.01292,-0.0429 -0.02014,-0.06409 z m -23.849488,0.651856 c -1.028774,3.729304 -3.472649,10.929837 -5.401612,15.302124 l 1.671754,0.770874 c 3.343513,-3.472111 6.301218,-7.585912 8.358764,-10.415039 2.443337,0.38579 3.859018,-0.901582 4.116211,-1.801758 z m -24.305421,0.512695 -1.799927,0.772705 c 1.92895,3.472111 3.858879,9.259057 3.601685,13.888551 4.372287,4.758077 10.929314,-5.016505 -1.801758,-14.661256 z m 43.524171,2.127686 c -0.001,0.0015 -0.0026,0.0022 -0.0037,0.0037 v 0.0019 c 0.0042,-1.42e-4 0.0067,10e-5 0.01099,0 -0.0024,-0.0016 -0.0045,-0.0033 -0.0073,-0.0055 z m -2.753906,0.217895 c 5.9e-4,0.0045 0.0012,0.0072 0.0019,0.01282 1.59e-4,-0.0031 -3.19e-4,-0.0063 0,-0.0092 -0.0012,-1.73e-4 -0.0013,-0.0025 -0.0019,-0.0037 z m 0.0037,0.02563 c 6.32e-4,0.0069 0.0012,0.0081 0.0019,0.01465 -0.0012,-0.0033 -3.77e-4,-0.0072 0,-0.01099 -7e-4,-0.0011 -0.0012,-0.0024 -0.0019,-0.0037 z m 0.02563,0.0019 c -2.94e-4,0.0012 4.75e-4,0.0027 0,0.0037 4.43e-4,8.07e-4 0.0013,0.0011 0.0019,0.0019 v -0.0019 -0.0019 -0.0019 c -3.4e-5,1.51e-4 -0.0018,-1.51e-4 -0.0019,0 z m 0.05676,0.109863 c -6.03e-4,9.38e-4 6.05e-4,0.0027 0,0.0037 l 0.0019,-0.0019 z m 0.0293,0.922852 c -0.0015,0.0011 -0.0051,0.0019 -0.0037,0.0019 0.0026,3.1e-5 0.0013,5.8e-5 0.0037,0 z m 0.01099,0.662841 c 2.44e-4,0.0043 -2.45e-4,0.0085 0,0.01282 8.8e-4,-0.0031 0.0023,-0.006 0.0037,-0.0092 v -0.0019 c -9.38e-4,-9.38e-4 -0.0025,-0.0011 -0.0037,-0.0019 z m 0.117187,0.07508 v 0.0019 c -0.0014,7.69e-4 0.0051,-0.0026 0.0037,-0.0019 -0.0014,8.19e-4 -0.0023,-6.91e-4 -0.0037,0 z m 3.867188,12.061158 0.0073,0.02198 c 0.0051,-0.0072 0.0095,-0.0148 0.01465,-0.02198 z m 22.141114,49.920047 c -0.03089,0.0193 -0.05859,0.0433 -0.08972,0.0623 0.06053,0.031 0.0918,0.0149 0.08972,-0.0623 z"
     inkscape:connector-curvature="0" />
</svg>
