<?xml version="1.0" encoding="UTF-8" standalone="no"?>
<svg
   xmlns:dc="http://purl.org/dc/elements/1.1/"
   xmlns:cc="http://creativecommons.org/ns#"
   xmlns:rdf="http://www.w3.org/1999/02/22-rdf-syntax-ns#"
   xmlns:svg="http://www.w3.org/2000/svg"
   xmlns="http://www.w3.org/2000/svg"
   xmlns:sodipodi="http://sodipodi.sourceforge.net/DTD/sodipodi-0.dtd"
   xmlns:inkscape="http://www.inkscape.org/namespaces/inkscape"
   version="1.1"
   viewBox="0 0 125 125"
   width="100pt"
   height="100pt"
   id="svg2"
   inkscape:version="0.92.5 (2060ec1f9f, 2020-04-08)"
   sodipodi:docname="kibinyou.svg">
  <metadata
     id="metadata12">
    <rdf:RDF>
      <cc:Work
         rdf:about="">
        <dc:format>image/svg+xml</dc:format>
        <dc:type
           rdf:resource="http://purl.org/dc/dcmitype/StillImage" />
        <dc:title></dc:title>
      </cc:Work>
    </rdf:RDF>
  </metadata>
  <defs
     id="defs10" />
  <sodipodi:namedview
     pagecolor="#ffffff"
     bordercolor="#666666"
     borderopacity="1"
     objecttolerance="10"
     gridtolerance="10"
     guidetolerance="10"
     inkscape:pageopacity="0"
     inkscape:pageshadow="2"
     inkscape:window-width="2880"
     inkscape:window-height="1495"
     id="namedview8"
     showgrid="false"
     fit-margin-top="0"
     fit-margin-left="0"
     fit-margin-right="0"
     fit-margin-bottom="0"
     inkscape:zoom="2"
     inkscape:cx="291.88676"
     inkscape:cy="256.2818"
     inkscape:window-x="-13"
     inkscape:window-y="-13"
     inkscape:window-maximized="1"
     inkscape:current-layer="svg2"
     units="pt" />
  <path
     id="rect4133"
     transform="scale(0.93750004)"
     style="opacity:0.00100002;fill:#ffffff;fill-opacity:1;fill-rule:nonzero;stroke:none;stroke-width:0.43914869;stroke-linecap:square;stroke-miterlimit:4;stroke-dasharray:none;stroke-dashoffset:0;stroke-opacity:1"
     d="M -14.681641,82.396484 V 215.72852 H 118.65234 V 133.2207 c -0.49766,0.16178 -0.97911,0.26686 -1.45703,0.33399 -0.10778,0.0371 -0.17954,0.0647 -0.29297,0.10351 -6.11096,2.0912 -11.03839,2.7192 -17.457028,1.80274 -1.008516,-0.144 -1.945634,-0.36229 -2.849609,-0.6211 -0.96601,0.3022 -1.950291,0.55259 -2.955078,0.74219 -1.013466,-0.0498 -2.049297,0.0662 -3.041016,-0.14844 -1.533151,-0.33189 -3.472078,-1.55693 -4.539062,-2.71679 -0.448691,-0.0795 -0.858828,-0.15816 -1.386719,-0.23828 -0.263484,-0.04 -0.187486,-0.42022 -0.158203,-0.75196 -0.09312,-0.15296 -0.08633,-0.26134 -0.0039,-0.33789 -0.01257,-0.0898 -0.02276,-0.1797 -0.03516,-0.26953 -0.332808,-0.41517 -0.518419,-0.83822 -0.27539,-1.25195 0.0186,-0.0317 0.04326,-0.0589 0.0625,-0.0898 -0.02833,-0.14526 -0.04054,-0.28806 0.01172,-0.42187 0.05285,-0.13532 0.07628,0.0452 0.09375,0.27344 0.03143,-0.0471 0.06478,-0.0927 0.09766,-0.13868 -0.01956,-0.47216 -0.0081,-0.94288 0.04492,-1.4082 -0.183081,-0.22033 -0.364799,-0.42961 -0.554688,-0.70117 -0.368559,-0.52708 -0.734827,-1.07716 -0.93164,-1.68945 -0.429447,-1.33604 -0.414839,-2.51966 0.09375,-3.75 -0.214661,-0.72871 -0.286016,-1.51187 -0.185547,-2.24805 0.06612,-0.48449 0.764198,-0.96714 1.501953,-1.36914 -0.01037,-0.42286 -0.01806,-0.84512 0.0039,-1.26758 0.07984,-1.53278 0.27704,-2.77685 0.705078,-4.24414 0.06451,-0.22113 0.338801,-1.06403 0.650391,-1.81445 -0.637763,-0.51019 -1.198486,-1.09893 -1.511719,-1.82617 -0.03527,-0.0819 -0.04311,-0.16804 -0.04102,-0.25586 -0.443652,0.1302 -0.886908,0.26316 -1.332032,0.38086 -0.640702,0.094 -1.279842,0.21329 -1.923828,0.28124 -0.356548,0.0377 -2.041089,0.0533 -2.345703,0.0352 -0.308307,-0.0183 -0.618191,-0.0396 -0.925781,-0.0723 -0.102476,8e-5 -0.204476,0.008 -0.306641,0.008 -0.852751,2e-4 -1.688489,-0.0891 -2.513672,-0.31445 -0.260922,-0.0922 -0.729419,-0.25771 -0.933593,-0.34376 -0.452381,-0.19049 -0.861217,-0.4453 -1.257813,-0.71679 -0.07732,-0.0223 -0.13265,-0.0369 -0.220703,-0.0625 -0.08392,-0.0243 -0.164144,-0.0606 -0.240234,-0.10352 -0.166462,-0.094 -0.327935,-0.19778 -0.490235,-0.29883 0.01748,0.02 0.01533,0.0167 0.0332,0.0371 -0.08808,-0.0595 -0.357987,-0.23032 -0.265625,-0.17773 0.07858,0.0448 0.15563,0.0928 0.232422,0.14062 -0.03349,-0.0382 -0.03239,-0.0338 -0.06445,-0.0703 -0.03753,-0.0238 -0.07574,-0.0465 -0.113281,-0.0703 -0.279138,-0.0346 -0.54653,-0.0943 -0.757813,-0.26953 -1.761704,-1.46139 -1.557699,-1.87026 -1.503906,-3.38867 0.01095,-0.0603 0.02033,-0.11944 0.03125,-0.17969 0.0019,-0.0148 0.0038,-0.0301 0.0059,-0.0449 0.0018,-0.0132 0.01175,-0.0503 0.0098,-0.0371 -0.0046,0.0277 -0.01063,0.0544 -0.01563,0.082 -0.0055,0.0431 -0.01021,0.0875 -0.01367,0.13086 -0.003,0.0374 -0.03695,0.12927 -0.0039,0.11133 0.440591,-0.23965 0.864184,-0.5159 1.289062,-0.78907 -0.220585,-0.97661 -0.299247,-1.98663 -0.259765,-3.00976 0.02789,-0.722691 0.158645,-1.437424 0.238281,-2.156252 0.102286,-0.432892 0.205376,-0.865634 0.306641,-1.298828 -1.866165,0.578683 -3.738955,1.138624 -5.546875,1.888672 -0.527668,0.187457 -3.724878,1.401788 -4.148438,1.18164 -0.221406,-0.115077 -0.445544,-0.249497 -0.669922,-0.373046 -0.509009,0.222796 -1.044922,0.381904 -1.861328,0.322265 -0.819167,-0.05984 -1.569118,-0.486873 -2.353516,-0.730469 -1.00005,-0.792121 -1.985652,-1.414128 -2.148437,-2.99414 -0.132901,-1.28995 0.267565,-2.607235 0.720703,-3.822266 0.208394,-0.558777 0.754801,-0.930682 1.201172,-1.326172 0.605329,-0.536328 1.141617,-0.881525 1.705078,-1.1875 0.500675,-0.438614 1.236118,-0.998411 1.257813,-1.013672 0.324921,-0.22854 0.672165,-0.423869 1.023437,-0.609374 1.665962,-0.879789 1.490589,-0.742437 3.25586,-1.326172 0.07688,-0.0194 0.153548,-0.03935 0.230468,-0.05859 0.171376,-0.163432 0.376553,-0.351969 0.671875,-0.619141 0.237436,-0.214804 0.528223,-0.359331 0.800781,-0.527343 0.410892,-0.253286 0.83547,-0.483524 1.257813,-0.716797 0.01534,-0.0082 0.03163,-0.01746 0.04687,-0.02539 0.294831,-0.162346 0.590282,-0.323188 0.886719,-0.482422 -0.310534,-0.308205 -0.604884,-0.629231 -0.835938,-0.998047 -0.218249,-0.348375 -0.361755,-0.636231 -0.474609,-0.904297 h -8.617188 c -0.368408,0.330441 -0.757638,0.632012 -1.240234,0.902344 -0.349107,0.195557 -0.737102,0.312467 -1.105469,0.46875 -0.782505,0.07123 -1.424407,0.247997 -2.130859,-0.183594 -0.08283,0.031 -0.165528,0.07015 -0.248047,0.09961 -0.459094,0.163904 -0.936463,0.275132 -1.404297,0.412109 -0.430575,0.06612 -1.900409,0.316941 -2.210937,0.230469 -0.747097,-0.208044 -1.494855,-0.530487 -2.082032,-1.03711 -0.262017,-0.226068 -0.401997,-0.554705 -0.519531,-0.892578 H 5.0527344 c -1.3098855,1.621903 -2.7998641,2.676814 -6.3808594,0.875 -0.303862,-0.152891 -0.5793033,-0.469682 -0.8144531,-0.875 z m 99.19336,48.992186 c 0.0026,0.0183 0.0053,0.0364 0.0078,0.0547 0.01139,0.0812 0.0051,0.18107 -0.0039,0.2832 0.04253,0.0699 0.09492,0.14386 0.179687,0.23242 0.09294,-0.15158 0.02409,-0.0264 -0.0293,-0.45703 -0.0076,-0.0612 -0.01515,-0.12244 -0.02344,-0.18359 -9.05e-4,-9.9e-4 -0.003,-6.1e-4 -0.0039,-0.002 -0.05246,0.0198 -0.09586,0.0434 -0.126953,0.0723 z M 63.441406,98.414062 c -0.06378,0.01352 -0.130578,0.02785 -0.195312,0.04102 0.0573,0.0914 0.2053,0.03954 0.292968,0 0.0047,-0.0078 0.009,-0.01563 0.01367,-0.02344 -0.02582,0.0027 -0.04586,0.0073 -0.07227,0.0098 -0.01601,0.0015 -0.02578,-0.01826 -0.03906,-0.02734 z m 0.08984,0.05469 c 0.04852,-0.0247 0.0753,-0.04839 -0.146484,0.113281 0.03532,0.02999 0.04998,0.03717 0.05469,0.04492 0.02726,-0.05298 0.05993,-0.10557 0.0918,-0.158203 z m 6.800781,7.7207 c -0.08913,-0.0105 0.708673,1.00926 0.84375,1.09375 0.1071,0.067 0.222694,0.11791 0.339844,0.16602 -0.730143,-0.82348 -1.137618,-1.25433 -1.183594,-1.25977 z m 0.158203,0.69336 c 0.321139,0.31634 0.516579,0.43218 0.955078,0.60352 -0.318245,-0.2015 -0.636811,-0.40205 -0.955078,-0.60352 z m 1.357422,0.86133 c -0.0114,-0.003 0.04113,0.0219 0.03125,0.0156 -0.0064,-0.004 -0.01313,-0.008 -0.01953,-0.0117 -0.0028,-6.7e-4 -0.009,-0.003 -0.01172,-0.004 z m 8.023438,1.42774 c -0.06375,0.0125 -0.09708,0.0228 -0.15625,0.0352 -0.0574,0.024 -0.116967,0.0433 -0.173828,0.0684 -0.10527,0.0465 0.443008,-0.12567 0.330078,-0.10351 z" />
  <path
     id="flowRoot501"
     transform="scale(0.93750004)"
     style="font-style:normal;font-weight:normal;font-size:40px;line-height:1.25;font-family:sans-serif;letter-spacing:0px;word-spacing:0px;fill:#000000;fill-opacity:1;stroke:none;stroke-width:3.49646473"
     d="M 53.607422,3.4628906 C 42.83831,8.2180828 22.138154,13.811857 4.9355469,16.189453 l 0.6992187,2.517578 C 13.746564,18.567173 22.55889,17.867682 30.810547,16.888672 V 28.916016 H 3.3984375 l 1.1191406,4.05664 H 27.453125 C 21.858781,45.000495 13.188267,56.747502 2.2792969,65.558594 l 1.5390625,2.238281 C 14.447612,61.503238 23.677759,53.671653 30.810547,44.720703 v 24.054688 h 1.398437 c 4.475475,0 7.271485,-1.957724 7.271485,-2.796875 V 40.244141 c 5.174768,3.636323 10.770075,9.090931 13.007812,13.566406 8.811092,4.615333 13.56532,-12.307382 -13.007812,-16.363281 v -4.47461 h 23.636719 c 1.95802,0 3.357001,-0.699836 3.636718,-2.238281 C 62.698007,26.818334 56.125,21.783203 56.125,21.783203 L 50.25,28.916016 H 39.480469 V 15.769531 c 6.433495,-0.97901 12.308074,-1.95849 17.203125,-2.9375 3.216747,1.258728 5.454163,1.259494 6.71289,0.140625 z M 122.14844,37.210938 c -0.0417,0.02179 -0.0884,0.04464 -0.13086,0.06641 0.0755,0.04626 0.14764,0.09641 0.20898,0.140625 -0.0269,-0.07106 -0.0505,-0.135542 -0.0781,-0.207031 z m -59.283206,5.373046 c -0.0091,0.01268 -0.01827,0.0264 -0.02734,0.03906 l 0.04102,0.02734 c -0.0032,-0.02234 -0.01099,-0.04401 -0.01367,-0.06641 z M 60.599609,53.53125 C 53.187104,68.356261 25.914707,87.097532 1.4394531,95.628906 l 0.6992188,2.238282 C 12.488208,95.209872 23.117335,91.15363 32.767578,86.398438 c 4.335617,4.195757 8.951864,11.329068 9.791016,17.203122 8.391515,6.57336 16.503366,-10.769133 -7.832032,-18.181638 14.265579,-7.272647 26.851933,-15.944422 34.404297,-24.335938 10.489395,14.685153 31.609301,27.271583 54.406251,33.705078 0.69929,-3.356606 3.91438,-6.991692 8.25,-7.970703 l 0.14062,-2.097656 C 108.85107,80.245228 84.235711,71.154372 71.648438,59.40625 c 1.818161,-0.139859 4.05538,-2.238627 4.894531,-2.658203 z m 15.94336,3.216797 c 0.04626,-0.05693 0.0906,-0.116704 0.136719,-0.173828 -6.21e-4,-5.62e-4 -0.0013,-0.0014 -0.002,-0.002 z M 61.71875,74.791016 v 29.230464 l -0.558594,-1.53906 c -19.300486,6.71321 -38.322562,13.00564 -46.574218,15.10352 l 7.132812,10.34961 c 1.118869,-0.55944 2.237861,-1.81703 2.517578,-3.35547 16.503314,-8.39152 28.811189,-15.10495 37.482422,-20 v 14.40625 c 0,1.95802 -0.559138,2.51562 -2.796875,2.51562 -2.517455,0 -14.685547,-0.83789 -14.685547,-0.83789 v 2.23828 c 5.314627,0.55944 8.390823,1.67759 10.208984,3.07618 1.678306,1.25872 2.378486,3.35677 2.658204,5.73437 11.608263,-0.97901 12.867187,-5.31566 12.867187,-12.30859 v -13.28516 c 16.643173,6.57335 30.209577,16.08374 35.664067,22.09766 9.92996,3.91604 14.12623,-15.105 -26.992192,-23.2168 6.573354,-3.77618 13.846099,-9.231284 17.482422,-12.587891 2.657313,0.839152 4.61516,4.95e-4 5.31445,-0.978515 L 89.970703,83.460938 c -2.517455,5.174767 -8.671776,14.825149 -13.287109,20.699222 l 0.699218,0.69922 c -2.377596,-0.4196 -4.754796,-0.83824 -7.412109,-1.25782 V 79.824219 c 3.216748,-0.559435 4.474956,-1.538074 4.894531,-3.496094 z" />
</svg>
