<?xml version="1.0" encoding="UTF-8" standalone="no"?>
<!-- Created with Inkscape (http://www.inkscape.org/) -->

<svg
   xmlns:dc="http://purl.org/dc/elements/1.1/"
   xmlns:cc="http://creativecommons.org/ns#"
   xmlns:rdf="http://www.w3.org/1999/02/22-rdf-syntax-ns#"
   xmlns:svg="http://www.w3.org/2000/svg"
   xmlns="http://www.w3.org/2000/svg"
   xmlns:sodipodi="http://sodipodi.sourceforge.net/DTD/sodipodi-0.dtd"
   xmlns:inkscape="http://www.inkscape.org/namespaces/inkscape"
   width="100pt"
   height="100pt"
   viewBox="0 0 125 125"
   id="svg2"
   version="1.1"
   inkscape:version="0.91 r"
   sodipodi:docname="morikanmuri.svg">
  <defs
     id="defs4" />
  <sodipodi:namedview
     id="base"
     pagecolor="#ffffff"
     bordercolor="#666666"
     borderopacity="1.0"
     inkscape:pageopacity="0.0"
     inkscape:pageshadow="2"
     inkscape:zoom="3.959798"
     inkscape:cx="82.588079"
     inkscape:cy="57.421824"
     inkscape:document-units="pt"
     inkscape:current-layer="layer1"
     showgrid="false"
     units="pt"
     inkscape:window-width="1280"
     inkscape:window-height="748"
     inkscape:window-x="0"
     inkscape:window-y="0"
     inkscape:window-maximized="1" />
  <metadata
     id="metadata7">
    <rdf:RDF>
      <cc:Work
         rdf:about="">
        <dc:format>image/svg+xml</dc:format>
        <dc:type
           rdf:resource="http://purl.org/dc/dcmitype/StillImage" />
        <dc:title />
      </cc:Work>
    </rdf:RDF>
  </metadata>
  <g
     inkscape:label="レイヤー 1"
     inkscape:groupmode="layer"
     id="layer1"
     transform="translate(0,-927.36222)">
    <path
       inkscape:connector-curvature="0"
       id="path4145"
       style="font-style:normal;font-variant:normal;font-weight:normal;font-stretch:normal;font-size:medium;line-height:125%;font-family:IPAex明朝;-inkscape-font-specification:IPAex明朝;letter-spacing:-0.02px;word-spacing:0px;fill:#000000;fill-opacity:1;stroke:none;stroke-width:1px;stroke-linecap:butt;stroke-linejoin:miter;stroke-opacity:1"
       d="m 65.216063,949.85376 31.005859,0 6.347658,-7.99561 c 3.33659,3.09245 6.22558,5.96111 8.66699,8.60596 l -1.40381,2.56348 -42.968748,0 c 13.427735,10.00977 29.785157,17.21191 49.072268,21.60644 -2.44141,2.11589 -4.27246,4.57764 -5.49317,7.38526 -17.415362,-6.02214 -32.491044,-14.64844 -45.227047,-25.87891 l 0,31.49414 -7.141113,0 0,-28.62549 C 44.606525,970.44295 27.984618,979.02856 8.2092268,984.76587 L 6.5612776,981.89722 C 26.051837,975.30542 41.880288,965.68221 54.046629,953.02759 l -39.489746,0 -1.220703,-3.17383 44.73877,0 0,-15.625 c 8.341471,0.24414 12.512207,1.28174 12.512207,3.11279 0,1.05795 -1.790365,2.13624 -5.371094,3.23487 z"
       sodipodi:nodetypes="cccccccccccccccccccscc" />
  </g>
</svg>
