<?xml version="1.0" encoding="UTF-8" standalone="no"?>
<svg
   xmlns:dc="http://purl.org/dc/elements/1.1/"
   xmlns:cc="http://creativecommons.org/ns#"
   xmlns:rdf="http://www.w3.org/1999/02/22-rdf-syntax-ns#"
   xmlns:svg="http://www.w3.org/2000/svg"
   xmlns="http://www.w3.org/2000/svg"
   xmlns:sodipodi="http://sodipodi.sourceforge.net/DTD/sodipodi-0.dtd"
   xmlns:inkscape="http://www.inkscape.org/namespaces/inkscape"
   version="1.1"
   viewBox="0 0 125 125"
   width="100pt"
   height="100pt"
   id="svg2"
   inkscape:version="0.92.5 (2060ec1f9f, 2020-04-08)"
   sodipodi:docname="kuroashi2.svg">
  <metadata
     id="metadata12">
    <rdf:RDF>
      <cc:Work
         rdf:about="">
        <dc:format>image/svg+xml</dc:format>
        <dc:type
           rdf:resource="http://purl.org/dc/dcmitype/StillImage" />
        <dc:title></dc:title>
      </cc:Work>
    </rdf:RDF>
  </metadata>
  <defs
     id="defs10" />
  <sodipodi:namedview
     pagecolor="#ffffff"
     bordercolor="#666666"
     borderopacity="1"
     objecttolerance="10"
     gridtolerance="10"
     guidetolerance="10"
     inkscape:pageopacity="0"
     inkscape:pageshadow="2"
     inkscape:window-width="2880"
     inkscape:window-height="1495"
     id="namedview8"
     showgrid="false"
     fit-margin-top="0"
     fit-margin-left="0"
     fit-margin-right="0"
     fit-margin-bottom="0"
     inkscape:zoom="2.8284271"
     inkscape:cx="114.11267"
     inkscape:cy="-1.1767278"
     inkscape:window-x="-13"
     inkscape:window-y="-13"
     inkscape:window-maximized="1"
     inkscape:current-layer="svg2"
     units="pt" />
  <path
     id="rect4133"
     transform="scale(0.93750004)"
     style="opacity:0.00100002;fill:#ffffff;fill-opacity:1;fill-rule:nonzero;stroke:none;stroke-width:0.43914869;stroke-linecap:square;stroke-miterlimit:4;stroke-dasharray:none;stroke-dashoffset:0;stroke-opacity:1"
     d="M -14.681641,82.396484 V 215.72852 H 118.65234 v -82.68555 c -0.49863,0.18377 -1.07284,0.38351 -1.75,0.61523 -6.11096,2.0912 -11.03839,2.7192 -17.457028,1.80274 -1.008516,-0.144 -1.945634,-0.36229 -2.849609,-0.6211 -0.96601,0.3022 -1.950291,0.55259 -2.955078,0.74219 -1.013466,-0.0498 -2.049297,0.0662 -3.041016,-0.14844 -1.533151,-0.33189 -3.472078,-1.55693 -4.539062,-2.71679 -0.448691,-0.0795 -0.858828,-0.15816 -1.386719,-0.23828 -0.263484,-0.04 -0.187486,-0.42022 -0.158203,-0.75196 -0.09312,-0.15296 -0.08632,-0.26134 -0.0039,-0.33789 -0.01257,-0.0898 -0.02276,-0.1797 -0.03516,-0.26953 -0.332808,-0.41517 -0.518419,-0.83822 -0.27539,-1.25195 0.0186,-0.0317 0.04326,-0.0589 0.0625,-0.0898 -0.02833,-0.14526 -0.04054,-0.28806 0.01172,-0.42187 0.05285,-0.13532 0.07628,0.0452 0.09375,0.27344 0.03143,-0.0471 0.06478,-0.0927 0.09766,-0.13868 -0.01956,-0.47216 -0.0081,-0.94288 0.04492,-1.4082 -0.183081,-0.22033 -0.364799,-0.42961 -0.554688,-0.70117 -0.368559,-0.52708 -0.734827,-1.07716 -0.93164,-1.68945 -0.429447,-1.33604 -0.414839,-2.51966 0.09375,-3.75 -0.214661,-0.72871 -0.286016,-1.51187 -0.185547,-2.24805 0.06612,-0.48449 0.764198,-0.96714 1.501953,-1.36914 -0.01037,-0.42286 -0.01807,-0.84512 0.0039,-1.26758 0.07984,-1.53278 0.27704,-2.77685 0.705078,-4.24414 0.06451,-0.22113 0.338801,-1.06403 0.650391,-1.81445 -0.637763,-0.51019 -1.198486,-1.09893 -1.511719,-1.82617 -0.05395,-0.12528 -0.05523,-0.25915 -0.03125,-0.39649 -0.971354,-0.0947 -1.926355,-0.24491 -2.744141,-0.7207 -0.355851,0.31513 -0.750719,0.59464 -1.216796,0.83008 -0.334447,0.16894 -0.696527,0.27615 -1.044922,0.41406 -0.409915,0.0787 -0.816865,0.18011 -1.230469,0.23633 -0.200521,0.0272 -0.405058,0.0136 -0.607422,0.0137 -0.852751,2e-4 -1.688489,-0.0891 -2.513672,-0.31445 -0.260922,-0.0922 -0.729419,-0.25772 -0.933593,-0.34376 -0.45238,-0.19049 -0.861217,-0.4453 -1.257813,-0.71679 -0.07732,-0.0223 -0.13265,-0.0369 -0.220703,-0.0625 -0.08392,-0.0243 -0.164144,-0.0606 -0.240234,-0.10352 -0.166461,-0.094 -0.327935,-0.19778 -0.490235,-0.29883 0.01748,0.02 0.01533,0.0167 0.0332,0.0371 -0.08808,-0.0595 -0.357987,-0.23032 -0.265625,-0.17773 0.07858,0.0448 0.15563,0.0928 0.232422,0.14062 -0.03349,-0.0382 -0.03239,-0.0338 -0.06445,-0.0703 -0.03753,-0.0238 -0.07574,-0.0465 -0.113281,-0.0703 -0.279138,-0.0346 -0.54653,-0.0943 -0.757813,-0.26953 -1.761704,-1.46139 -1.557699,-1.87026 -1.503906,-3.38867 0.01095,-0.0603 0.02033,-0.11944 0.03125,-0.17969 0.0019,-0.0148 0.0038,-0.0301 0.0059,-0.0449 0.0018,-0.0132 0.01178,-0.0503 0.0098,-0.0371 -0.0046,0.0277 -0.01063,0.0544 -0.01563,0.082 -0.0055,0.0431 -0.01021,0.0875 -0.01367,0.13086 -0.003,0.0374 -0.03694,0.12927 -0.0039,0.11133 0.566069,-0.3079 1.112077,-0.65971 1.65625,-1.01368 -0.06676,-0.38613 -0.09278,-0.77978 -0.113281,-1.20898 0.01117,-0.28598 -0.005,-0.57379 0.0332,-0.85742 0.06871,-0.51014 0.172609,-0.966752 0.328125,-1.384768 0.0032,-0.01134 0.0084,-0.02189 0.01172,-0.0332 0.0228,-0.05984 0.04699,-0.119554 0.07227,-0.177734 0.1035,-0.303908 0.241777,-0.58992 0.410156,-0.859375 -0.147295,-0.325384 -0.211039,-0.631453 -0.414062,-1.351562 -0.02303,-0.156785 -0.03859,-0.318319 -0.06055,-0.476563 -1.981671,0.618128 -3.975555,1.201116 -5.896484,1.998047 -0.527668,0.187457 -3.724878,1.401788 -4.148438,1.18164 -0.221406,-0.115077 -0.445544,-0.249497 -0.669922,-0.373046 -0.509009,0.222796 -1.044922,0.381904 -1.861328,0.322265 -0.819167,-0.05984 -1.569119,-0.486874 -2.353516,-0.730469 -1.00005,-0.792121 -1.985652,-1.414128 -2.148437,-2.99414 -0.132901,-1.28995 0.267565,-2.607235 0.720703,-3.822266 0.208394,-0.558777 0.754801,-0.930682 1.201172,-1.326172 0.605329,-0.536328 1.141617,-0.881525 1.705078,-1.1875 0.500675,-0.438614 1.236118,-0.998412 1.257813,-1.013672 0.324921,-0.22854 0.672165,-0.423869 1.023437,-0.609374 1.665962,-0.879788 1.49059,-0.742437 3.25586,-1.326172 0.07688,-0.0194 0.153548,-0.03935 0.230468,-0.05859 0.171376,-0.163432 0.376553,-0.351969 0.671875,-0.619141 0.237436,-0.214804 0.528223,-0.359331 0.800781,-0.527343 0.410891,-0.253285 0.83547,-0.483524 1.257813,-0.716797 0.01534,-0.0082 0.03162,-0.01746 0.04687,-0.02539 0.378054,-0.208172 0.754206,-0.419068 1.136719,-0.619141 0.02791,-0.07765 0.04821,-0.157528 0.08398,-0.232421 0.357904,-0.749224 0.667419,-1.181003 1.029297,-1.533204 H 57.302734 c -0.368408,0.330441 -0.757638,0.632012 -1.240234,0.902344 -0.349107,0.195557 -0.737102,0.312467 -1.105469,0.46875 -0.782505,0.07123 -1.424407,0.247997 -2.130859,-0.183594 -0.08283,0.031 -0.165528,0.07015 -0.248047,0.09961 -0.459094,0.163904 -0.936463,0.275132 -1.404297,0.412109 -0.430575,0.06612 -1.900409,0.316941 -2.210937,0.230469 -0.747097,-0.208044 -1.494855,-0.530488 -2.082032,-1.03711 -0.262017,-0.226068 -0.401997,-0.554705 -0.519531,-0.892578 H 5.0527344 c -1.3098855,1.621903 -2.7998641,2.676814 -6.3808594,0.875 -0.303862,-0.152891 -0.5793033,-0.469682 -0.8144531,-0.875 z m 99.19336,48.992186 c 0.0026,0.0183 0.0053,0.0364 0.0078,0.0547 0.01139,0.0812 0.0051,0.18107 -0.0039,0.2832 0.04253,0.0699 0.09492,0.14386 0.179687,0.23242 0.09294,-0.15158 0.02409,-0.0264 -0.0293,-0.45703 -0.0076,-0.0612 -0.01515,-0.12244 -0.02344,-0.18359 -9.05e-4,-9.9e-4 -0.003,-6.6e-4 -0.0039,-0.002 -0.05246,0.0198 -0.09586,0.0434 -0.126953,0.0723 z M 63.441406,98.414062 c -0.06378,0.01352 -0.130578,0.02785 -0.195312,0.04102 0.0573,0.0914 0.2053,0.03954 0.292968,0 0.0047,-0.0078 0.009,-0.01563 0.01367,-0.02344 -0.02582,0.0027 -0.04586,0.0073 -0.07227,0.0098 -0.01601,0.0015 -0.02578,-0.01826 -0.03906,-0.02734 z m 0.08984,0.05469 c 0.04852,-0.0247 0.0753,-0.04839 -0.146484,0.113281 0.03532,0.02999 0.04998,0.03717 0.05469,0.04492 0.02726,-0.05298 0.05993,-0.10557 0.0918,-0.158203 z m 20.255859,3.44531 c -0.0014,0.0132 -0.0064,0.0258 -0.0078,0.0391 0.0085,-0.004 0.01688,-0.008 0.02539,-0.0117 -0.0051,-0.009 -0.01249,-0.0179 -0.01758,-0.0273 z m -13.455078,4.27539 c -0.08913,-0.0105 0.708673,1.00926 0.84375,1.09375 0.1071,0.067 0.222694,0.11791 0.339844,0.16602 -0.730143,-0.82348 -1.137618,-1.25433 -1.183594,-1.25977 z m 0.158203,0.69336 c 0.321139,0.31634 0.516579,0.43218 0.955078,0.60352 -0.318245,-0.2015 -0.636811,-0.40205 -0.955078,-0.60352 z m 1.357422,0.86133 c -0.0114,-0.003 0.04113,0.0219 0.03125,0.0156 -0.0064,-0.004 -0.01313,-0.008 -0.01953,-0.0117 -0.0028,-6.7e-4 -0.009,-0.003 -0.01172,-0.004 z" />
  <path
     id="flowRoot282"
     transform="scale(0.93750004)"
     style="font-style:normal;font-weight:normal;font-size:40px;line-height:1.25;font-family:sans-serif;letter-spacing:0px;word-spacing:0px;fill:#000000;fill-opacity:1;stroke:none;stroke-width:3.45495653"
     d="m 122.35938,42.160156 c -0.0118,5.76e-4 -0.0265,0.01858 -0.0215,0.0293 0.005,0.0096 0.0157,0.01405 0.0215,0.02344 0.006,-0.0052 0.0133,-0.01246 0.0195,-0.01758 0.005,-0.0039 0.0108,-0.0077 0.0156,-0.01172 -0.01,-0.01186 -0.0206,-0.02414 -0.0352,-0.02344 z m -21.45508,0.925782 c -0.006,0.01988 -0.01,0.04053 -0.0156,0.06055 0.007,-0.0062 0.0143,-0.0094 0.0215,-0.01563 0.005,-0.0053 0.0105,-0.01036 0.0156,-0.01563 -0.006,-0.009 -0.0161,-0.0207 -0.0215,-0.0293 z m 24.76758,1.001953 c -0.002,0.0032 -0.004,0.0065 -0.006,0.0098 0.003,3.31e-4 0.006,0.0016 0.01,0.002 -0.001,-0.004 -0.003,-0.0077 -0.004,-0.01172 z m -19.76758,0.261718 c -0.002,4.9e-4 -0.004,0.0015 -0.006,0.002 0.003,7.33e-4 0.007,0.0012 0.01,0.002 -9.4e-4,-0.0015 -0.003,-0.0024 -0.004,-0.0039 z m 0.58203,0.132813 c -0.003,2.72e-4 -0.005,0.0018 -0.008,0.002 l -5.22657,4.957031 H 32.705078 L 23.03125,45.019531 v 39.800781 h 1.244141 c 3.593154,0 7.599609,-2.073154 7.599609,-2.902343 v -2.486328 h 30.542969 v 8.291015 H 17.779297 l 1.105469,4.007813 H 62.417969 V 100.4375 H 6.171875 l 1.2421875,3.86914 H 125.16016 c 2.07297,0 3.3154,-0.69076 3.59179,-2.21094 -4.42234,-3.731329 -11.19336,-8.707028 -11.19336,-8.707028 l -6.08007,7.048828 H 71.125 v -8.707031 h 42.42578 c 1.93478,0 3.17916,-0.690283 3.59375,-2.072266 -3.17856,-2.763965 -7.46218,-5.804038 -9.53515,-7.324219 2.07297,-0.690991 3.73094,-1.796816 3.86914,-2.349609 V 54.832031 c 2.48756,-0.414595 4.56096,-1.520893 5.25195,-2.488281 z m 12.25195,3.283203 c -0.0205,0.01023 -0.0497,0.01743 -0.0703,0.02734 0.0297,0.0036 0.0563,0.0062 0.0859,0.0098 -0.004,-0.01149 -0.0119,-0.02568 -0.0156,-0.03711 z M 31.875,53.449219 h 30.542969 v 8.845703 H 31.875 Z m 39.25,0 h 31.37109 v 8.845703 H 71.125 Z M 31.875,66.441406 H 62.417969 V 75.5625 H 31.875 Z m 39.25,0 h 31.37109 V 75.5625 H 71.125 Z m 0,12.990235 h 31.37109 v 3.59375 h 1.38086 c 0.2764,0 0.69088,-4.74e-4 1.10547,-0.138672 l -4.2832,4.835937 H 71.125 Z M 27.177734,106.38086 c -1.520181,7.8773 -9.813275,13.12826 -16.308593,14.64844 -2.9021667,1.38198 -4.9737212,3.73065 -4.1445316,6.63281 1.2437843,3.31676 6.0796676,3.73212 9.9492186,1.93555 6.495318,-2.34937 14.511421,-9.67485 12.714844,-23.08008 z m 71.863282,0.27539 -1.244141,1.38281 c 7.739105,5.11334 17.826765,14.23361 21.419925,21.41992 10.22667,4.97514 13.95919,-15.75462 -20.175784,-22.80273 z m -51.824219,0.41406 -1.796875,0.69141 c 2.625767,5.11333 4.973662,12.99046 4.697266,19.34766 7.186309,7.7391 17.414753,-7.73942 -2.900391,-20.03907 z m 25.289062,0.41602 -1.658203,0.96679 c 4.422345,4.83701 9.811377,12.99054 11.19336,19.34766 8.70649,6.08072 15.755125,-11.46976 -9.535157,-20.31445 z" />
</svg>
