<?xml version="1.0" encoding="UTF-8" standalone="no"?>
<svg
   xmlns:dc="http://purl.org/dc/elements/1.1/"
   xmlns:cc="http://creativecommons.org/ns#"
   xmlns:rdf="http://www.w3.org/1999/02/22-rdf-syntax-ns#"
   xmlns:svg="http://www.w3.org/2000/svg"
   xmlns="http://www.w3.org/2000/svg"
   xmlns:sodipodi="http://sodipodi.sourceforge.net/DTD/sodipodi-0.dtd"
   xmlns:inkscape="http://www.inkscape.org/namespaces/inkscape"
   version="1.1"
   viewBox="0 0 125 125"
   width="100pt"
   height="100pt"
   id="svg2"
   inkscape:version="0.92.5 (2060ec1f9f, 2020-04-08)"
   sodipodi:docname="kurohen.svg">
  <metadata
     id="metadata12">
    <rdf:RDF>
      <cc:Work
         rdf:about="">
        <dc:format>image/svg+xml</dc:format>
        <dc:type
           rdf:resource="http://purl.org/dc/dcmitype/StillImage" />
        <dc:title></dc:title>
      </cc:Work>
    </rdf:RDF>
  </metadata>
  <defs
     id="defs10" />
  <sodipodi:namedview
     pagecolor="#ffffff"
     bordercolor="#666666"
     borderopacity="1"
     objecttolerance="10"
     gridtolerance="10"
     guidetolerance="10"
     inkscape:pageopacity="0"
     inkscape:pageshadow="2"
     inkscape:window-width="2880"
     inkscape:window-height="1495"
     id="namedview8"
     showgrid="false"
     fit-margin-top="0"
     fit-margin-left="0"
     fit-margin-right="0"
     fit-margin-bottom="0"
     inkscape:zoom="5.6568543"
     inkscape:cx="104.65784"
     inkscape:cy="105.54184"
     inkscape:window-x="-13"
     inkscape:window-y="-13"
     inkscape:window-maximized="1"
     inkscape:current-layer="svg2"
     units="pt" />
  <path
     id="rect4133"
     transform="scale(0.93750004)"
     style="opacity:0.00100002;fill:#ffffff;fill-opacity:1;fill-rule:nonzero;stroke:none;stroke-width:0.43914869;stroke-linecap:square;stroke-miterlimit:4;stroke-dasharray:none;stroke-dashoffset:0;stroke-opacity:1"
     d="M -14.681641,82.396484 V 215.72852 H 118.65234 v -82.68555 c -0.49863,0.18377 -1.07284,0.38351 -1.75,0.61523 -6.11096,2.0912 -11.03839,2.7192 -17.457028,1.80274 -1.008516,-0.144 -1.945634,-0.36229 -2.849609,-0.6211 -0.96601,0.3022 -1.950291,0.55259 -2.955078,0.74219 -1.013466,-0.0498 -2.049297,0.0662 -3.041016,-0.14844 -1.533151,-0.33189 -3.472078,-1.55693 -4.539062,-2.71679 -0.448691,-0.0795 -0.858828,-0.15816 -1.386719,-0.23828 -0.263484,-0.04 -0.187486,-0.42022 -0.158203,-0.75196 -0.09312,-0.15296 -0.08632,-0.26134 -0.0039,-0.33789 -0.01257,-0.0898 -0.02276,-0.1797 -0.03516,-0.26953 -0.332808,-0.41517 -0.518419,-0.83822 -0.27539,-1.25195 0.0186,-0.0317 0.04326,-0.0589 0.0625,-0.0898 -0.02833,-0.14526 -0.04054,-0.28806 0.01172,-0.42187 0.05285,-0.13532 0.07628,0.0452 0.09375,0.27344 0.03143,-0.0471 0.06478,-0.0927 0.09766,-0.13868 -0.01956,-0.47216 -0.0081,-0.94288 0.04492,-1.4082 -0.183081,-0.22033 -0.364799,-0.42961 -0.554688,-0.70117 -0.368559,-0.52708 -0.734827,-1.07716 -0.93164,-1.68945 -0.429447,-1.33604 -0.414839,-2.51966 0.09375,-3.75 -0.214661,-0.72871 -0.286016,-1.51187 -0.185547,-2.24805 0.06612,-0.48449 0.764198,-0.96714 1.501953,-1.36914 -0.01037,-0.42286 -0.01807,-0.84512 0.0039,-1.26758 0.07984,-1.53278 0.27704,-2.77685 0.705078,-4.24414 0.06451,-0.22113 0.338801,-1.06403 0.650391,-1.81445 -0.637763,-0.51019 -1.198486,-1.09893 -1.511719,-1.82617 -0.05395,-0.12528 -0.05523,-0.25915 -0.03125,-0.39649 -0.971354,-0.0947 -1.926355,-0.24491 -2.744141,-0.7207 -0.355851,0.31513 -0.750719,0.59464 -1.216796,0.83008 -0.334447,0.16894 -0.696527,0.27615 -1.044922,0.41406 -0.409915,0.0787 -0.816865,0.18011 -1.230469,0.23633 -0.200521,0.0272 -0.405058,0.0136 -0.607422,0.0137 -0.852751,2e-4 -1.688489,-0.0891 -2.513672,-0.31445 -0.260922,-0.0922 -0.729419,-0.25772 -0.933593,-0.34376 -0.45238,-0.19049 -0.861217,-0.4453 -1.257813,-0.71679 -0.07732,-0.0223 -0.13265,-0.0369 -0.220703,-0.0625 -0.08392,-0.0243 -0.164144,-0.0606 -0.240234,-0.10352 -0.166461,-0.094 -0.327935,-0.19778 -0.490235,-0.29883 0.01748,0.02 0.01533,0.0167 0.0332,0.0371 -0.08808,-0.0595 -0.357987,-0.23032 -0.265625,-0.17773 0.07858,0.0448 0.15563,0.0928 0.232422,0.14062 -0.03349,-0.0382 -0.03239,-0.0338 -0.06445,-0.0703 -0.03753,-0.0238 -0.07574,-0.0465 -0.113281,-0.0703 -0.279138,-0.0346 -0.54653,-0.0943 -0.757813,-0.26953 -1.761704,-1.46139 -1.557699,-1.87026 -1.503906,-3.38867 0.01095,-0.0603 0.02033,-0.11944 0.03125,-0.17969 0.0019,-0.0148 0.0038,-0.0301 0.0059,-0.0449 0.0018,-0.0132 0.01178,-0.0503 0.0098,-0.0371 -0.0046,0.0277 -0.01063,0.0544 -0.01563,0.082 -0.0055,0.0431 -0.01021,0.0875 -0.01367,0.13086 -0.003,0.0374 -0.03694,0.12927 -0.0039,0.11133 0.566069,-0.3079 1.112077,-0.65971 1.65625,-1.01368 -0.06676,-0.38613 -0.09278,-0.77978 -0.113281,-1.20898 0.01117,-0.28598 -0.005,-0.57379 0.0332,-0.85742 0.06871,-0.51014 0.172609,-0.966752 0.328125,-1.384768 0.0032,-0.01134 0.0084,-0.02189 0.01172,-0.0332 0.0228,-0.05984 0.04699,-0.119554 0.07227,-0.177734 0.1035,-0.303908 0.241777,-0.58992 0.410156,-0.859375 -0.147295,-0.325384 -0.211039,-0.631453 -0.414062,-1.351562 -0.02303,-0.156785 -0.03859,-0.318319 -0.06055,-0.476563 -1.981671,0.618128 -3.975555,1.201116 -5.896484,1.998047 -0.527668,0.187457 -3.724878,1.401788 -4.148438,1.18164 -0.221406,-0.115077 -0.445544,-0.249497 -0.669922,-0.373046 -0.509009,0.222796 -1.044922,0.381904 -1.861328,0.322265 -0.819167,-0.05984 -1.569119,-0.486874 -2.353516,-0.730469 -1.00005,-0.792121 -1.985652,-1.414128 -2.148437,-2.99414 -0.132901,-1.28995 0.267565,-2.607235 0.720703,-3.822266 0.208394,-0.558777 0.754801,-0.930682 1.201172,-1.326172 0.605329,-0.536328 1.141617,-0.881525 1.705078,-1.1875 0.500675,-0.438614 1.236118,-0.998412 1.257813,-1.013672 0.324921,-0.22854 0.672165,-0.423869 1.023437,-0.609374 1.665962,-0.879788 1.49059,-0.742437 3.25586,-1.326172 0.07688,-0.0194 0.153548,-0.03935 0.230468,-0.05859 0.171376,-0.163432 0.376553,-0.351969 0.671875,-0.619141 0.237436,-0.214804 0.528223,-0.359331 0.800781,-0.527343 0.410891,-0.253285 0.83547,-0.483524 1.257813,-0.716797 0.01534,-0.0082 0.03162,-0.01746 0.04687,-0.02539 0.378054,-0.208172 0.754206,-0.419068 1.136719,-0.619141 0.02791,-0.07765 0.04821,-0.157528 0.08398,-0.232421 0.357904,-0.749224 0.667419,-1.181003 1.029297,-1.533204 H 57.302734 c -0.368408,0.330441 -0.757638,0.632012 -1.240234,0.902344 -0.349107,0.195557 -0.737102,0.312467 -1.105469,0.46875 -0.782505,0.07123 -1.424407,0.247997 -2.130859,-0.183594 -0.08283,0.031 -0.165528,0.07015 -0.248047,0.09961 -0.459094,0.163904 -0.936463,0.275132 -1.404297,0.412109 -0.430575,0.06612 -1.900409,0.316941 -2.210937,0.230469 -0.747097,-0.208044 -1.494855,-0.530488 -2.082032,-1.03711 -0.262017,-0.226068 -0.401997,-0.554705 -0.519531,-0.892578 H 5.0527344 c -1.3098855,1.621903 -2.7998641,2.676814 -6.3808594,0.875 -0.303862,-0.152891 -0.5793033,-0.469682 -0.8144531,-0.875 z m 99.19336,48.992186 c 0.0026,0.0183 0.0053,0.0364 0.0078,0.0547 0.01139,0.0812 0.0051,0.18107 -0.0039,0.2832 0.04253,0.0699 0.09492,0.14386 0.179687,0.23242 0.09294,-0.15158 0.02409,-0.0264 -0.0293,-0.45703 -0.0076,-0.0612 -0.01515,-0.12244 -0.02344,-0.18359 -9.05e-4,-9.9e-4 -0.003,-6.6e-4 -0.0039,-0.002 -0.05246,0.0198 -0.09586,0.0434 -0.126953,0.0723 z M 63.441406,98.414062 c -0.06378,0.01352 -0.130578,0.02785 -0.195312,0.04102 0.0573,0.0914 0.2053,0.03954 0.292968,0 0.0047,-0.0078 0.009,-0.01563 0.01367,-0.02344 -0.02582,0.0027 -0.04586,0.0073 -0.07227,0.0098 -0.01601,0.0015 -0.02578,-0.01826 -0.03906,-0.02734 z m 0.08984,0.05469 c 0.04852,-0.0247 0.0753,-0.04839 -0.146484,0.113281 0.03532,0.02999 0.04998,0.03717 0.05469,0.04492 0.02726,-0.05298 0.05993,-0.10557 0.0918,-0.158203 z m 20.255859,3.44531 c -0.0014,0.0132 -0.0064,0.0258 -0.0078,0.0391 0.0085,-0.004 0.01688,-0.008 0.02539,-0.0117 -0.0051,-0.009 -0.01249,-0.0179 -0.01758,-0.0273 z m -13.455078,4.27539 c -0.08913,-0.0105 0.708673,1.00926 0.84375,1.09375 0.1071,0.067 0.222694,0.11791 0.339844,0.16602 -0.730143,-0.82348 -1.137618,-1.25433 -1.183594,-1.25977 z m 0.158203,0.69336 c 0.321139,0.31634 0.516579,0.43218 0.955078,0.60352 -0.318245,-0.2015 -0.636811,-0.40205 -0.955078,-0.60352 z m 1.357422,0.86133 c -0.0114,-0.003 0.04113,0.0219 0.03125,0.0156 -0.0064,-0.004 -0.01313,-0.008 -0.01953,-0.0117 -0.0028,-6.7e-4 -0.009,-0.003 -0.01172,-0.004 z" />
  <path
     id="flowRoot353"
     transform="scale(0.93750004)"
     style="font-style:normal;font-weight:normal;font-size:40px;line-height:1.25;font-family:sans-serif;letter-spacing:0px;word-spacing:0px;fill:#000000;fill-opacity:1;stroke:none;stroke-width:3.44230604"
     d="M 49.955078,7.5976562 45.685547,12.140625 H 15.806641 L 7.8203125,8.4238281 V 61.708984 h 1.2402344 c 3.1669211,0 6.0585941,-1.790054 6.0585941,-2.478515 V 54.550781 H 26.685547 V 68.318359 H 5.7558594 l 1.1015625,4.13086 H 26.685547 v 13.49414 C 16.220936,87.320282 7.5448053,88.422856 2.3125,88.835938 L 6.9941406,99.4375 c 1.2392302,-0.275384 2.4795096,-1.37699 3.1679684,-3.029297 21.47999,-5.232305 37.313732,-9.501047 48.742188,-12.667969 l -0.412109,-2.339843 c -8.123848,1.23923 -16.248213,2.339868 -23.683594,3.441406 V 72.449219 h 19.001953 c 1.927691,0 3.166022,-0.688511 3.441406,-2.203125 -3.579998,-3.442306 -9.363281,-8.123047 -9.363281,-8.123047 l -5.09375,6.195312 H 34.808594 V 54.550781 h 12.117187 v 5.09375 h 1.101563 c 2.340768,0 6.196292,-1.927753 6.333984,-2.753906 V 39.689453 c 5.57e-4,-0.0032 2.13e-4,-0.0047 0,-0.0078 -6.5e-5,-6.49e-4 4.7e-5,-0.0013 0,-0.002 v -0.02148 -22.423828 c 2.340768,-0.413077 4.406269,-1.51369 5.232422,-2.339844 z m 32.121094,1.828125 c 0.01341,0.032012 0.02774,0.063638 0.04102,0.095703 0.07129,-0.011611 0.143505,-0.016176 0.214843,-0.027344 z M 15.119141,16.132812 h 12.117187 v 34.28711 H 15.119141 Z m 19.138671,0 h 12.667969 v 7.574219 l -7.710937,-1.927734 c -0.275385,5.232305 -1.652375,16.110508 -3.029297,23.132812 l 1.927734,0.550782 c 2.891537,-6.333844 5.50687,-13.769636 7.021485,-18.451172 0.688461,0 1.240246,-0.137699 1.791015,-0.275391 V 50.419922 H 34.257812 Z m -15.421874,6.058594 -2.203126,0.550782 c 1.51462,5.369997 3.029285,13.90737 2.478516,20.378906 4.956921,5.50769 11.290758,-5.921233 -0.27539,-20.929688 z M 62.03125,91.15625 c 0.0088,0.06639 0.149336,0.605911 0.125,0.396484 -0.03739,-0.133547 -0.08048,-0.265002 -0.125,-0.396484 z m -16.345703,3.324219 -1.652344,0.964843 c 3.993075,4.681538 8.400409,12.529428 9.226563,18.587888 6.74692,5.64539 13.492694,-9.22581 -7.574219,-19.552731 z m -12.253906,2.203125 -1.789063,0.689453 c 3.166922,5.507693 6.470709,14.456203 6.746094,21.203123 6.609228,6.19615 13.906806,-8.26104 -4.957031,-21.892576 z m -10.740235,2.478515 -2.203125,0.550782 c 1.789999,6.196149 2.892554,15.697429 1.791016,23.132809 5.783074,7.02231 14.59441,-7.16052 0.412109,-23.683591 z m -11.291015,1.376951 c 0.137692,6.88461 -3.5791725,15.42195 -6.7460941,18.72656 -2.4784604,2.20313 -3.71773986,5.36919 -2.203125,7.57227 1.9276914,2.89154 6.6084486,1.65228 8.9492191,-1.10156 3.166921,-4.13077 5.094668,-13.35671 2.478515,-25.06055 z" />
</svg>
