<?xml version="1.0" encoding="UTF-8" standalone="no"?>
<svg
   xmlns:dc="http://purl.org/dc/elements/1.1/"
   xmlns:cc="http://creativecommons.org/ns#"
   xmlns:rdf="http://www.w3.org/1999/02/22-rdf-syntax-ns#"
   xmlns:svg="http://www.w3.org/2000/svg"
   xmlns="http://www.w3.org/2000/svg"
   xmlns:sodipodi="http://sodipodi.sourceforge.net/DTD/sodipodi-0.dtd"
   xmlns:inkscape="http://www.inkscape.org/namespaces/inkscape"
   version="1.1"
   viewBox="0 0 125 125"
   width="100pt"
   height="100pt"
   id="svg2"
   inkscape:version="0.92.5 (2060ec1f9f, 2020-04-08)"
   sodipodi:docname="kuroashi.svg">
  <metadata
     id="metadata12">
    <rdf:RDF>
      <cc:Work
         rdf:about="">
        <dc:format>image/svg+xml</dc:format>
        <dc:type
           rdf:resource="http://purl.org/dc/dcmitype/StillImage" />
        <dc:title></dc:title>
      </cc:Work>
    </rdf:RDF>
  </metadata>
  <defs
     id="defs10" />
  <sodipodi:namedview
     pagecolor="#ffffff"
     bordercolor="#666666"
     borderopacity="1"
     objecttolerance="10"
     gridtolerance="10"
     guidetolerance="10"
     inkscape:pageopacity="0"
     inkscape:pageshadow="2"
     inkscape:window-width="2880"
     inkscape:window-height="1495"
     id="namedview8"
     showgrid="false"
     fit-margin-top="0"
     fit-margin-left="0"
     fit-margin-right="0"
     fit-margin-bottom="0"
     inkscape:zoom="5.6568543"
     inkscape:cx="36.615078"
     inkscape:cy="65.431665"
     inkscape:window-x="-13"
     inkscape:window-y="-13"
     inkscape:window-maximized="1"
     inkscape:current-layer="svg2"
     units="pt" />
  <path
     id="rect4133"
     transform="scale(0.93750004)"
     style="opacity:0.00100002;fill:#ffffff;fill-opacity:1;fill-rule:nonzero;stroke:none;stroke-width:0.43914869;stroke-linecap:square;stroke-miterlimit:4;stroke-dasharray:none;stroke-dashoffset:0;stroke-opacity:1"
     d="M -14.681641,82.396484 V 215.72852 H 118.65234 v -82.68555 c -0.49863,0.18377 -1.07284,0.38351 -1.75,0.61523 -6.11096,2.0912 -11.03839,2.7192 -17.457028,1.80274 -1.008516,-0.144 -1.945634,-0.36229 -2.849609,-0.6211 -0.96601,0.3022 -1.950291,0.55259 -2.955078,0.74219 -1.013466,-0.0498 -2.049297,0.0662 -3.041016,-0.14844 -1.533151,-0.33189 -3.472078,-1.55693 -4.539062,-2.71679 -0.448691,-0.0795 -0.858828,-0.15816 -1.386719,-0.23828 -0.263484,-0.04 -0.187486,-0.42022 -0.158203,-0.75196 -0.09312,-0.15296 -0.08631,-0.26134 -0.0039,-0.33789 -0.01257,-0.0898 -0.02276,-0.1797 -0.03516,-0.26953 -0.332808,-0.41517 -0.518419,-0.83822 -0.27539,-1.25195 0.0186,-0.0317 0.04326,-0.0589 0.0625,-0.0898 -0.02833,-0.14526 -0.04054,-0.28806 0.01172,-0.42187 0.05285,-0.13532 0.07628,0.0452 0.09375,0.27344 0.03143,-0.0471 0.06478,-0.0927 0.09766,-0.13868 -0.01956,-0.47216 -0.0081,-0.94288 0.04492,-1.4082 -0.183081,-0.22033 -0.364799,-0.42961 -0.554688,-0.70117 -0.368559,-0.52708 -0.734827,-1.07716 -0.93164,-1.68945 -0.429447,-1.33604 -0.414839,-2.51966 0.09375,-3.75 -0.214661,-0.72871 -0.286016,-1.51187 -0.185547,-2.24805 0.06612,-0.48449 0.764198,-0.96714 1.501953,-1.36914 -0.01037,-0.42286 -0.01808,-0.84512 0.0039,-1.26758 0.07984,-1.53278 0.27704,-2.77685 0.705078,-4.24414 0.06451,-0.22113 0.338801,-1.06403 0.650391,-1.81445 -0.637763,-0.51019 -1.198486,-1.09893 -1.511719,-1.82617 -0.05395,-0.12527 -0.05523,-0.25915 -0.03125,-0.39649 -0.971354,-0.0947 -1.926356,-0.24491 -2.744141,-0.7207 -0.355851,0.31513 -0.750719,0.59464 -1.216796,0.83008 -0.334447,0.16894 -0.696527,0.27615 -1.044922,0.41406 -0.409915,0.0787 -0.816865,0.18011 -1.230469,0.23633 -0.200521,0.0272 -0.405058,0.0136 -0.607422,0.0137 -0.852751,2e-4 -1.688489,-0.0891 -2.513672,-0.31445 -0.260922,-0.0922 -0.729419,-0.25773 -0.933593,-0.34376 -0.452379,-0.19049 -0.861217,-0.4453 -1.257813,-0.71679 -0.07732,-0.0223 -0.13265,-0.0369 -0.220703,-0.0625 -0.08392,-0.0243 -0.164144,-0.0606 -0.240234,-0.10352 -0.16646,-0.094 -0.327935,-0.19778 -0.490235,-0.29883 0.01748,0.02 0.01533,0.0167 0.0332,0.0371 -0.08808,-0.0595 -0.357987,-0.23032 -0.265625,-0.17773 0.07858,0.0448 0.15563,0.0928 0.232422,0.14062 -0.03349,-0.0382 -0.03239,-0.0338 -0.06445,-0.0703 -0.03753,-0.0238 -0.07574,-0.0465 -0.113281,-0.0703 -0.279138,-0.0346 -0.54653,-0.0943 -0.757813,-0.26953 -1.761704,-1.46139 -1.557699,-1.87026 -1.503906,-3.38867 0.01095,-0.0603 0.02033,-0.11944 0.03125,-0.17969 0.0019,-0.0148 0.0038,-0.0301 0.0059,-0.0449 0.0018,-0.0132 0.01181,-0.0503 0.0098,-0.0371 -0.0046,0.0277 -0.01063,0.0544 -0.01563,0.082 -0.0055,0.0431 -0.01021,0.0875 -0.01367,0.13086 -0.003,0.0374 -0.03693,0.12927 -0.0039,0.11133 0.566069,-0.3079 1.112077,-0.65971 1.65625,-1.01368 -0.06676,-0.38613 -0.09278,-0.77978 -0.113281,-1.20898 0.01117,-0.28598 -0.005,-0.57379 0.0332,-0.85742 0.06871,-0.51014 0.172609,-0.966753 0.328125,-1.384768 0.0032,-0.01134 0.0084,-0.02189 0.01172,-0.0332 0.0228,-0.05984 0.04699,-0.119554 0.07227,-0.177734 0.1035,-0.303908 0.241777,-0.58992 0.410156,-0.859375 -0.147295,-0.325384 -0.211039,-0.631453 -0.414062,-1.351562 -0.156893,-1.068001 -0.299325,-2.173814 -0.285156,-3.263672 -0.221773,-0.0971 -0.445182,-0.189085 -0.66211,-0.296875 -0.799575,-0.397305 -2.083023,-0.722173 -2.138672,-1.613282 -0.32482,-5.201389 0.911042,-5.52915 3.683594,-6.353515 0.01152,-0.09258 0.0204,-0.183925 0.03711,-0.279297 -0.0053,-0.03192 -0.01076,-0.0637 -0.01562,-0.0957 -0.129763,-0.113248 -0.2576,-0.227695 -0.390626,-0.335938 C 71.354079,84.601387 71.15071,84.367369 70.957031,84.126953 70.662783,83.840114 70.392068,83.529669 70.148438,83.199219 69.961749,82.946004 69.804544,82.67199 69.650391,82.396484 H 57.302734 c -0.368408,0.330441 -0.757638,0.632012 -1.240234,0.902344 -0.349107,0.195557 -0.737102,0.312467 -1.105469,0.46875 -0.782505,0.07123 -1.424407,0.247997 -2.130859,-0.183594 -0.08283,0.031 -0.165528,0.07015 -0.248047,0.09961 -0.459094,0.163904 -0.936463,0.275132 -1.404297,0.412109 -0.430575,0.06612 -1.900409,0.316941 -2.210937,0.230469 -0.747097,-0.208044 -1.494855,-0.530489 -2.082032,-1.03711 -0.262017,-0.226068 -0.401997,-0.554705 -0.519531,-0.892578 H 5.0527344 c -1.3098855,1.621903 -2.7998641,2.676814 -6.3808594,0.875 -0.303862,-0.152891 -0.5793033,-0.469682 -0.8144531,-0.875 z m 99.19336,48.992186 c 0.0026,0.0183 0.0053,0.0364 0.0078,0.0547 0.01139,0.0812 0.0051,0.18107 -0.0039,0.2832 0.04253,0.0699 0.09492,0.14386 0.179687,0.23242 0.09294,-0.15158 0.02409,-0.0264 -0.0293,-0.45703 -0.0076,-0.0612 -0.01515,-0.12244 -0.02344,-0.18359 -9.05e-4,-9.9e-4 -0.003,-7.1e-4 -0.0039,-0.002 -0.05246,0.0198 -0.09586,0.0434 -0.126953,0.0723 z m -0.72461,-29.47461 c -0.0014,0.0132 -0.0064,0.0258 -0.0078,0.0391 0.0085,-0.004 0.01688,-0.008 0.02539,-0.0117 -0.0051,-0.009 -0.01249,-0.0179 -0.01758,-0.0273 z m -13.455078,4.27539 c -0.08913,-0.0105 0.708673,1.00926 0.84375,1.09375 0.1071,0.067 0.222694,0.11791 0.339844,0.16602 -0.730143,-0.82348 -1.137618,-1.25433 -1.183594,-1.25977 z m 0.158203,0.69336 c 0.321139,0.31634 0.516579,0.43218 0.955078,0.60352 -0.318245,-0.2015 -0.636811,-0.40205 -0.955078,-0.60352 z m 1.357422,0.86133 c -0.0114,-0.003 0.04113,0.0219 0.03125,0.0156 -0.0064,-0.004 -0.01313,-0.008 -0.01953,-0.0117 -0.0028,-6.7e-4 -0.009,-0.003 -0.01172,-0.004 z" />
  <path
     id="flowRoot200"
     transform="scale(0.93750004)"
     style="font-style:normal;font-weight:normal;font-size:40px;line-height:1.25;font-family:sans-serif;letter-spacing:0px;word-spacing:0px;fill:#000000;fill-opacity:1;stroke:none;stroke-width:3.50477076"
     d="m 106.86328,68.074219 -4.625,4.767578 H 30.599609 L 21.488281,68.634766 V 95.271484 H 22.75 c 3.36458,0 7.150391,-1.963108 7.150391,-2.664062 v -1.121094 h 31.96289 v 5.607422 h -45.5625 l 1.261719,4.06641 h 44.300781 v 6.16796 H 2.9824219 l 1.1210937,4.06446 H 24.992188 126.63086 c 1.96267,0 3.22548,-0.70009 3.50586,-2.24219 -3.92534,-3.50477 -9.95508,-7.71094 -9.95508,-7.71094 l -5.18555,5.88867 H 70.554688 v -6.16796 h 44.019532 c 1.96267,0 3.22548,-0.70205 3.50586,-2.244144 -2.52344,-2.102863 -5.88933,-4.484811 -7.99219,-5.886719 0.98134,-0.420573 1.82227,-0.981771 1.82227,-1.402344 V 78.167969 c 2.38324,-0.420573 4.34635,-1.541668 5.1875,-2.382813 z M 24.992188,111.39258 c -1.682294,5.60763 -9.532992,9.11241 -15.1406255,10.09375 -2.8038166,1.12152 -4.9051639,3.22548 -3.9238281,6.02929 0.9813358,2.94405 5.6065576,3.36372 9.1113276,2.24219 5.888019,-1.96267 13.178602,-7.5701 12.197266,-18.22461 z m 1.402343,-40.976564 v 0.0059 c 0.02253,0.0053 0.09505,0.04304 0.08594,0.0293 -0.02876,-0.0113 -0.05715,-0.02377 -0.08594,-0.03516 z m 34.0625,1.130859 c 6e-5,6.65e-4 -6e-5,0.0013 0,0.002 0.01498,1.77e-4 0.02994,0.0016 0.04492,0.002 -5e-5,-0.0014 5e-5,-0.0025 0,-0.0039 -0.01518,-6e-6 -0.02961,-2.5e-5 -0.04492,0 z m -30.55664,5.5 h 7.429687 l -0.421875,0.279297 c 2.663626,2.243053 5.609159,6.448788 6.169922,10.09375 H 29.900391 Z m 11.77539,0 h 20.1875 V 87.419922 H 48.404297 c 2.383244,-2.243053 1.823125,-7.56923 -6.728516,-10.373047 z m 28.878907,0 h 17.103515 c -1.542099,3.36458 -3.364585,7.288849 -5.046875,10.373047 h -12.05664 z m 25.515624,0 H 103.5 V 87.419922 H 87.517578 c 2.523435,-2.102863 5.04666,-4.485462 6.869141,-6.728516 2.803816,0.140191 4.627171,-0.981338 5.328125,-2.523437 z M 70.554688,91.486328 H 103.5 v 2.94336 h 1.26172 0.83984 l -2.52344,2.664062 H 70.554688 Z m 30.562502,20.748052 -0.5625,1.54296 c 7.14973,3.50477 14.15951,10.09398 17.10351,14.58008 6.1684,5.88802 11.35568,-2.10287 5.74805,-7.57031 -4.6263,-4.48611 -12.6159,-7.43121 -22.28906,-8.55273 z m -56.638674,0.70117 -1.681641,0.84179 c 3.084198,3.78516 6.307943,9.95227 6.728516,14.71875 7.430114,6.1684 15.420986,-8.13043 -5.046875,-15.56054 z m 28.320312,0.14062 -1.261719,0.98047 c 3.925344,3.64496 8.691408,9.81402 9.953125,14.7207 8.131069,5.32726 14.440081,-10.6543 -8.691406,-15.70117 z" />
</svg>
