<?xml version="1.0" encoding="UTF-8" standalone="no"?>
<svg
   xmlns:dc="http://purl.org/dc/elements/1.1/"
   xmlns:cc="http://creativecommons.org/ns#"
   xmlns:rdf="http://www.w3.org/1999/02/22-rdf-syntax-ns#"
   xmlns:svg="http://www.w3.org/2000/svg"
   xmlns="http://www.w3.org/2000/svg"
   xmlns:sodipodi="http://sodipodi.sourceforge.net/DTD/sodipodi-0.dtd"
   xmlns:inkscape="http://www.inkscape.org/namespaces/inkscape"
   version="1.1"
   viewBox="0 0 125 125"
   width="100pt"
   height="100pt"
   id="svg2"
   inkscape:version="0.92.5 (2060ec1f9f, 2020-04-08)"
   sodipodi:docname="muginyou.svg">
  <metadata
     id="metadata12">
    <rdf:RDF>
      <cc:Work
         rdf:about="">
        <dc:format>image/svg+xml</dc:format>
        <dc:type
           rdf:resource="http://purl.org/dc/dcmitype/StillImage" />
        <dc:title></dc:title>
      </cc:Work>
    </rdf:RDF>
  </metadata>
  <defs
     id="defs10" />
  <sodipodi:namedview
     pagecolor="#ffffff"
     bordercolor="#666666"
     borderopacity="1"
     objecttolerance="10"
     gridtolerance="10"
     guidetolerance="10"
     inkscape:pageopacity="0"
     inkscape:pageshadow="2"
     inkscape:window-width="2880"
     inkscape:window-height="1495"
     id="namedview8"
     showgrid="false"
     fit-margin-top="0"
     fit-margin-left="0"
     fit-margin-right="0"
     fit-margin-bottom="0"
     inkscape:zoom="8"
     inkscape:cx="22.612952"
     inkscape:cy="69.228434"
     inkscape:window-x="-13"
     inkscape:window-y="-13"
     inkscape:window-maximized="1"
     inkscape:current-layer="svg2"
     units="pt" />
  <path
     id="rect4133"
     transform="scale(0.93750004)"
     style="opacity:0.00100002;fill:#ffffff;fill-opacity:1;fill-rule:nonzero;stroke:none;stroke-width:0.43914869;stroke-linecap:square;stroke-miterlimit:4;stroke-dasharray:none;stroke-dashoffset:0;stroke-opacity:1"
     d="m -14.681641,82.396484 v 29.052736 c 1.513862,-0.72204 3.21599,-1.29808 4.027344,-1.54297 0.03578,-0.32934 0.08419,-0.65479 0.152344,-0.97266 0.259251,-1.20905 1.9603328,-1.23764 3.8320311,-1.07421 -0.5553634,-3.74139 4.2173395,-5.04607 6.4589844,-5.57813 1.6026294,-0.38039 3.2304561,-0.63552 4.8613281,-0.87695 -0.048106,-0.66772 0.045309,-1.38699 0.3203125,-2.250003 0.2834667,-0.889576 0.9150854,-1.657151 1.5800781,-2.3125 1.8519023,-1.825047 3.7745888,-2.180911 6.1718748,-3.039063 0.254087,-0.487732 0.535297,-0.954663 0.886719,-1.36914 -0.01095,-0.0585 -0.03225,-0.114874 -0.04102,-0.173828 -0.141608,-0.952605 -0.113188,-1.918543 0.05469,-2.861328 -0.711489,-1.557808 -0.891289,-3.129254 -0.714844,-5.19336 0.05603,-0.655477 0.458035,-1.238554 0.787109,-1.808594 H 5.0527344 c -1.3098855,1.621903 -2.7998641,2.676814 -6.3808594,0.875 -0.303862,-0.152891 -0.5793033,-0.469682 -0.8144531,-0.875 z M 6.0234375,104.66211 c -0.3011822,0.19813 -0.6182318,0.43426 -0.9511719,0.71289 0.4576567,-0.0707 0.9147337,-0.14472 1.3730469,-0.21094 -0.1481226,-0.16215 -0.2832008,-0.33306 -0.421875,-0.50195 z m -20.7050785,15.97266 v 95.09375 H 118.65234 v -70.87696 c -1.2305,-0.69702 -2.73787,-1.63171 -4.73632,-2.82422 -0.65008,-0.38791 -0.23779,-1.49896 -0.25196,-2.25586 -0.0188,-1.00332 0.0522,-2.0095 0.1543,-3.00781 0.0767,-0.74958 0.17655,-1.49611 0.2832,-2.24219 -4.89165,1.37262 -9.24731,1.71175 -14.656248,0.93946 -1.008516,-0.144 -1.945634,-0.36229 -2.849609,-0.6211 -0.662492,0.20725 -1.337179,0.37954 -2.017578,0.53516 2.578245,4.48423 0.671701,4.13551 -2.392578,4.14844 -0.454017,0.37234 -1.135383,0.22932 -1.84375,0.01 -5.711308,0.0322 -17.231445,0.0997 -20.578125,0.082 -4.880372,-0.0257 -9.761215,-0.0227 -14.638672,-0.19335 -2.17574,-0.0761 -4.348923,-0.20633 -6.517578,-0.38086 -1.55561,0.11514 -3.112914,0.21867 -4.671875,0.25781 -4.36631,0.10962 -10.388189,-0.19215 -14.814453,-0.57031 -1.658797,-0.14172 -8.201837,-0.87138 -10.195313,-1.28907 -1.058474,-0.22178 -2.071742,-0.62227 -3.107422,-0.93359 -0.03064,-0.0148 -1.8989,-0.94569 -2.132812,-0.97852 -2.343673,-0.3288 -6.7088365,0.6364 -7.919922,-2.375 -0.4498988,-1.11868 -0.5444247,-2.01815 -0.3964844,-2.75195 -0.7516908,-0.0414 -1.0002511,-0.067 -1.9902344,-0.11523 -13.2225613,-0.64463 0.082287,0.14769 -10.6992187,-0.10157 -1.4057051,-0.0325 -2.8075515,-0.17469 -4.2109375,-0.26171 -0.494141,-2.40391 -1.973053,-4.80632 -1.482422,-7.21094 0.218304,-1.06991 2.063477,-0.75869 3.1425782,-0.92578 0.4428017,-0.0686 0.8877743,-0.12465 1.3320313,-0.1836 -0.6005651,-0.0723 -1.1757958,-0.13835 -1.9374995,-0.25195 -0.553858,-0.0827 -1.088268,-0.26653 -1.634766,-0.38867 -0.272108,-0.0608 -0.544005,-0.1228 -0.820313,-0.16016 -0.578808,-0.0783 -1.216403,0.0522 -1.75,-0.16601 z" />
  <path
     id="flowRoot1108"
     transform="scale(0.93750004)"
     style="font-style:normal;font-weight:normal;font-size:40px;line-height:1.25;font-family:sans-serif;letter-spacing:0px;word-spacing:0px;fill:#000000;fill-opacity:1;stroke:none;stroke-width:3.50199485"
     d="M 28.273438,1.7089844 V 17.677734 H 5.0195312 l 1.1210938,4.0625 H 28.273438 V 33.787109 H 7.2617188 l 1.1191406,4.0625 H 28.273438 V 51.017578 H 2.9179688 l 0.9804687,4.0625 H 25.332031 C 21.129638,70.348775 12.164187,88.418707 1.6582031,98.644531 l 1.8203125,1.541019 C 10.342425,95.282712 16.506501,88.418369 21.689453,80.994141 c 2.801596,8.825026 5.883316,15.968253 9.525391,21.851559 -7.424229,10.08575 -17.23071,18.77118 -29.8378909,25.21485 l 1.2617188,2.10156 C 16.506571,124.699 27.152716,117.27425 35.277344,108.44922 c 12.327021,14.70838 29.976637,18.21094 56.591797,18.21094 h 34.740239 c 0.28015,-3.36192 2.24073,-6.16289 5.88281,-6.86328 v -1.9629 c -10.08575,0.28016 -30.67661,0.28125 -39.921878,0.28125 -24.654043,0 -41.604073,-2.38205 -53.791015,-13.72851 7.424229,-9.105202 12.60738,-19.61001 16.109375,-30.816408 3.081755,-0.280159 4.622943,-0.701627 5.603516,-1.822265 l -9.806641,-8.824219 -5.603516,5.322266 H 29.533203 c 1.540878,-3.081756 2.941862,-6.023168 4.0625,-8.964844 3.501995,0.14008 4.482105,-0.420046 4.902344,-1.960938 L 27.572266,55.080078 h 33.90039 c 1.797284,0 3.046072,-0.686364 3.482422,-2.185547 -5.15e-4,-0.0019 -1.2e-5,-0.004 0,-0.0059 4.5e-5,-0.0069 0.0025,-0.01317 0.0039,-0.02148 0.0025,-0.0033 0.0031,-0.002 0.0039,-0.002 2.3e-5,-0.0051 -0.0043,-0.0096 -0.0039,-0.01563 0.002,-0.0065 2.67e-4,-0.013 0,-0.01953 -7.6e-5,-0.0034 0.0015,-0.0034 0.002,-0.0059 C 61.03653,48.763613 54.1875,43.453125 54.1875,43.453125 l -5.882812,7.564453 H 36.957031 V 37.849609 h 21.433594 c 1.961117,0 3.081169,-0.701309 3.361328,-2.242187 -3.642074,-3.642075 -9.666018,-8.404297 -9.666015,-8.404297 l -5.181641,6.583984 H 36.957031 V 21.740234 h 22.833985 c 1.680957,0 3.081168,-0.700764 3.361328,-2.101562 -3.922234,-4.062314 -10.50586,-9.244141 -10.50586,-9.244141 l -5.603515,7.283203 H 36.957031 V 7.171875 C 40.318946,6.6115558 41.71984,5.2111171 42,3.25 Z M 62.097656,15.359375 c 0.09572,0.04979 0.09613,0.05279 0.142578,0.07813 h 0.08008 c -0.07209,-0.0248 -0.131915,-0.04486 -0.222656,-0.07813 z m -0.08398,0.0039 0.01758,0.07422 h 0.193359 l -0.208984,-0.07227 z m 2.978516,36.994141 c -2.7e-4,3.18e-4 -0.0037,0.0016 -0.0039,0.002 l 0.002,0.002 c 8.77e-4,-0.0011 0.0011,-0.0028 0.002,-0.0039 z m 5.091796,6.011719 c -3.45e-4,0.004 -0.0016,0.0077 -0.002,0.01172 0.0039,-6.23e-4 0.0078,-0.0013 0.01172,-0.002 3.85e-4,-0.002 0.0016,-0.0039 0.002,-0.0059 -0.0039,-0.0012 -0.0078,-0.0027 -0.01172,-0.0039 z m -42.93164,14.080078 h 18.349609 c -2.661516,9.525425 -6.442048,18.349981 -11.625,26.474609 -4.062314,-5.323032 -7.425512,-12.046384 -10.367187,-20.451172 1.260718,-1.961117 2.521939,-4.06232 3.642578,-6.023437 z" />
</svg>
