<?xml version="1.0" encoding="UTF-8" standalone="no"?>
<svg
   xmlns:dc="http://purl.org/dc/elements/1.1/"
   xmlns:cc="http://creativecommons.org/ns#"
   xmlns:rdf="http://www.w3.org/1999/02/22-rdf-syntax-ns#"
   xmlns:svg="http://www.w3.org/2000/svg"
   xmlns="http://www.w3.org/2000/svg"
   xmlns:sodipodi="http://sodipodi.sourceforge.net/DTD/sodipodi-0.dtd"
   xmlns:inkscape="http://www.inkscape.org/namespaces/inkscape"
   version="1.1"
   viewBox="0 0 125 125"
   width="100pt"
   height="100pt"
   id="svg2"
   inkscape:version="0.92.5 (2060ec1f9f, 2020-04-08)"
   sodipodi:docname="nezumi.svg">
  <metadata
     id="metadata12">
    <rdf:RDF>
      <cc:Work
         rdf:about="">
        <dc:format>image/svg+xml</dc:format>
        <dc:type
           rdf:resource="http://purl.org/dc/dcmitype/StillImage" />
        <dc:title></dc:title>
      </cc:Work>
    </rdf:RDF>
  </metadata>
  <defs
     id="defs10" />
  <sodipodi:namedview
     pagecolor="#ffffff"
     bordercolor="#666666"
     borderopacity="1"
     objecttolerance="10"
     gridtolerance="10"
     guidetolerance="10"
     inkscape:pageopacity="0"
     inkscape:pageshadow="2"
     inkscape:window-width="2880"
     inkscape:window-height="1495"
     id="namedview8"
     showgrid="false"
     fit-margin-top="0"
     fit-margin-left="0"
     fit-margin-right="0"
     fit-margin-bottom="0"
     inkscape:zoom="8"
     inkscape:cx="100.53353"
     inkscape:cy="73.559454"
     inkscape:window-x="-13"
     inkscape:window-y="-13"
     inkscape:window-maximized="1"
     inkscape:current-layer="svg2"
     units="pt" />
  <path
     id="rect4133"
     transform="scale(0.93750004)"
     style="opacity:0.00100002;fill:#ffffff;fill-opacity:1;fill-rule:nonzero;stroke:none;stroke-width:0.43914869;stroke-linecap:square;stroke-miterlimit:4;stroke-dasharray:none;stroke-dashoffset:0;stroke-opacity:1"
     d="M -14.681641,82.396484 V 215.72852 H 118.65234 v -96.46094 c -1.42906,0.49773 -2.83826,0.87 -4.89257,1.47851 -2.2998,0.19303 -1.79618,0.20783 -3.82422,0.19727 -0.48668,-0.002 -0.97899,0.0404 -1.46094,-0.0273 -0.12639,-0.0178 -0.25915,-0.0285 -0.38867,-0.041 0.54878,0.85488 1.07084,1.72581 1.51172,2.64844 -0.18521,1.2627 -0.10919,2.59387 -0.55664,3.78906 -0.40107,1.07125 -3.7558,3.31989 -4.2129,3.60742 -3.45232,2.17186 -7.160187,3.90215 -11.187495,4.66211 -1.013466,-0.0498 -2.049297,0.0662 -3.041016,-0.14844 -1.533151,-0.33189 -3.472078,-1.55693 -4.539062,-2.71679 -0.448691,-0.0795 -0.858828,-0.15816 -1.386719,-0.23828 -0.263484,-0.04 -0.187486,-0.42022 -0.158203,-0.75196 -0.09312,-0.15296 -0.08629,-0.26134 -0.0039,-0.33789 -0.01257,-0.0898 -0.02276,-0.1797 -0.03516,-0.26953 -0.332808,-0.41517 -0.518419,-0.83822 -0.27539,-1.25195 0.0186,-0.0317 0.04326,-0.0589 0.0625,-0.0898 -0.02833,-0.14526 -0.04054,-0.28806 0.01172,-0.42187 0.05285,-0.13532 0.07628,0.0452 0.09375,0.27344 0.03143,-0.0471 0.06478,-0.0927 0.09766,-0.13868 -0.04255,-1.02708 0.03783,-2.04769 0.453125,-3.01953 0.364095,-0.88656 0.770759,-1.74096 1.18164,-2.59375 -0.467107,-0.75945 -0.860362,-1.54346 -1.144531,-2.32226 -0.285234,-0.78172 -0.337396,-1.63041 -0.505859,-2.44531 -0.0041,-0.68468 -0.04732,-1.36902 -0.01172,-2.05274 0.07984,-1.53278 0.27704,-2.77685 0.705078,-4.24414 0.103681,-0.35541 0.740016,-2.35062 1.222657,-2.91211 -0.03995,-0.21739 -0.07874,-0.43542 -0.107422,-0.65625 -0.0898,-0.69132 -0.03105,-1.3929 -0.04687,-2.08984 0.05583,-0.69265 0.08069,-1.38868 0.166015,-2.07813 -0.187589,-0.21932 -0.357518,-0.43428 -0.482422,-0.63867 -0.146589,-0.23987 -0.270476,-0.46301 -0.386718,-0.68164 -0.100849,-0.0625 -0.200645,-0.12186 -0.302735,-0.19922 -0.66429,-0.50337 -1.102899,-1.05653 -1.419922,-1.64258 -0.08687,0.83461 -0.282124,1.65572 -0.644531,2.41602 -0.01195,-10e-4 -0.01325,-0.0185 -0.01758,-0.0312 -0.0084,0.0881 -0.01066,0.17849 -0.03906,0.26172 -0.02719,0.0797 0.007,-0.33783 0,-0.25391 -0.09403,1.12374 0.02857,0.242 -0.07813,0.95117 -0.06848,0.3509 -0.165987,0.86402 -0.267578,1.09961 -0.511242,1.18557 -1.310441,1.9521 -2.449218,2.52735 -0.334447,0.16894 -0.696527,0.27615 -1.044922,0.41406 -0.409915,0.0787 -0.816865,0.18011 -1.230469,0.23633 -0.200521,0.0272 -0.405058,0.0136 -0.607422,0.0137 -0.852751,2e-4 -1.688489,-0.0891 -2.513672,-0.31445 -0.260922,-0.0922 -0.729419,-0.25775 -0.933593,-0.34376 -0.452377,-0.19049 -0.861217,-0.4453 -1.257813,-0.71679 -0.07732,-0.0223 -0.13265,-0.0369 -0.220703,-0.0625 -0.08392,-0.0243 -0.164144,-0.0606 -0.240234,-0.10352 -0.166458,-0.094 -0.327935,-0.19778 -0.490235,-0.29883 0.01748,0.02 0.01533,0.0167 0.0332,0.0371 -0.08808,-0.0595 -0.357987,-0.23032 -0.265625,-0.17773 0.07858,0.0448 0.15563,0.0928 0.232422,0.14062 -0.03349,-0.0382 -0.03239,-0.0338 -0.06445,-0.0703 -0.03753,-0.0238 -0.07574,-0.0465 -0.113281,-0.0703 -0.279138,-0.0346 -0.54653,-0.0943 -0.757813,-0.26953 -1.761704,-1.46139 -1.557699,-1.87026 -1.503906,-3.38867 0.01095,-0.0603 0.02033,-0.11944 0.03125,-0.17969 0.0019,-0.0148 0.0038,-0.0301 0.0059,-0.0449 0.0018,-0.0132 0.01187,-0.0503 0.0098,-0.0371 -0.0046,0.0277 -0.01063,0.0544 -0.01563,0.082 -0.0055,0.0431 -0.01021,0.0875 -0.01367,0.13086 -0.003,0.0374 -0.03691,0.12927 -0.0039,0.11133 0.566069,-0.3079 1.112077,-0.65971 1.65625,-1.01368 -0.06676,-0.38613 -0.09278,-0.77978 -0.113281,-1.20898 0.01117,-0.28598 -0.005,-0.57379 0.0332,-0.85742 0.06871,-0.51014 0.172609,-0.966755 0.328125,-1.384768 0.0032,-0.01134 0.0084,-0.02189 0.01172,-0.0332 0.0228,-0.05984 0.047,-0.119554 0.07227,-0.177734 0.1035,-0.303908 0.241777,-0.58992 0.410156,-0.859375 -0.147295,-0.325384 -0.211039,-0.631453 -0.414062,-1.351562 -0.156893,-1.067999 -0.299325,-2.173814 -0.285156,-3.263672 -0.221773,-0.0971 -0.445182,-0.189085 -0.66211,-0.296875 -0.799575,-0.397305 -2.083023,-0.722173 -2.138672,-1.613282 -0.32482,-5.201389 0.911042,-5.52915 3.683594,-6.353515 0.01152,-0.09258 0.0204,-0.183925 0.03711,-0.279297 -0.0053,-0.03192 -0.01076,-0.0637 -0.01562,-0.0957 C 71.800107,85.070648 71.672086,84.955899 71.539062,84.847656 71.354079,84.601387 71.15071,84.367369 70.957031,84.126953 70.662783,83.840114 70.392068,83.529669 70.148438,83.199219 69.961751,82.946004 69.804544,82.67199 69.650391,82.396484 H 57.302734 c -0.368408,0.330441 -0.757638,0.632012 -1.240234,0.902344 -0.349107,0.195557 -0.737102,0.312467 -1.105469,0.46875 -0.782505,0.07123 -1.424407,0.247997 -2.130859,-0.183594 -0.08283,0.031 -0.165528,0.07015 -0.248047,0.09961 -0.459094,0.163904 -0.936463,0.275132 -1.404297,0.412109 -0.430575,0.06612 -1.900409,0.316941 -2.210937,0.230469 -0.747097,-0.208044 -1.494855,-0.530491 -2.082032,-1.03711 -0.262017,-0.226068 -0.401997,-0.554705 -0.519531,-0.892578 z m 99.19336,48.992186 c 0.0026,0.0183 0.0053,0.0364 0.0078,0.0547 0.01139,0.0812 0.0051,0.18107 -0.0039,0.2832 0.04253,0.0699 0.09492,0.14386 0.179687,0.23242 0.09294,-0.15158 0.02409,-0.0264 -0.0293,-0.45703 -0.0076,-0.0612 -0.01515,-0.12244 -0.02344,-0.18359 -9.05e-4,-9.9e-4 -0.003,-8.1e-4 -0.0039,-0.002 -0.05246,0.0198 -0.09586,0.0434 -0.126953,0.0723 z M 103.06836,99.949219 c -0.1457,0.0152 -0.29122,0.03356 -0.4375,0.03711 -0.25584,0.0062 -0.51176,-0.01048 -0.76758,-0.01953 -0.28627,0.09154 -0.44684,0.147633 -0.92969,0.304683 -0.5307,0.0907 -1.055718,0.22162 -1.591793,0.27149 -0.253836,0.0236 -0.512688,0.0364 -0.775391,0.0391 0.01234,0.2221 0.02278,0.44389 0.02734,0.66602 1.65628,-0.69572 2.93676,-0.97619 4.47461,-1.298831 z m -32.736329,6.240231 c -0.08913,-0.0105 0.708673,1.00926 0.84375,1.09375 0.1071,0.067 0.222694,0.11791 0.339844,0.16602 -0.730143,-0.82348 -1.137618,-1.25433 -1.183594,-1.25977 z m 0.158203,0.69336 c 0.321139,0.31634 0.516579,0.43218 0.955078,0.60352 -0.318245,-0.2015 -0.636811,-0.40205 -0.955078,-0.60352 z m 1.357422,0.86133 c -0.0114,-0.003 0.04113,0.0219 0.03125,0.0156 -0.0064,-0.004 -0.01313,-0.008 -0.01953,-0.0117 -0.0028,-6.7e-4 -0.009,-0.003 -0.01172,-0.004 z m 32.007814,5.78711 c -0.24743,0.002 -0.49501,0.004 -0.74219,0.004 0.0463,0.0545 0.0972,0.10487 0.14258,0.16015 0.16352,0.19932 0.26501,0.33944 0.40234,0.51367 0.002,-0.0102 7.3e-4,-0.0211 0.004,-0.0312 0.0525,-0.2187 0.12526,-0.43183 0.19336,-0.64648 z m -7.152345,3.19336 c -0.0059,0.20169 0.0013,0.43681 -0.0078,0.61914 -0.02279,0.45498 8.16e-4,0.92305 -0.05078,1.375 0.396145,0.34579 0.825297,0.66227 1.138672,1.08203 1.117355,1.49668 1.415416,2.89998 1.302735,4.69922 -0.02598,0.41471 -0.05659,0.83261 -0.146485,1.23828 -0.06034,0.2723 -0.1468,0.53684 -0.238281,0.80078 0.748505,-0.38286 1.527928,-0.83477 2.718748,-1.60742 0.24758,-0.16063 0.48529,-0.33652 0.72461,-0.50976 -0.0844,-0.1531 -0.16476,-0.30883 -0.25976,-0.45313 -0.41341,-0.6279 -0.83983,-1.24635 -1.2461,-1.87891 -1.207414,-1.87991 -1.531767,-2.6328 -2.917967,-4.28906 -0.316833,-0.37856 -0.669077,-0.72594 -1.017578,-1.07617 z m -2.150391,6.00586 c -0.03295,0.0206 -0.0625,0.0462 -0.0957,0.0664 0.06457,0.0331 0.09792,0.0159 0.0957,-0.0664 z" />
  <path
     id="flowRoot120"
     transform="scale(0.93750004)"
     style="font-style:normal;font-weight:normal;font-size:40px;line-height:1.25;font-family:sans-serif;letter-spacing:0px;word-spacing:0px;fill:#000000;fill-opacity:1;stroke:none;stroke-width:3.35923815"
     d="M 29.841797,4.3320312 C 27.691885,6.7506828 23.661945,10.378647 19.630859,13.603516 L 9.8222656,9.8417969 V 60.230469 h 1.0742184 c 4.568564,0 6.851959,-2.015653 6.986328,-2.6875 v -2.822266 h 36.683594 v 4.837891 h 1.208985 c 2.68739,0 6.719146,-1.881283 6.853515,-2.6875 V 18.845703 c 2.418652,-0.403108 4.434017,-1.479335 5.240235,-2.419922 L 57.791016,8.7675781 53.357422,13.603516 H 38.710938 l 1.208984,4.03125 H 54.566406 V 32.013672 H 40.189453 l 1.208985,3.896484 H 54.566406 V 50.824219 H 17.882812 V 35.910156 h 12.498047 c 1.881174,0 2.954314,-0.672326 3.357422,-2.15039 -2.956129,-2.95613 -7.658203,-7.121094 -7.658203,-7.121094 l -4.03125,5.507812 H 17.882812 V 18.441406 c 6.315369,-2.284282 12.900158,-5.508291 16.796876,-7.658203 1.746803,0.403109 2.956662,0.269108 3.49414,-0.537109 z M 11.03125,63.992188 v 52.136722 c -3.090499,0.94058 -5.6438212,1.61251 -7.390625,2.01562 l 5.375,9.13672 c 1.209326,-0.53748 2.015256,-1.4782 2.552734,-3.35937 7.390324,-4.29984 13.168502,-8.33135 16.66211,-10.75 l -0.671875,-2.01563 c -2.95613,0.94059 -6.047777,1.88168 -9.003906,2.82227 V 99.466797 h 8.0625 c 1.612434,0 2.688688,-0.672326 3.091796,-2.150391 -2.149912,-2.82176 -5.644531,-6.314453 -5.644531,-6.314453 l -3.224609,4.433594 H 18.554688 V 83.611328 h 8.0625 c 1.612434,0 2.688688,-0.672326 3.091796,-2.15039 -2.149912,-2.821761 -5.644531,-6.181641 -5.644531,-6.181641 l -3.224609,4.300781 h -2.285156 v -11.55664 c 2.55302,-0.40311 3.629698,-1.343805 3.898437,-2.6875 z m 41.921875,0 c 0.403109,41.520182 3.226066,60.198112 58.048825,61.810542 10.74956,0.40311 16.52658,-0.4025 16.92969,-4.43359 0.13437,-1.88117 -0.53767,-2.68716 -4.70312,-3.89648 l 0.53906,-14.24414 -1.61328,-0.13477 c -1.3437,5.10604 -3.0899,9.94347 -4.4336,12.63086 -0.94058,2.01554 -2.15137,2.28516 -7.12304,2.28516 -47.29808,-0.40311 -49.716008,-17.46732 -49.447269,-49.44727 2.553021,-0.537478 3.897276,-1.746941 4.166015,-3.359375 z m -20.826172,0.134765 v 53.345707 l -4.300781,0.80468 5.375,9.27149 c 1.209326,-0.53748 2.150022,-1.47741 2.6875,-3.08985 10.212084,-4.56856 17.738103,-8.59932 22.978516,-11.15234 l -0.404297,-2.15039 c -6.584107,1.7468 -13.167027,3.35903 -18.810547,4.56836 V 99.466797 h 9.673828 c 1.746804,0 2.821105,-0.672326 3.089844,-2.150391 -2.284282,-2.956129 -6.046875,-6.583984 -6.046875,-6.583984 l -3.359375,4.703125 H 39.652344 V 83.611328 h 9.136718 c 1.612436,0 2.686736,-0.672326 3.089844,-2.15039 -2.418651,-2.821761 -6.046875,-6.449219 -6.046875,-6.449219 l -3.224609,4.568359 H 39.652344 V 68.292969 c 2.553021,-0.537478 3.627349,-1.613336 3.761718,-2.957031 z" />
</svg>
