<?xml version="1.0" encoding="UTF-8" standalone="no"?>
<svg
   xmlns:dc="http://purl.org/dc/elements/1.1/"
   xmlns:cc="http://creativecommons.org/ns#"
   xmlns:rdf="http://www.w3.org/1999/02/22-rdf-syntax-ns#"
   xmlns:svg="http://www.w3.org/2000/svg"
   xmlns="http://www.w3.org/2000/svg"
   xmlns:sodipodi="http://sodipodi.sourceforge.net/DTD/sodipodi-0.dtd"
   xmlns:inkscape="http://www.inkscape.org/namespaces/inkscape"
   version="1.1"
   viewBox="0 0 125 125"
   width="100pt"
   height="100pt"
   id="svg2"
   inkscape:version="0.92.5 (2060ec1f9f, 2020-04-08)"
   sodipodi:docname="ninben.svg">
  <metadata
     id="metadata12">
    <rdf:RDF>
      <cc:Work
         rdf:about="">
        <dc:format>image/svg+xml</dc:format>
        <dc:type
           rdf:resource="http://purl.org/dc/dcmitype/StillImage" />
        <dc:title></dc:title>
      </cc:Work>
    </rdf:RDF>
  </metadata>
  <defs
     id="defs10" />
  <sodipodi:namedview
     pagecolor="#ffffff"
     bordercolor="#666666"
     borderopacity="1"
     objecttolerance="10"
     gridtolerance="10"
     guidetolerance="10"
     inkscape:pageopacity="0"
     inkscape:pageshadow="2"
     inkscape:window-width="2880"
     inkscape:window-height="1495"
     id="namedview8"
     showgrid="false"
     fit-margin-top="0"
     fit-margin-left="0"
     fit-margin-right="0"
     fit-margin-bottom="0"
     inkscape:zoom="3.337544"
     inkscape:cx="52.39549"
     inkscape:cy="54.543743"
     inkscape:window-x="-13"
     inkscape:window-y="-13"
     inkscape:window-maximized="1"
     inkscape:current-layer="svg2"
     units="pt" />
  <rect
     style="opacity:0.001;fill:#ffffff;fill-opacity:1;fill-rule:nonzero;stroke:none;stroke-width:0.41170192;stroke-linecap:square;stroke-miterlimit:4;stroke-dasharray:none;stroke-dashoffset:0;stroke-opacity:1"
     id="rect4133"
     width="125"
     height="125"
     x="0"
     y="0" />
  <path
     id="flowRoot16"
     style="font-style:normal;font-weight:normal;font-size:40px;line-height:1.25;font-family:sans-serif;letter-spacing:0px;word-spacing:0px;fill:#000000;fill-opacity:1;stroke:none;stroke-width:3.13308191"
     d="M 32.287818,3.732247 C 25.969143,28.419472 14.911186,52.978096 4.2180084,68.488397 l 1.7019,1.291758 C 11.266483,64.35154 16.369235,57.759743 21.108237,50.263105 v 71.735705 h 1.458958 c 3.159332,0 6.318009,-2.06905 6.439534,-2.8447 V 42.766348 c 2.187222,-0.387764 3.280985,-1.034157 3.645523,-2.197418 l -4.738825,-1.938853 c 4.617493,-8.789158 8.74902,-18.353099 12.151387,-28.305549 2.673289,0.258507 4.252755,-0.9055479 4.860322,-2.3273174 z m 23.508981,40.191141 c -0.0095,-0.0965 0.01458,0.861636 -0.01917,1.843831 0.03141,-0.204026 0.04693,-0.414206 0.0794,-0.665128 -0.04056,-0.784469 -0.05533,-1.127522 -0.06013,-1.178703 z m -5.590386,5.784034 c -0.163159,-0.0333 0.31924,0.09776 0.483508,0.125095 0.141512,0.02352 0.116062,0.01628 0.221304,0.03367 -0.234698,-0.05427 -0.468805,-0.110527 -0.704812,-0.15878 z m -3.034545,1.4818 c -0.126594,-0.01996 0.251567,0.04988 0.37887,0.06502 0.02441,0.0044 0.04884,0.0048 0.07338,0.0062 -0.150629,-0.02519 -0.302298,-0.04722 -0.452248,-0.07093 z M 46.51277,94.568854 c 0.0057,0.01106 0.0089,0.01623 0.0144,0.02765 h 0.133508 c -0.04923,-0.01 -0.09894,-0.01707 -0.147946,-0.02765 z"
     inkscape:connector-curvature="0" />
  <flowRoot
     xml:space="preserve"
     id="flowRoot24"
     style="fill:black;fill-opacity:1;stroke:none;font-family:sans-serif;font-style:normal;font-weight:normal;font-size:40px;line-height:1.25;letter-spacing:0px;word-spacing:0px"><flowRegion
       id="flowRegion26"><rect
         id="rect28"
         width="95.878883"
         height="109.36185"
         x="-197.7502"
         y="-8.6872663" /></flowRegion><flowPara
       id="flowPara30"></flowPara></flowRoot></svg>
