<?xml version="1.0" encoding="UTF-8" standalone="no"?>
<svg
   xmlns:dc="http://purl.org/dc/elements/1.1/"
   xmlns:cc="http://creativecommons.org/ns#"
   xmlns:rdf="http://www.w3.org/1999/02/22-rdf-syntax-ns#"
   xmlns:svg="http://www.w3.org/2000/svg"
   xmlns="http://www.w3.org/2000/svg"
   xmlns:sodipodi="http://sodipodi.sourceforge.net/DTD/sodipodi-0.dtd"
   xmlns:inkscape="http://www.inkscape.org/namespaces/inkscape"
   version="1.1"
   viewBox="0 0 125 125"
   width="100pt"
   height="100pt"
   id="svg2"
   inkscape:version="0.92.5 (2060ec1f9f, 2020-04-08)"
   sodipodi:docname="sei14.svg">
  <metadata
     id="metadata12">
    <rdf:RDF>
      <cc:Work
         rdf:about="">
        <dc:format>image/svg+xml</dc:format>
        <dc:type
           rdf:resource="http://purl.org/dc/dcmitype/StillImage" />
        <dc:title></dc:title>
      </cc:Work>
    </rdf:RDF>
  </metadata>
  <defs
     id="defs10" />
  <sodipodi:namedview
     pagecolor="#ffffff"
     bordercolor="#666666"
     borderopacity="1"
     objecttolerance="10"
     gridtolerance="10"
     guidetolerance="10"
     inkscape:pageopacity="0"
     inkscape:pageshadow="2"
     inkscape:window-width="2880"
     inkscape:window-height="1495"
     id="namedview8"
     showgrid="false"
     fit-margin-top="0"
     fit-margin-left="0"
     fit-margin-right="0"
     fit-margin-bottom="0"
     inkscape:zoom="3.337544"
     inkscape:cx="52.39549"
     inkscape:cy="54.543743"
     inkscape:window-x="-13"
     inkscape:window-y="-13"
     inkscape:window-maximized="1"
     inkscape:current-layer="svg2"
     units="pt" />
  <rect
     style="opacity:0.00100002;fill:#ffffff;fill-opacity:1;fill-rule:nonzero;stroke:none;stroke-width:0.41170192;stroke-linecap:square;stroke-miterlimit:4;stroke-dasharray:none;stroke-dashoffset:0;stroke-opacity:1"
     id="rect4133"
     width="125"
     height="125"
     x="-13.763864"
     y="77.246178" />
  <path
     id="flowRoot100"
     style="font-style:normal;font-weight:normal;font-size:40px;line-height:1.25;font-family:sans-serif;letter-spacing:0px;word-spacing:0px;fill:#000000;fill-opacity:1;stroke:none;stroke-width:3.1793704"
     d="M 57.796729,3.5417308 V 14.733226 H 5.1455451 l 1.1453575,3.688077 H 48.25838 l -0.763569,0.380526 c 2.670671,2.92502 5.468832,7.885469 5.97753,11.955066 1.780449,1.526098 3.687694,1.399272 4.959436,0.509048 v 20.728583 h 1.399885 c 2.797844,0 6.358057,-1.525234 6.358057,-2.415458 V 34.444972 c 2.289148,-0.5087 3.306375,-1.525582 3.433551,-2.924505 l -0.889571,-0.127262 c 3.306546,-2.543496 6.612982,-5.469055 9.029297,-8.139727 2.670676,0.127175 4.196392,-0.763271 4.959448,-2.162194 l -8.647522,-2.669981 h 43.366098 c 1.78046,0 2.92603,-0.636009 3.30756,-2.034933 -4.19678,-3.942419 -11.31876,-9.2838238 -11.31876,-9.2838238 l -5.97754,7.6306798 H 66.189719 V 8.2466439 C 68.987562,7.7379447 70.259672,6.5935376 70.386848,4.813091 Z M 50.038784,18.421303 h 21.237635 c -1.653269,3.942419 -4.196178,8.902046 -6.485326,12.590116 L 59.322616,30.502371 C 61.230237,27.8317 59.958444,22.109372 50.038784,18.421303 Z m 56.210746,0.507788 c -3.94242,2.289146 -10.682119,5.341532 -17.549564,7.630678 L 79.034361,24.01705 v 17.931339 c -3.179371,0.25435 -5.976323,0.509135 -7.883944,0.63631 l 5.0867,8.647515 c 1.27175,-0.381524 2.034103,-1.145231 2.669982,-2.798503 10.93703,-2.925021 18.949144,-5.468359 24.036141,-7.121631 3.30655,5.086992 7.63029,9.410832 12.59011,12.717377 1.0174,-3.433719 3.05243,-5.594835 5.85028,-6.103535 l 0.12726,-1.27262 c -8.90223,-3.560894 -17.29539,-10.173937 -21.49216,-18.313125 3.30654,-0.763048 6.35846,-1.525146 8.77478,-2.288195 2.5435,1.017398 4.57835,1.144573 5.59575,0 z M 44.061255,21.47307 39.991394,25.670195 H 7.9440482 l 1.1440995,3.81534 H 22.187314 C 20.27969,37.370373 15.701357,46.017833 3.7469286,52.758098 l 1.7804046,1.653145 C 22.060062,47.925328 27.27441,39.023646 29.690731,29.485535 h 11.318755 c -0.381524,6.86744 -1.017531,10.174009 -2.034933,11.064233 -0.635873,0.508699 -1.398403,0.762312 -2.924504,0.762312 -1.653275,0 -5.850839,-0.381873 -8.52151,-0.509049 v 2.034932 c 2.161973,0.381525 4.578436,1.017534 5.723007,2.034932 1.144577,1.017399 1.398622,3.052987 1.398622,4.833435 3.179369,0 6.23228,-0.763358 8.394252,-2.289456 3.433718,-2.289146 4.45074,-6.868042 4.959437,-17.423551 2.289148,-0.381524 3.815861,-0.762922 4.578908,-1.653146 z m 53.158963,7.376155 c 1.144574,3.815244 2.671207,7.248639 4.451652,10.555184 -5.214159,0.635875 -10.555974,1.271709 -15.388614,1.780409 V 30.629632 c 3.688066,-0.381524 7.376072,-1.017358 10.936962,-1.780407 z m -0.254515,20.348057 v 4.832175 H 29.563466 v -0.254524 c 3.052201,-0.381524 4.070042,-1.525756 4.324391,-3.179028 L 21.932791,49.324544 v 22.890773 c 0,15.642512 -2.162179,34.083443 -15.0068361,46.800923 l 1.6544045,1.65314 C 26.384833,108.33342 29.436292,88.620961 29.563466,72.342579 v -5.213953 h 67.402237 v 53.413494 h 1.527139 c 2.925018,0 6.358058,-1.90711 6.358058,-2.92451 V 53.267147 c 2.41633,-0.381525 3.43373,-1.272407 3.68809,-2.798504 z m -67.402237,8.647515 h 67.402237 v 5.595748 H 29.563466 Z m 50.107202,9.792875 -0.212945,0.239398 c 0.03239,-0.01003 0.06933,-0.02125 0.08946,-0.02768 0.106335,-0.03428 0.202259,-0.05304 0.301148,-0.07815 z m 4.798158,4.464249 c 0.0026,0.0043 0.006,0.0086 0.0088,0.0126 0.0087,0.0051 0.02356,0.01345 0.03274,0.01894 -0.01457,-0.0102 -0.02708,-0.02168 -0.04156,-0.03153 z M 54.80418,72.215317 c 0.0019,0.0132 0.0039,0.02845 0.0064,0.04156 0.114852,-0.01868 0.171107,-0.02751 0.257045,-0.04156 z m -2.77204,0.309966 c -0.03349,0.0069 -0.0618,0.01962 -0.09324,0.02896 0.0013,8.57e-4 0.0026,0.0026 0.0039,0.0034 0.09612,-0.0077 0.19283,-0.01277 0.288541,-0.02519 6.45e-4,-6.43e-4 0.0026,-5.06e-4 0.0039,-0.0017 0.02657,-0.0069 -0.135252,-0.0043 -0.202861,-0.006 z m 36.868175,2.065175 c 0.0034,0.03085 0.006,0.06264 0.0088,0.0945 0.01328,-0.01731 0.03299,-0.03565 0.04533,-0.05287 z m -41.658769,5.64867 c -0.01936,0.04225 -0.03329,0.06478 -0.05291,0.108358 0.0067,0.03128 0.01458,0.0617 0.02141,0.09324 0.01225,-0.0034 0.0198,-0.0026 0.03148,-0.0051 z m 3.451193,33.182622 c -0.01309,0.0195 -0.02445,0.0399 -0.03781,0.0592 0.042,-0.002 0.08443,6.5e-4 0.126006,-0.006 0.03793,-0.006 -0.034,-0.0313 -0.0882,-0.0529 z m 39.483979,0.47881 c 0.02742,0.099 0.06007,0.18151 0.08441,0.28728 0.01122,0.003 0.02279,0.004 0.03402,0.006 0.08389,0.0197 0.150433,0.0616 0.209167,0.1134 0.0069,-6.5e-4 0.01457,-3.9e-4 0.02142,-0.002 -0.108075,-0.13461 -0.2243,-0.27025 -0.349025,-0.40573 z"
     inkscape:connector-curvature="0" />
</svg>
