<?xml version="1.0" encoding="UTF-8" standalone="no"?>
<svg
   xmlns:dc="http://purl.org/dc/elements/1.1/"
   xmlns:cc="http://creativecommons.org/ns#"
   xmlns:rdf="http://www.w3.org/1999/02/22-rdf-syntax-ns#"
   xmlns:svg="http://www.w3.org/2000/svg"
   xmlns="http://www.w3.org/2000/svg"
   xmlns:sodipodi="http://sodipodi.sourceforge.net/DTD/sodipodi-0.dtd"
   xmlns:inkscape="http://www.inkscape.org/namespaces/inkscape"
   version="1.1"
   viewBox="0 0 125 125"
   width="100pt"
   height="100pt"
   id="svg2"
   inkscape:version="0.92.5 (2060ec1f9f, 2020-04-08)"
   sodipodi:docname="shikaashi.svg">
  <metadata
     id="metadata12">
    <rdf:RDF>
      <cc:Work
         rdf:about="">
        <dc:format>image/svg+xml</dc:format>
        <dc:type
           rdf:resource="http://purl.org/dc/dcmitype/StillImage" />
        <dc:title></dc:title>
      </cc:Work>
    </rdf:RDF>
  </metadata>
  <defs
     id="defs10" />
  <sodipodi:namedview
     pagecolor="#ffffff"
     bordercolor="#666666"
     borderopacity="1"
     objecttolerance="10"
     gridtolerance="10"
     guidetolerance="10"
     inkscape:pageopacity="0"
     inkscape:pageshadow="2"
     inkscape:window-width="2880"
     inkscape:window-height="1495"
     id="namedview8"
     showgrid="false"
     fit-margin-top="0"
     fit-margin-left="0"
     fit-margin-right="0"
     fit-margin-bottom="0"
     inkscape:zoom="5.6568543"
     inkscape:cx="0.35464417"
     inkscape:cy="83.546585"
     inkscape:window-x="-13"
     inkscape:window-y="-13"
     inkscape:window-maximized="1"
     inkscape:current-layer="svg2"
     units="pt" />
  <path
     id="rect4133"
     transform="scale(0.93750004)"
     style="opacity:0.00100002;fill:#ffffff;fill-opacity:1;fill-rule:nonzero;stroke:none;stroke-width:0.43914869;stroke-linecap:square;stroke-miterlimit:4;stroke-dasharray:none;stroke-dashoffset:0;stroke-opacity:1"
     d="m -14.681641,82.396484 v 29.052736 c 1.513862,-0.72204 3.21599,-1.29808 4.027344,-1.54297 0.03578,-0.32934 0.08419,-0.65479 0.152344,-0.97266 0.259251,-1.20905 1.9603328,-1.23764 3.8320311,-1.07421 -0.5553634,-3.74139 4.2173395,-5.04607 6.4589844,-5.57813 1.6026294,-0.38039 3.2304561,-0.63552 4.8613281,-0.87695 -0.048106,-0.66772 0.045309,-1.38699 0.3203125,-2.250003 0.2834667,-0.889576 0.9150854,-1.657151 1.5800781,-2.3125 1.8519023,-1.825047 3.7745888,-2.180911 6.1718748,-3.039063 0.254087,-0.487732 0.535297,-0.954663 0.886719,-1.36914 -0.01095,-0.0585 -0.03225,-0.114874 -0.04102,-0.173828 -0.141608,-0.952605 -0.113188,-1.918543 0.05469,-2.861328 -0.711489,-1.557808 -0.891289,-3.129254 -0.714844,-5.19336 0.05603,-0.655477 0.458035,-1.238554 0.787109,-1.808594 H 5.0527344 c -1.3098855,1.621903 -2.7998641,2.676814 -6.3808594,0.875 -0.303862,-0.152891 -0.5793033,-0.469682 -0.8144531,-0.875 z M 6.0234375,104.66211 c -0.3011822,0.19813 -0.6182318,0.43426 -0.9511719,0.71289 0.4576567,-0.0707 0.9147337,-0.14472 1.3730469,-0.21094 -0.1481226,-0.16215 -0.2832008,-0.33306 -0.421875,-0.50195 z m -20.7050785,15.97266 v 95.09375 H 118.65234 v -70.87696 c -1.2305,-0.69702 -2.73787,-1.63171 -4.73632,-2.82422 -0.65008,-0.38791 -0.23779,-1.49896 -0.25196,-2.25586 -0.0188,-1.00332 0.0522,-2.0095 0.1543,-3.00781 0.0767,-0.74958 0.17655,-1.49611 0.2832,-2.24219 -4.89165,1.37262 -9.24731,1.71175 -14.656248,0.93946 -1.008516,-0.144 -1.945634,-0.36229 -2.849609,-0.6211 -0.662492,0.20725 -1.337179,0.37954 -2.017578,0.53516 2.578245,4.48423 0.671701,4.13551 -2.392578,4.14844 -0.454017,0.37234 -1.135383,0.22932 -1.84375,0.01 -5.711308,0.0322 -17.231445,0.0997 -20.578125,0.082 -4.880372,-0.0257 -9.761215,-0.0227 -14.638672,-0.19335 -2.17574,-0.0761 -4.348923,-0.20633 -6.517578,-0.38086 -1.55561,0.11514 -3.112914,0.21867 -4.671875,0.25781 -4.36631,0.10962 -10.388189,-0.19215 -14.814453,-0.57031 -1.658797,-0.14172 -8.201837,-0.87138 -10.195313,-1.28907 -1.058474,-0.22178 -2.071742,-0.62227 -3.107422,-0.93359 -0.03064,-0.0148 -1.8989,-0.94569 -2.132812,-0.97852 -2.343673,-0.3288 -6.7088365,0.6364 -7.919922,-2.375 -0.4498988,-1.11868 -0.5444247,-2.01815 -0.3964844,-2.75195 -0.7516908,-0.0414 -1.0002511,-0.067 -1.9902344,-0.11523 -13.2225613,-0.64463 0.082287,0.14769 -10.6992187,-0.10157 -1.4057051,-0.0325 -2.8075515,-0.17469 -4.2109375,-0.26171 -0.494141,-2.40391 -1.973053,-4.80632 -1.482422,-7.21094 0.218304,-1.06991 2.063477,-0.75869 3.1425782,-0.92578 0.4428017,-0.0686 0.8877743,-0.12465 1.3320313,-0.1836 -0.6005651,-0.0723 -1.1757958,-0.13835 -1.9374995,-0.25195 -0.553858,-0.0827 -1.088268,-0.26653 -1.634766,-0.38867 -0.272108,-0.0608 -0.544005,-0.1228 -0.820313,-0.16016 -0.578808,-0.0783 -1.216403,0.0522 -1.75,-0.16601 z" />
  <path
     id="flowRoot925"
     transform="scale(0.93750004)"
     style="font-style:normal;font-weight:normal;font-size:40px;line-height:1.25;font-family:sans-serif;letter-spacing:0px;word-spacing:0px;fill:#000000;fill-opacity:1;stroke:none;stroke-width:3.4879415"
     d="m 113.07422,9.9316406 c -0.01,0.00571 -0.0178,0.013675 -0.0273,0.019531 0.008,0.00453 0.0156,0.00913 0.0234,0.013672 0.002,-0.010973 0.002,-0.022236 0.004,-0.033203 z M 46.046875,25.955078 c -0.01399,0.006 -0.03541,0.0069 -0.03711,0.01758 -0.003,0.0186 -0.0048,0.03797 -0.0078,0.05664 0.01082,0.0043 0.02807,0.01121 0.03906,0.01563 0.0026,-0.03018 0.0029,-0.05969 0.0059,-0.08984 z M 63.298828,40.970703 V 53.666016 H 26.466797 L 15.734375,49.205078 c -0.0044,0.0092 -0.0074,0.01504 -0.01172,0.02344 v 27.738281 c 0,17.997778 -1.255649,37.249873 -13.5332029,52.736323 l 1.6738281,1.81446 C 18.652169,119.79809 23.117388,103.75313 24.373047,89.382812 h 83.013673 v 4.882813 h 1.39453 c 2.92987,0 7.39369,-2.091452 7.5332,-2.789063 V 73.617188 c 2.3718,-0.418575 4.32696,-1.535096 5.16407,-2.511719 L 110.875,63.154297 106.26953,68.316406 H 85.900391 V 57.712891 h 40.181639 c 1.95325,0 3.2084,-0.559056 3.62695,-2.09375 -3.89944,-3.620916 -9.60145,-8.211216 -11.14843,-9.337891 -0.005,-1.12e-4 -0.003,-0.0051 -0.008,-0.0059 -0.006,-8.64e-4 2e-4,-0.0028 -0.006,-0.0039 l -6.55665,7.394532 H 72.367188 v -8.230469 c 1.534694,-0.279035 2.82769,-1.090229 3.208984,-3.208985 z m 12.277344,1.255859 v 0.01953 c 0.0022,-0.0054 0.0018,-0.0034 0.002,-0.0039 -7.2e-5,-0.0013 -1.77e-4,-0.0026 0,-0.0039 8.67e-4,-0.004 0.0022,-0.0084 0.0039,-0.01172 v -0.002 c -0.0017,-6.87e-4 -0.0039,-0.0012 -0.0059,-0.002 z m 0.0039,1.125 c -0.0011,0.0017 -0.002,0.0026 -0.0039,0.0059 v 0.0078 c 0.0017,-0.0051 0.0046,-0.01228 0.0039,-0.01367 z m 0.0039,0.0059 c -0.0026,0.0031 -0.0052,0.0084 -0.0078,0.01172 v 0.0059 c 0.0027,-0.0058 0.0052,-0.01175 0.0078,-0.01758 z m 42.558596,2.410156 c -0.002,0.0022 -0.004,0.0037 -0.006,0.0059 0.001,-2.97e-4 0.003,2.65e-4 0.004,0 8.3e-4,-0.0019 0.002,-0.0038 0.002,-0.0059 z m 0.5957,0.197266 c 3.3e-4,0.0014 4e-4,0.0026 0.002,0.0039 0.004,5.69e-4 0.008,0.0032 0.0117,0.0039 v -0.002 c -0.005,-0.0017 -0.009,-0.0041 -0.0137,-0.0059 z m -0.69336,0.08594 c -0.001,0.0036 -0.004,0.0062 -0.006,0.0098 10e-4,2.4e-5 0.003,-2.8e-5 0.004,0 2.3e-4,-0.0034 0.002,-0.0063 0.002,-0.0098 z m 0.49414,0.216797 -0.002,0.002 v 0.002 c -0.001,7.87e-4 -0.003,0.0029 -0.004,0.0039 0.003,-0.0015 0.009,-0.0025 0.0117,-0.0039 -0.004,-0.0012 -0.004,-0.0025 -0.006,-0.0039 z m -0.81054,0.132813 c -7.5e-4,0.0012 -5.6e-4,0.0027 -0.002,0.0039 10e-4,0.0016 0.003,0.0039 0.006,0.0039 -7.9e-4,-0.0029 -0.003,-0.0051 -0.004,-0.0078 z m -92.937504,11.3125 H 46.974609 V 68.316406 H 24.791016 Z m 30.695312,0 H 77.390625 V 68.316406 H 55.486328 Z M 24.791016,72.222656 h 22.183593 v 12.97461 H 24.652344 c 0.139517,-2.790354 0.138672,-5.579634 0.138672,-8.230469 z m 30.695312,0 h 21.904297 v 12.97461 H 55.486328 Z m 30.414063,0 h 21.486329 v 12.97461 H 85.900391 Z M 36.091797,90.917969 V 119.9375 c -6.417812,0.69759 -11.579572,1.1155 -15.207031,1.39453 l 5.582031,10.88281 c 1.255659,-0.27903 2.370771,-1.25463 3.068359,-3.06836 20.23006,-4.46456 34.879926,-8.37091 45.34375,-11.30078 l -0.279297,-2.23242 c -10.463824,1.25566 -20.648127,2.37103 -29.716797,3.34766 v -11.71875 h 25.949219 c 1.81373,0 3.069729,-0.69773 3.488281,-2.23242 -3.766976,-3.62746 -9.906228,-8.511723 -9.90625,-8.511723 l -5.300781,6.835933 H 44.882812 v -7.951168 c 2.790376,-0.55807 3.905405,-1.67429 4.044922,-3.208984 z m 43.251953,0.279297 v 29.578124 c 0,6.2783 1.81352,8.37109 12.277344,8.37109 h 14.091796 c 20.36958,0 24.41406,-1.25561 24.41406,-5.1621 0,-1.81395 -0.83575,-2.79096 -3.76562,-3.76758 l -0.41992,-11.58008 h -1.8125 c -1.11615,5.16215 -2.51144,9.9056 -3.48829,11.30078 -0.55807,1.11614 -1.25605,1.25501 -2.51171,1.39453 -1.67422,0.13952 -6.41734,0.14063 -11.99805,0.14063 H 93.294922 c -4.604083,0 -5.162108,-0.4187 -5.16211,-2.23243 v -8.23242 c 10.8824,-1.81373 23.578808,-5.3006 30.554688,-8.23047 2.79035,0.83711 3.90534,0.55755 5.02148,-0.55859 l -9.76562,-6.976562 C 108.22314,99.2882 97.480517,104.7297 88.132812,108.07812 V 95.800781 c 2.51134,-0.279035 3.907336,-1.534772 4.046876,-3.208984 z" />
</svg>
