<?xml version="1.0" encoding="UTF-8" standalone="no"?>
<svg
   xmlns:dc="http://purl.org/dc/elements/1.1/"
   xmlns:cc="http://creativecommons.org/ns#"
   xmlns:rdf="http://www.w3.org/1999/02/22-rdf-syntax-ns#"
   xmlns:svg="http://www.w3.org/2000/svg"
   xmlns="http://www.w3.org/2000/svg"
   xmlns:sodipodi="http://sodipodi.sourceforge.net/DTD/sodipodi-0.dtd"
   xmlns:inkscape="http://www.inkscape.org/namespaces/inkscape"
   version="1.1"
   viewBox="0 0 125 125"
   width="100pt"
   height="100pt"
   id="svg2"
   inkscape:version="0.92.5 (2060ec1f9f, 2020-04-08)"
   sodipodi:docname="shikakanmuri.svg">
  <metadata
     id="metadata12">
    <rdf:RDF>
      <cc:Work
         rdf:about="">
        <dc:format>image/svg+xml</dc:format>
        <dc:type
           rdf:resource="http://purl.org/dc/dcmitype/StillImage" />
        <dc:title></dc:title>
      </cc:Work>
    </rdf:RDF>
  </metadata>
  <defs
     id="defs10" />
  <sodipodi:namedview
     pagecolor="#ffffff"
     bordercolor="#666666"
     borderopacity="1"
     objecttolerance="10"
     gridtolerance="10"
     guidetolerance="10"
     inkscape:pageopacity="0"
     inkscape:pageshadow="2"
     inkscape:window-width="2880"
     inkscape:window-height="1495"
     id="namedview8"
     showgrid="false"
     fit-margin-top="0"
     fit-margin-left="0"
     fit-margin-right="0"
     fit-margin-bottom="0"
     inkscape:zoom="4"
     inkscape:cx="-65.820564"
     inkscape:cy="109.52567"
     inkscape:window-x="-13"
     inkscape:window-y="-13"
     inkscape:window-maximized="1"
     inkscape:current-layer="svg2"
     units="pt" />
  <path
     id="rect4133"
     transform="scale(0.93750004)"
     style="opacity:0.00100002;fill:#ffffff;fill-opacity:1;fill-rule:nonzero;stroke:none;stroke-width:0.43914869;stroke-linecap:square;stroke-miterlimit:4;stroke-dasharray:none;stroke-dashoffset:0;stroke-opacity:1"
     d="m -14.681641,82.396484 v 29.052736 c 1.513862,-0.72204 3.21599,-1.29808 4.027344,-1.54297 0.03578,-0.32934 0.08419,-0.65479 0.152344,-0.97266 0.259251,-1.20905 1.9603328,-1.23764 3.8320311,-1.07421 -0.5553634,-3.74139 4.2173395,-5.04607 6.4589844,-5.57813 1.6026294,-0.38039 3.2304561,-0.63552 4.8613281,-0.87695 -0.048106,-0.66772 0.045309,-1.38699 0.3203125,-2.250003 0.2834667,-0.889576 0.9150854,-1.657151 1.5800781,-2.3125 1.8519023,-1.825047 3.7745888,-2.180911 6.1718748,-3.039063 0.254087,-0.487732 0.535297,-0.954663 0.886719,-1.36914 -0.01095,-0.0585 -0.03225,-0.114874 -0.04102,-0.173828 -0.141608,-0.952605 -0.113188,-1.918543 0.05469,-2.861328 -0.711489,-1.557808 -0.891289,-3.129254 -0.714844,-5.19336 0.05603,-0.655477 0.458035,-1.238554 0.787109,-1.808594 H 5.0527344 c -1.3098855,1.621903 -2.7998641,2.676814 -6.3808594,0.875 -0.303862,-0.152891 -0.5793033,-0.469682 -0.8144531,-0.875 z M 6.0234375,104.66211 c -0.3011822,0.19813 -0.6182318,0.43426 -0.9511719,0.71289 0.4576567,-0.0707 0.9147337,-0.14472 1.3730469,-0.21094 -0.1481226,-0.16215 -0.2832008,-0.33306 -0.421875,-0.50195 z m -20.7050785,15.97266 v 95.09375 H 118.65234 v -70.87696 c -1.2305,-0.69702 -2.73787,-1.63171 -4.73632,-2.82422 -0.65008,-0.38791 -0.23779,-1.49896 -0.25196,-2.25586 -0.0188,-1.00332 0.0522,-2.0095 0.1543,-3.00781 0.0767,-0.74958 0.17655,-1.49611 0.2832,-2.24219 -4.89165,1.37262 -9.24731,1.71175 -14.656248,0.93946 -1.008516,-0.144 -1.945634,-0.36229 -2.849609,-0.6211 -0.662492,0.20725 -1.337179,0.37954 -2.017578,0.53516 2.578245,4.48423 0.671701,4.13551 -2.392578,4.14844 -0.454017,0.37234 -1.135383,0.22932 -1.84375,0.01 -5.711308,0.0322 -17.231445,0.0997 -20.578125,0.082 -4.880372,-0.0257 -9.761215,-0.0227 -14.638672,-0.19335 -2.17574,-0.0761 -4.348923,-0.20633 -6.517578,-0.38086 -1.55561,0.11514 -3.112914,0.21867 -4.671875,0.25781 -4.36631,0.10962 -10.388189,-0.19215 -14.814453,-0.57031 -1.658797,-0.14172 -8.201837,-0.87138 -10.195313,-1.28907 -1.058474,-0.22178 -2.071742,-0.62227 -3.107422,-0.93359 -0.03064,-0.0148 -1.8989,-0.94569 -2.132812,-0.97852 -2.343673,-0.3288 -6.7088365,0.6364 -7.919922,-2.375 -0.4498988,-1.11868 -0.5444247,-2.01815 -0.3964844,-2.75195 -0.7516908,-0.0414 -1.0002511,-0.067 -1.9902344,-0.11523 -13.2225613,-0.64463 0.082287,0.14769 -10.6992187,-0.10157 -1.4057051,-0.0325 -2.8075515,-0.17469 -4.2109375,-0.26171 -0.494141,-2.40391 -1.973053,-4.80632 -1.482422,-7.21094 0.218304,-1.06991 2.063477,-0.75869 3.1425782,-0.92578 0.4428017,-0.0686 0.8877743,-0.12465 1.3320313,-0.1836 -0.6005651,-0.0723 -1.1757958,-0.13835 -1.9374995,-0.25195 -0.553858,-0.0827 -1.088268,-0.26653 -1.634766,-0.38867 -0.272108,-0.0608 -0.544005,-0.1228 -0.820313,-0.16016 -0.578808,-0.0783 -1.216403,0.0522 -1.75,-0.16601 z" />
  <path
     id="flowRoot863"
     transform="scale(0.93750004)"
     style="font-style:normal;font-weight:normal;font-size:40px;line-height:1.25;font-family:sans-serif;letter-spacing:0px;word-spacing:0px;fill:#000000;fill-opacity:1;stroke:none;stroke-width:3.54116488"
     d="M 60.783203,1.0839844 V 12.414062 H 23.955078 L 13.332031,7.8828125 V 28.136719 c 0,15.581126 -1.133206,32.862503 -12.1816404,47.59375 l 1.5585938,1.699219 C 16.023765,66.947834 20.272056,52.642635 21.546875,40.177734 h 88.103515 v 2.408204 h 1.27539 c 2.83293,0 7.36617,-1.700902 7.50781,-2.550782 V 28.988281 c 2.1247,-0.283293 3.96653,-1.558323 4.81641,-2.408203 l -10.19922,-7.507812 -4.67383,4.673828 H 85.146484 v -7.082032 h 39.943356 c 1.98306,0 3.40124,-0.707512 3.82618,-2.265624 -4.67434,-4.249403 -11.89844,-9.4902349 -11.89844,-9.4902349 l -6.51563,7.5058589 H 69.849609 V 6.1816406 C 72.965835,5.6150542 74.239213,4.3414058 74.380859,2.5 Z M 22.113281,16.664062 h 23.796875 v 7.082032 H 22.113281 Z m 32.294922,0 h 22.240235 v 7.082032 H 54.408203 Z M 22.113281,27.996094 h 23.796875 v 8.074218 H 21.830078 c 0.283293,-2.832931 0.283203,-5.525601 0.283203,-7.933593 z m 32.294922,0 h 22.240235 v 8.074218 H 54.408203 Z m 30.738281,0 h 24.503906 v 8.074218 H 85.146484 Z M 32.878906,40.601562 v 19.832032 c -4.815984,0.141646 -8.781281,0.283203 -11.755859,0.283203 l 5.097656,9.347656 c 1.27482,-0.42494 2.407933,-1.133203 3.257813,-2.974609 L 46.476562,65.107422 C 58.091589,63.549309 67.016348,62.133173 73.957031,61 l -0.142578,-2.550781 c -11.473374,0.708233 -22.946156,1.276232 -32.578125,1.701172 v -6.941407 h 27.337891 c 1.841406,0 3.115144,-0.707512 3.398437,-2.265625 -3.541165,-3.399518 -9.207031,-7.224609 -9.207031,-7.224609 l -4.814453,5.382812 H 41.236328 v -4.25 c 2.832932,-0.424939 3.824129,-1.273918 4.107422,-2.832031 z m 13.597656,24.50586 c 0.0086,0.003 0.0138,0.0049 0.02148,0.0078 0.0023,-0.0017 0.0056,-0.0021 0.0078,-0.0039 z m 31.16211,-24.50586 v 16.291016 c 0,8.923736 1.84219,10.480469 12.890625,10.480469 h 25.212893 c 10.3402,0 13.59765,-1.700091 13.59765,-5.099609 0,-1.416471 -0.56629,-1.697837 -3.82422,-2.972657 l -0.2832,-7.367187 h -1.8418 c -1.27481,4.107751 -2.26637,6.800416 -2.9746,7.933594 -0.84988,0.849879 -2.265,0.849609 -4.24805,0.849609 H 91.095703 c -4.674338,0 -4.957031,-0.141497 -4.957031,-3.541016 v -2.267578 c 9.631969,-1.133173 20.962588,-3.115715 28.044918,-4.673828 2.83294,1.274819 4.95863,1.416376 6.0918,0.283203 l -8.07422,-7.791016 c -5.94916,2.549644 -16.713823,6.375121 -26.062498,9.066407 v -6.375 c 2.407992,-0.42494 3.965775,-1.558054 4.107422,-3.257813 z M 24.769531,71.84375 c -0.0011,0.0094 -7.37e-4,0.01391 -0.002,0.02344 0.0026,-0.0012 0.0052,-0.0027 0.0078,-0.0039 0.0097,-0.0023 0.01497,-0.0039 0.02344,-0.0059 z M 5.421875,105.32227 c -0.083422,4.2e-4 -0.2032441,0.004 -0.2851562,0.004 -0.022501,0.0186 -0.041805,0.0299 -0.064453,0.0488 0.1164812,-0.018 0.2331734,-0.0345 0.3496094,-0.0527 z" />
</svg>
