<?xml version="1.0" encoding="UTF-8" standalone="no"?>
<svg
   xmlns:dc="http://purl.org/dc/elements/1.1/"
   xmlns:cc="http://creativecommons.org/ns#"
   xmlns:rdf="http://www.w3.org/1999/02/22-rdf-syntax-ns#"
   xmlns:svg="http://www.w3.org/2000/svg"
   xmlns="http://www.w3.org/2000/svg"
   xmlns:sodipodi="http://sodipodi.sourceforge.net/DTD/sodipodi-0.dtd"
   xmlns:inkscape="http://www.inkscape.org/namespaces/inkscape"
   version="1.1"
   viewBox="0 0 125 125"
   width="100pt"
   height="100pt"
   id="svg2"
   inkscape:version="0.92.5 (2060ec1f9f, 2020-04-08)"
   sodipodi:docname="shikahen.svg">
  <metadata
     id="metadata12">
    <rdf:RDF>
      <cc:Work
         rdf:about="">
        <dc:format>image/svg+xml</dc:format>
        <dc:type
           rdf:resource="http://purl.org/dc/dcmitype/StillImage" />
        <dc:title></dc:title>
      </cc:Work>
    </rdf:RDF>
  </metadata>
  <defs
     id="defs10" />
  <sodipodi:namedview
     pagecolor="#ffffff"
     bordercolor="#666666"
     borderopacity="1"
     objecttolerance="10"
     gridtolerance="10"
     guidetolerance="10"
     inkscape:pageopacity="0"
     inkscape:pageshadow="2"
     inkscape:window-width="2880"
     inkscape:window-height="1495"
     id="namedview8"
     showgrid="false"
     fit-margin-top="0"
     fit-margin-left="0"
     fit-margin-right="0"
     fit-margin-bottom="0"
     inkscape:zoom="5.6568543"
     inkscape:cx="14.89563"
     inkscape:cy="64.648627"
     inkscape:window-x="-13"
     inkscape:window-y="-13"
     inkscape:window-maximized="1"
     inkscape:current-layer="svg2"
     units="pt" />
  <path
     id="rect4133"
     transform="scale(0.93750004)"
     style="opacity:0.00100002;fill:#ffffff;fill-opacity:1;fill-rule:nonzero;stroke:none;stroke-width:0.43914869;stroke-linecap:square;stroke-miterlimit:4;stroke-dasharray:none;stroke-dashoffset:0;stroke-opacity:1"
     d="M -14.681641,82.396484 V 215.72852 H 118.65234 v -70.87696 c -1.2305,-0.69702 -2.73787,-1.63171 -4.73632,-2.82422 -0.65008,-0.38791 -0.23779,-1.49896 -0.25196,-2.25586 -0.0188,-1.00332 0.0522,-2.0095 0.1543,-3.00781 0.0767,-0.74958 0.17655,-1.49611 0.2832,-2.24219 -4.89165,1.37262 -9.24731,1.71175 -14.656248,0.93946 -1.008516,-0.144 -1.945634,-0.36229 -2.849609,-0.6211 -0.96601,0.3022 -1.950291,0.55259 -2.955078,0.74219 -1.013466,-0.0498 -2.049297,0.0662 -3.041016,-0.14844 -1.533151,-0.33189 -3.472078,-1.55693 -4.539062,-2.71679 -0.448691,-0.0795 -0.858828,-0.15816 -1.386719,-0.23828 -0.263484,-0.04 -0.187486,-0.42022 -0.158203,-0.75196 -0.09312,-0.15296 -0.08644,-0.26134 -0.0039,-0.33789 -0.01257,-0.0898 -0.02276,-0.1797 -0.03516,-0.26953 -0.332808,-0.41517 -0.518419,-0.83822 -0.27539,-1.25195 0.0186,-0.0317 0.04326,-0.0589 0.0625,-0.0898 -0.02833,-0.14526 -0.04054,-0.28806 0.01172,-0.42187 0.05285,-0.13532 0.07628,0.0452 0.09375,0.27344 0.03143,-0.0471 0.06478,-0.0927 0.09766,-0.13868 -0.01956,-0.47216 -0.0081,-0.94288 0.04492,-1.4082 -0.183081,-0.22033 -0.364799,-0.42961 -0.554688,-0.70117 -0.114274,-0.16343 -0.219274,-0.33489 -0.328125,-0.50391 -1.062521,0.16735 -2.150048,0.33492 -3.09375,0.49414 -1.260896,0.12181 -1.958417,0.18723 -2.974609,0.28907 -0.06853,0.17665 -0.01069,0.0141 -0.119141,0.30078 -0.07309,0.0891 -0.146302,0.17793 -0.21875,0.26758 0.290009,0.25575 -1.034522,1.24443 -0.771484,0.93945 0.264745,-0.30697 0.516662,-0.62414 0.771484,-0.93945 -0.0029,-0.003 -6.68e-4,-0.007 -0.0039,-0.01 -0.225649,-0.16832 -0.465314,-0.31534 -0.708984,-0.45508 -0.734667,0.0733 -1.622809,0.15996 -2.289063,0.22266 -0.06606,0.10194 -0.09084,0.12474 -0.441406,0.75 -0.07658,0.24887 -0.0622,0.69577 -0.269531,0.60547 -0.0029,-0.001 -0.0049,-0.003 -0.0078,-0.004 -0.823791,3.25057 -2.288033,2.59295 -4.037109,0.83008 -0.311777,0.15697 -0.621433,0.31888 -0.929688,0.48242 -0.561649,0.29798 -1.130484,0.58126 -1.675781,0.9082 -1.434222,0.85992 -1.680194,1.13912 -2.988281,2.20118 -1.456061,1.30046 -1.948404,1.88051 -3.75586,2.84765 -0.317735,0.17002 -0.68782,0.21951 -1.041015,0.29102 -2.14371,0.43402 -3.384508,-0.22226 -4.878907,-3.11133 -0.141782,-0.2741 -0.125082,-0.56361 -0.04102,-0.85938 -0.236225,0.0895 -0.472613,0.17864 -0.708985,0.26758 -0.03708,0.0125 -0.07425,0.0246 -0.111328,0.0371 -0.621285,0.48338 -1.247394,0.95947 -1.933593,1.33985 -1.967398,1.09057 -4.388076,1.63172 -6.59375,1.87109 -1.006063,0.10918 -2.023387,0.0846 -3.035157,0.0644 -1.164541,-0.0233 -2.331566,-0.0566 -3.488281,-0.19336 -0.767763,-0.0908 -1.5278,-0.23457 -2.287109,-0.38281 -0.519809,0.0236 -1.039765,0.0413 -1.558594,0.0117 -1.949773,-0.11118 -3.95122,-0.50449 -5.697266,-1.43164 -1.015282,-0.53913 -1.847263,-1.36722 -2.771484,-2.05078 -1.242019,-1.56569 -1.776683,-2.02294 -2.580078,-3.78711 -0.128393,-0.28194 -0.244464,-0.57058 -0.363281,-0.85742 -0.541757,-0.69778 -1.049991,-1.43562 -1.517579,-2.3086 -0.488407,-0.91186 -0.769462,-1.92068 -1.154296,-2.88086 -0.292317,-1.535 -0.760616,-3.2078 -0.455078,-4.79883 0.08908,-0.46383 0.193881,-0.93237 0.316406,-1.39453 -0.408393,-0.82189 -0.697852,-1.70401 -1.060547,-2.54882 -0.359467,-1.84094 -0.756269,-3.21427 -0.507813,-5.16211 0.339546,-2.66196 1.310638,-4.80335 2.978516,-6.65625 0.01293,-0.53325 0.06723,-1.0545 0.269531,-1.64258 -0.14367,-1.682559 -0.07024,-3.392506 -0.08398,-5.068361 0.02122,-0.347584 0.04499,-0.737891 0.07227,-1.13086 -0.05907,-0.190332 -0.11187,-0.383333 -0.160156,-0.578125 -0.01972,-0.0064 -0.0466,-0.08187 -0.06445,-0.11914 -0.487142,-1.016562 -0.377286,-0.76252 -0.666015,-1.535156 -0.104306,-0.460944 -0.438485,-1.655659 -0.480469,-2.501954 -0.0185,-0.103428 -0.04395,-0.206067 -0.05469,-0.310546 -0.04122,-0.400964 -0.04817,-0.804687 -0.07227,-1.207032 0.04885,-0.875534 0.0435,-0.751668 0.0332,-1.412109 0.469147,-1.386069 0.786304,-2.83548 1.396484,-4.164063 H 5.0527344 c -1.3098855,1.621903 -2.7998641,2.676814 -6.3808594,0.875 -0.303862,-0.152891 -0.5793033,-0.469682 -0.8144531,-0.875 z m 99.19336,48.992186 c 0.0026,0.0183 0.0053,0.0364 0.0078,0.0547 0.01139,0.0812 0.0051,0.18107 -0.0039,0.2832 0.04253,0.0699 0.09492,0.14386 0.179687,0.23242 0.09294,-0.15158 0.02409,-0.0264 -0.0293,-0.45703 -0.0076,-0.0612 -0.01515,-0.12244 -0.02344,-0.18359 -9.05e-4,-9.9e-4 -0.003,-6e-5 -0.0039,-0.002 -0.05246,0.0198 -0.09586,0.0434 -0.126953,0.0723 z M 37.525391,82.396484 c 0.131351,0.165001 0.267837,0.338297 0.43164,0.582032 1.037552,0.757196 1.869709,1.661576 2.503907,2.734375 0.09039,-0.0263 0.18071,-0.0528 0.271484,-0.07813 0.08703,-0.05106 0.171752,-0.105652 0.257812,-0.158204 -0.04442,0.04168 -0.0369,0.03375 -0.08008,0.07422 0.347485,-0.159421 0.703984,-0.299346 1.064453,-0.429687 0.417183,-0.447117 0.904769,-0.697976 1.392579,-0.744141 0.242036,-0.02291 0.477309,0.02051 0.707031,0.09375 0.924083,-0.23629 1.739825,-0.325098 2.798828,-0.232422 0.06609,0.0058 0.156691,0.02747 0.232422,0.03906 0.05325,-0.0012 0.106898,-0.0033 0.160156,-0.0039 0.112529,-0.0014 0.225353,-9e-5 0.337891,0 0.330106,0.0077 0.660083,0.0049 0.990234,0.0039 0.0723,-8.6e-5 0.14453,2.5e-5 0.216797,0 -0.695562,-0.208698 -1.382532,-0.516179 -1.929688,-0.988282 -0.262017,-0.226068 -0.401997,-0.554705 -0.519531,-0.892578 z m 19.777343,0 c -0.368408,0.330441 -0.757638,0.632012 -1.240234,0.902344 -0.349107,0.195557 -0.737102,0.312467 -1.105469,0.46875 -0.782505,0.07123 -1.424407,0.247997 -2.130859,-0.183594 -0.08283,0.031 -0.165528,0.07015 -0.248047,0.09961 -0.459094,0.163904 -0.936463,0.275132 -1.404297,0.412109 -0.265187,0.04072 -0.909235,0.144229 -1.449219,0.203125 l 0.355469,0.150391 c -0.183203,-0.146771 1.493943,0.155872 2.054688,0.398437 0.04845,0.02096 0.09298,0.04979 0.140625,0.07227 0.115497,0.04536 0.320193,0.117939 0.496093,0.185547 0.160938,0.04441 0.320882,0.08823 0.494141,0.144531 0.06737,0.02189 0.0874,0.04064 0.193359,0.08789 0.333816,-0.003 0.668159,0.0029 1.001954,0.002 0.255865,-0.0013 0.511712,-0.0018 0.767578,-0.002 0.411373,-0.116021 0.809869,-0.15694 1.871093,-0.220703 0.01529,-9.29e-4 0.04032,0.0024 0.05664,0.002 0.904889,-0.222978 1.47222,-0.199865 2.326172,-0.144532 -0.0043,-0.0089 -0.01724,-0.0088 -0.01758,-0.02148 -0.0039,-0.147843 0.290786,-0.04774 0.4375,-0.06641 0.633063,-0.08054 1.004933,-0.112821 1.654297,-0.119141 0.445153,-0.112661 0.889304,-0.229334 1.333984,-0.34375 0.421479,1.19e-4 0.530815,5.25e-4 0.740234,0 0.02907,-0.400401 0.08491,-0.798137 0.132813,-1.197266 0.0098,-0.148649 0.01995,-0.29559 0.0293,-0.443359 -0.02359,-0.148414 -0.01304,-0.05865 -0.04492,-0.257812 -0.0037,-0.04237 -0.0079,-0.08637 -0.01172,-0.128907 z m -3.84375,2.941407 c -0.01824,1.66e-4 -0.03645,0.0036 -0.05469,0.0039 0.04612,0.0081 0.09982,0.02896 0.146484,0.03906 -0.03844,-0.01854 -0.04123,-0.02042 -0.0918,-0.04297 z m 0.0918,0.04297 c 0.04641,0.02238 0.104323,0.04442 0.111328,0.05078 0.05141,0.0074 0.102933,0.01365 0.154297,0.02148 -0.08893,-0.02599 -0.180891,-0.05392 -0.265625,-0.07227 z m 0.265625,0.07227 c 0.03475,0.01016 0.0678,0.01782 0.103516,0.0293 0.134082,0.014 0.268262,0.02702 0.402344,0.04102 -0.168657,-0.02334 -0.337468,-0.04464 -0.50586,-0.07031 z m 0.103516,0.0293 c -0.0645,-0.0067 -0.128851,-0.01475 -0.19336,-0.02148 -0.0048,-0.0014 0.02642,0.01178 0.01953,0.0098 -0.0095,-0.0032 -0.01579,-0.0065 -0.02539,-0.0098 -0.03125,-0.0033 -0.06249,-0.0066 -0.09375,-0.0098 0.01786,0.0073 0.08042,0.04393 0.257813,0.15039 -0.157548,-0.06574 -0.03242,-0.01385 -0.167969,-0.07031 0.140779,0.11522 0.335313,0.294462 0.08398,0.283203 0.0146,0.0043 0.02837,0.01126 0.04297,0.01563 0.205803,-0.07463 0.353702,-0.130422 0.505859,-0.1875 -0.148258,-0.06189 -0.299841,-0.118422 -0.429687,-0.160156 z m -0.119141,0.332031 c -0.03654,-0.01086 -0.07282,-0.02239 -0.109375,-0.0332 0.0089,0.0063 0.01849,0.01132 0.02734,0.01758 0.02186,0.0028 0.06468,0.01484 0.08203,0.01563 z m -0.08203,-0.01563 c -0.1857,-0.02348 -0.593018,-0.147024 -1.220703,-0.375 -0.13034,-0.03742 -0.260297,-0.07582 -0.390625,-0.113281 l 1.482422,0.630859 c 0.052,-0.02618 0.04799,-0.02686 0.115234,-0.06055 0.0379,-0.01355 0.04993,-0.01826 0.08594,-0.03125 -0.02407,-0.01702 -0.04819,-0.03377 -0.07227,-0.05078 z m -1.611328,-0.488281 -0.05469,-0.02344 c -0.01302,-0.0014 -0.02605,-0.0025 -0.03906,-0.0039 0.03129,0.009 0.06246,0.01835 0.09375,0.02734 z m -0.09375,-0.02734 c -0.03842,-0.01105 -0.07682,-0.02213 -0.115234,-0.0332 -0.0937,-0.0021 -0.158154,-0.0025 -0.261719,-0.0059 0.125642,0.01312 0.251311,0.02595 0.376953,0.03906 z M 51.898438,85.25 c 0.02517,5.67e-4 0.04578,0.0014 0.07031,0.002 L 51.0625,84.867188 c -0.148817,1.81e-4 -0.294122,-0.0027 -0.455078,0.0078 0.428834,0.129804 0.860317,0.250877 1.291016,0.375 z M 51.0625,84.867188 c 0.0032,-1.4e-5 0.0066,-10e-7 0.0098,0 -0.06552,-0.02654 -0.126786,-0.05012 -0.195313,-0.07813 z m -0.185547,-0.07813 -0.796875,-0.339843 c 0.01719,0.01377 0.02722,0.02664 0.08008,0.04883 0.294667,0.123685 0.464779,0.188049 0.716797,0.291015 z m 2.839844,0.742188 c -0.05767,-0.0472 -0.09358,-0.07444 -0.0957,-0.08008 -0.04364,-0.0044 -0.08724,-0.0091 -0.13086,-0.01367 0.145105,0.06031 0.04404,0.01771 0.226563,0.09375 z m -0.3125,-0.189453 c -0.0013,1.8e-5 -0.0026,-1.9e-5 -0.0039,0 -0.0423,6.13e-4 -0.08467,0.0047 -0.126953,0.0059 0.05515,0.02287 0.04793,0.02057 0.111328,0.04687 0.08224,0.0093 0.164116,0.02163 0.246093,0.0332 -0.0877,-0.03063 -0.135761,-0.05302 -0.226562,-0.08594 z m -0.632813,-0.236328 c -0.07453,-0.02057 -0.15372,-0.04256 -0.226562,-0.06055 0.05582,0.02339 0.361592,0.149828 0.65039,0.269531 0.06059,0.0075 0.129064,0.01115 0.189454,0.02148 -0.245769,-0.08932 -0.395703,-0.146843 -0.613282,-0.230469 z m -0.226562,-0.06055 c -0.01409,-0.0059 -0.162145,-0.06741 -0.164063,-0.06836 0.03719,0.0186 0.07456,0.03723 0.111329,0.05664 0.01784,0.0043 0.03482,0.0073 0.05273,0.01172 z M 37.292969,82.703125 c 0.491346,0.647022 0.982876,1.293192 1.585937,1.832031 0.563676,0.503647 -0.789628,-0.734812 -1.388672,-1.660156 l -0.08008,-0.08203 c -0.006,-0.0033 -0.0052,-2.26e-4 -0.01172,-0.0039 z m 0.667969,0.28125 c 0.193598,0.288324 0.138237,0.183625 0.296874,0.4375 0.252007,0.188286 0.499559,0.38225 0.763672,0.552734 0.40934,0.264228 -0.682823,-0.641177 -1.060546,-0.990234 z m 10.242187,1.529297 c 0.375801,0.100905 0.554363,0.160182 0.144531,0.02734 -0.04813,-0.0094 -0.09649,-0.01742 -0.144531,-0.02734 z m 6.441406,1.265625 c -0.153416,0.04062 -0.416893,0.103413 -0.533203,0.134765 0.224214,0.06775 0.446644,0.140329 0.669922,0.210938 0.03765,-0.01972 0.08414,-0.05375 0.111328,-0.0625 0.05888,-0.01894 0.09842,-0.02673 0.15625,-0.04492 0.01695,-0.0098 0.03385,-0.01945 0.05078,-0.0293 -0.17908,-0.09328 -0.30362,-0.138601 -0.455078,-0.208984 z m 0.404297,0.238281 c -0.07232,0.04182 -0.145789,0.08071 -0.21875,0.121094 0.300143,0.09528 0.602623,0.182604 0.900391,0.285156 -0.19259,-0.15908 -0.390469,-0.310298 -0.611328,-0.425781 -0.02574,0.008 -0.04436,0.01137 -0.07031,0.01953 z m -0.21875,0.121094 c -0.01611,-0.0051 -0.03272,-0.0086 -0.04883,-0.01367 -0.161195,0.08441 -0.314712,0.188123 -0.296875,0.195312 l 0.01172,0.0039 c 0.114297,-0.05526 0.222494,-0.123841 0.333984,-0.185547 z m -0.884766,-0.183594 c -0.03962,0.01068 -0.166656,0.04153 -0.201171,0.05078 l 0.726562,0.308594 C 54.293439,86.198729 54.118995,86.0774 53.945312,85.955078 Z m 0.53711,0.367188 c 0.004,4.38e-4 -0.03912,0.02984 -0.02148,0.02148 0.01,-0.0047 0.01936,-0.01084 0.0293,-0.01563 -0.0027,-0.0018 -0.0051,-0.0041 -0.0078,-0.0059 z m -32.90625,6.828125 c 0.01027,0.03832 0.05228,0.164447 0.0957,0.296875 -0.01903,-0.07136 -0.03483,-0.144631 -0.05664,-0.214844 -0.03506,-0.08605 -0.04473,-0.103178 -0.03906,-0.08203 z m 30.382812,1.210937 c -0.05212,0.04459 -0.337305,0.282186 -0.251953,0.212891 0.20894,-0.169632 0.107229,-0.09013 0.251953,-0.210938 z m 0,0.04883 c -0.592162,0.560531 -1.285304,1.203456 -1.015625,0.978516 -0.002,0.0026 -0.0039,0.0052 -0.0059,0.0078 0.296607,-0.255067 0.583497,-0.521341 0.865234,-0.792968 0.05159,-0.05849 0.102219,-0.117778 0.154297,-0.175782 0.0013,-0.0081 5.77e-4,-0.01018 0.002,-0.01758 z m -6.957031,3.677735 c -0.0078,5.95e-4 -0.01562,0.0014 -0.02344,0.002 -0.0497,0.03152 -0.112649,0.06909 -0.164063,0.101562 0.05178,-0.0058 0.103415,-0.01374 0.154297,-0.02539 0.01141,-0.02889 0.02182,-0.04963 0.0332,-0.07813 z m 13.486328,1.921879 c -0.184923,2e-5 -0.369764,0.002 -0.554687,0.002 -0.212478,0.0464 -0.426096,0.0824 -0.638672,0.11133 -0.04293,0.0151 -0.08579,0.0316 -0.128906,0.0469 0.125498,0.0671 0.255471,0.12556 0.382812,0.18946 0.31557,-0.12123 0.625252,-0.23747 0.939453,-0.34961 z m 14.994141,29.32031 c -0.0018,0.004 -0.004,0.008 -0.0059,0.0117 -0.02679,0.0584 -0.102937,0.23169 -0.0625,0.18164 0.04282,-0.053 0.05889,-0.12253 0.08203,-0.1875 -0.0049,-0.002 -0.0088,-0.004 -0.01367,-0.006 z m -13.039063,6.20312 c -0.162254,0.13095 -0.218107,0.17455 -0.0293,0.0801 0.01338,-0.0392 0.01617,-0.042 0.0293,-0.0801 z" />
  <path
     id="flowRoot805"
     transform="scale(0.93750004)"
     style="font-style:normal;font-weight:normal;font-size:40px;line-height:1.25;font-family:sans-serif;letter-spacing:0px;word-spacing:0px;fill:#000000;fill-opacity:1;stroke:none;stroke-width:3.47918463"
     d="M 33.251953,3.4453125 V 18.474609 H 17.527344 L 8.203125,14.021484 v 47.457032 c 0,21.849279 0.5555589,45.786154 -6.8203125,64.156254 l 2.2265625,1.25195 C 15.160268,109.9083 15.855469,85.971252 15.855469,66.070312 h 41.195312 v 3.757813 h 1.113281 c 2.36585,0 6.401849,-1.809527 6.541016,-2.644531 V 43.664062 c 2.087511,-0.278334 3.896456,-1.25239 4.453125,-2.226562 l -9.185547,-6.957031 -4.035156,4.3125 h -7.515625 v -9.183594 c 2.365846,-0.278335 3.479474,-1.531659 3.757813,-3.0625 L 41.044922,25.294922 v 13.498047 h -9.324219 v -9.183594 c 2.505013,-0.278335 3.618645,-1.531659 3.757813,-3.0625 L 24.484375,25.294922 V 38.792969 H 15.855469 V 22.371094 h 49.683593 c 1.948348,0 3.340806,-0.694264 3.619141,-2.085938 -4.175021,-4.035854 -10.578125,-9.185547 -10.578125,-9.185547 l -5.84375,7.375 H 41.742188 V 8.3164062 C 44.943037,7.7597367 46.05565,6.5064416 46.333984,4.6972656 Z M 15.855469,42.96875 h 8.628906 v 19.066406 h -8.628906 v -0.55664 z m 15.865234,0 h 9.324219 v 19.066406 h -9.324219 z m 16.701172,0 h 8.628906 V 62.035156 H 48.421875 Z M 22.119141,70.384766 v 44.951174 c -4.175022,1.11334 -7.792853,2.08786 -10.019532,2.64453 l 5.984375,9.88086 c 1.252507,-0.55667 2.086404,-1.67033 2.503907,-3.20117 9.185047,-5.28836 16.1443,-9.88072 20.597656,-12.66407 l -0.556641,-1.94921 -10.99414,3.20117 V 91.955078 h 9.880859 c 1.809176,0 3.061509,-0.694755 3.339844,-1.947266 -2.087511,-3.200849 -6.123047,-7.792968 -6.123047,-7.792968 l -3.480469,5.84375 H 29.634766 V 75.255859 c 3.061682,-0.556669 4.035622,-1.81046 4.453125,-3.480468 z m 21.152343,0.277343 v 43.421871 c 0,5.01003 1.114417,7.09766 7.376954,7.09766 h 5.009765 c 9.741717,0 12.664063,-1.3929 12.664063,-4.59375 0,-1.53084 -0.694702,-2.36617 -3.060547,-3.20117 l -0.556641,-8.90625 h -1.53125 c -0.974172,3.75752 -1.948199,7.93208 -2.783203,8.90625 -0.278335,0.55667 -0.697237,0.5581 -1.253906,0.69726 H 55.9375 52.595703 c -1.530841,0 -1.808594,-0.41887 -1.808594,-1.81054 V 92.929688 c 4.314189,-2.36585 9.601885,-5.426657 12.802735,-7.375 2.64418,0.695836 3.898408,0.416073 4.455078,-0.697266 l -8.490234,-6.81836 c -2.226683,2.92252 -5.705896,7.237117 -8.767579,10.855469 v -13.5 c 2.365846,-0.417502 3.757317,-1.669835 3.896485,-3.339843 z" />
</svg>
