<?xml version="1.0" encoding="UTF-8" standalone="no"?>
<svg
   xmlns:dc="http://purl.org/dc/elements/1.1/"
   xmlns:cc="http://creativecommons.org/ns#"
   xmlns:rdf="http://www.w3.org/1999/02/22-rdf-syntax-ns#"
   xmlns:svg="http://www.w3.org/2000/svg"
   xmlns="http://www.w3.org/2000/svg"
   xmlns:sodipodi="http://sodipodi.sourceforge.net/DTD/sodipodi-0.dtd"
   xmlns:inkscape="http://www.inkscape.org/namespaces/inkscape"
   version="1.1"
   viewBox="0 0 125 125"
   width="100pt"
   height="100pt"
   id="svg2"
   inkscape:version="0.92.5 (2060ec1f9f, 2020-04-08)"
   sodipodi:docname="shiohen.svg">
  <metadata
     id="metadata12">
    <rdf:RDF>
      <cc:Work
         rdf:about="">
        <dc:format>image/svg+xml</dc:format>
        <dc:type
           rdf:resource="http://purl.org/dc/dcmitype/StillImage" />
        <dc:title></dc:title>
      </cc:Work>
    </rdf:RDF>
  </metadata>
  <defs
     id="defs10" />
  <sodipodi:namedview
     pagecolor="#ffffff"
     bordercolor="#666666"
     borderopacity="1"
     objecttolerance="10"
     gridtolerance="10"
     guidetolerance="10"
     inkscape:pageopacity="0"
     inkscape:pageshadow="2"
     inkscape:window-width="2880"
     inkscape:window-height="1495"
     id="namedview8"
     showgrid="false"
     fit-margin-top="0"
     fit-margin-left="0"
     fit-margin-right="0"
     fit-margin-bottom="0"
     inkscape:zoom="5.6568543"
     inkscape:cx="14.89563"
     inkscape:cy="64.648627"
     inkscape:window-x="-13"
     inkscape:window-y="-13"
     inkscape:window-maximized="1"
     inkscape:current-layer="svg2"
     units="pt" />
  <path
     id="rect4133"
     transform="scale(0.93750004)"
     style="opacity:0.00100002;fill:#ffffff;fill-opacity:1;fill-rule:nonzero;stroke:none;stroke-width:0.43914869;stroke-linecap:square;stroke-miterlimit:4;stroke-dasharray:none;stroke-dashoffset:0;stroke-opacity:1"
     d="M -14.681641,82.396484 V 215.72852 H 118.65234 V 133.2207 c -0.49766,0.16178 -0.97911,0.26686 -1.45703,0.33399 -0.10778,0.0371 -0.17954,0.0647 -0.29297,0.10351 -6.11096,2.0912 -11.03839,2.7192 -17.457028,1.80274 -1.008516,-0.144 -1.945634,-0.36229 -2.849609,-0.6211 -0.96601,0.3022 -1.950291,0.55259 -2.955078,0.74219 -1.013466,-0.0498 -2.049297,0.0662 -3.041016,-0.14844 -1.533151,-0.33189 -3.472078,-1.55693 -4.539062,-2.71679 -0.448691,-0.0795 -0.858828,-0.15816 -1.386719,-0.23828 -0.263484,-0.04 -0.187486,-0.42022 -0.158203,-0.75196 -0.09312,-0.15296 -0.08641,-0.26134 -0.0039,-0.33789 -0.01257,-0.0898 -0.02276,-0.1797 -0.03516,-0.26953 -0.332808,-0.41517 -0.518419,-0.83822 -0.27539,-1.25195 0.0186,-0.0317 0.04326,-0.0589 0.0625,-0.0898 -0.02833,-0.14526 -0.04054,-0.28806 0.01172,-0.42187 0.05285,-0.13532 0.07628,0.0452 0.09375,0.27344 0.03143,-0.0471 0.06478,-0.0927 0.09766,-0.13868 -0.01956,-0.47216 -0.0081,-0.94288 0.04492,-1.4082 -0.183081,-0.22033 -0.364799,-0.42961 -0.554688,-0.70117 -0.114274,-0.16343 -0.219274,-0.33489 -0.328125,-0.50391 -1.062521,0.16735 -2.150048,0.33492 -3.09375,0.49414 -3.300074,0.3188 -5.583358,0.56627 -7.785156,0.75782 l -0.002,0.002 c -0.380895,0.19142 -0.805595,0.2762 -1.208985,0.41406 -0.230538,0.0439 -0.44151,0.0838 -0.65625,0.11524 -0.162335,0.0567 -0.328915,0.10578 -0.46875,0.16406 -0.392578,0.16364 -0.761882,0.3777 -1.15039,0.55078 -0.0091,0.004 -0.01829,0.008 -0.02734,0.0117 -0.02921,0.0352 -0.04747,0.0543 -0.07813,0.0918 -0.371732,0.29386 -0.732265,0.60375 -1.115234,0.88281 -0.684364,0.49868 -2.38217,1.6035 -3.064453,1.97851 -1.38827,0.76307 -2.892834,1.31155 -4.402344,1.77539 -0.433085,0.085 -0.861063,0.19773 -1.298828,0.25391 -0.262544,0.0337 -0.530345,0.0217 -0.794922,0.0137 -0.784749,-0.0237 -1.569174,-0.21466 -2.257813,-0.5957 -0.08179,-0.0503 -0.139487,-0.0836 -0.208984,-0.125 -0.108424,0.0418 -0.214723,0.0584 -0.316406,-0.004 -0.43942,-0.26938 -0.898093,-0.53563 -1.353516,-0.80273 -0.299741,0.11413 -0.600205,0.22689 -0.900391,0.33984 -0.03708,0.0125 -0.07425,0.0246 -0.111328,0.0371 -0.621285,0.48338 -1.247394,0.95947 -1.933593,1.33985 -1.967398,1.09057 -4.388076,1.63172 -6.59375,1.87109 -1.006063,0.10918 -2.023387,0.0846 -3.035157,0.0644 -1.164541,-0.0233 -2.331566,-0.0566 -3.488281,-0.19336 -0.767763,-0.0908 -1.5278,-0.23457 -2.287109,-0.38281 -0.519809,0.0236 -1.039765,0.0413 -1.558594,0.0117 -1.949773,-0.11118 -3.95122,-0.50449 -5.697266,-1.43164 -1.015282,-0.53913 -1.847263,-1.36722 -2.771484,-2.05078 -1.242019,-1.56569 -1.776683,-2.02294 -2.580078,-3.78711 -0.128393,-0.28194 -0.244464,-0.57058 -0.363281,-0.85742 -0.541757,-0.69778 -1.049994,-1.43562 -1.517579,-2.3086 -0.488407,-0.91186 -0.769462,-1.92068 -1.154296,-2.88086 -0.292317,-1.535 -0.760613,-3.20783 -0.455078,-4.79883 0.08908,-0.46383 0.193881,-0.93237 0.316406,-1.39453 -0.408393,-0.82189 -0.697852,-1.70401 -1.060547,-2.54882 -0.359467,-1.84094 -0.756269,-3.21427 -0.507813,-5.16211 0.339546,-2.66196 1.310638,-4.80335 2.978516,-6.65625 0.01293,-0.53325 0.06723,-1.0545 0.269531,-1.64258 -0.14367,-1.682553 -0.07024,-3.392506 -0.08398,-5.068361 0.02122,-0.347584 0.04499,-0.737891 0.07227,-1.13086 -0.05907,-0.190332 -0.11187,-0.383333 -0.160156,-0.578125 -0.01972,-0.0064 -0.0466,-0.08187 -0.06445,-0.11914 -0.487142,-1.016562 -0.377286,-0.76252 -0.666015,-1.535156 -0.104303,-0.460941 -0.438485,-1.655659 -0.480469,-2.501954 -0.0185,-0.103428 -0.04395,-0.206067 -0.05469,-0.310546 -0.04122,-0.400961 -0.04817,-0.804687 -0.07227,-1.207032 0.04885,-0.875534 0.0435,-0.751668 0.0332,-1.412109 0.469147,-1.386069 0.786304,-2.83548 1.396484,-4.164063 H 5.0527344 c -1.3098855,1.621903 -2.7998641,2.676814 -6.3808594,0.875 -0.303862,-0.152891 -0.5793033,-0.469682 -0.8144531,-0.875 z m 99.19336,48.992186 c 0.0026,0.0183 0.0053,0.0364 0.0078,0.0547 0.01139,0.0812 0.0051,0.18107 -0.0039,0.2832 0.04253,0.0699 0.09492,0.14386 0.179687,0.23242 0.09294,-0.15158 0.02409,-0.0264 -0.0293,-0.45703 -0.0076,-0.0612 -0.01515,-0.12244 -0.02344,-0.18359 -9.05e-4,-9.9e-4 -0.003,-2.1e-4 -0.0039,-0.002 -0.05246,0.0198 -0.09586,0.0434 -0.126953,0.0723 z M 37.525391,82.396484 c 0.131351,0.165001 0.267837,0.338297 0.43164,0.582032 1.037552,0.757196 1.869712,1.661576 2.503907,2.734375 0.09039,-0.0263 0.18071,-0.0528 0.271484,-0.07813 0.08703,-0.05106 0.171752,-0.105655 0.257812,-0.158204 -0.04442,0.04168 -0.0369,0.03375 -0.08008,0.07422 0.347485,-0.159421 0.703984,-0.299346 1.064453,-0.429687 0.417183,-0.447117 0.904772,-0.697976 1.392579,-0.744141 0.242036,-0.02291 0.477309,0.02051 0.707031,0.09375 0.924083,-0.23629 1.739825,-0.325098 2.798828,-0.232422 0.06609,0.0058 0.156691,0.02747 0.232422,0.03906 0.05325,-0.0012 0.106898,-0.0033 0.160156,-0.0039 0.112529,-0.0014 0.225353,-8.7e-5 0.337891,0 0.330106,0.0077 0.660083,0.0049 0.990234,0.0039 0.0723,-8.6e-5 0.14453,2.5e-5 0.216797,0 -0.695562,-0.208698 -1.382532,-0.516182 -1.929688,-0.988282 -0.262017,-0.226068 -0.401997,-0.554705 -0.519531,-0.892578 z m 19.777343,0 c -0.368408,0.330441 -0.757638,0.632012 -1.240234,0.902344 -0.349107,0.195557 -0.737102,0.312467 -1.105469,0.46875 -0.782505,0.07123 -1.424407,0.247997 -2.130859,-0.183594 -0.08283,0.031 -0.165528,0.07015 -0.248047,0.09961 -0.459094,0.163904 -0.936463,0.275132 -1.404297,0.412109 -0.265187,0.04072 -0.909235,0.144229 -1.449219,0.203125 l 0.355469,0.150391 c -0.183203,-0.146771 1.493943,0.155872 2.054688,0.398437 0.04845,0.02096 0.09298,0.04979 0.140625,0.07227 0.115497,0.04536 0.320193,0.117939 0.496093,0.185547 0.160938,0.04441 0.320882,0.08823 0.494141,0.144531 0.06737,0.02189 0.0874,0.04064 0.193359,0.08789 0.333816,-0.003 0.668162,0.0029 1.001954,0.002 0.255865,-0.0013 0.511712,-0.0018 0.767578,-0.002 0.411373,-0.116021 0.809869,-0.15694 1.871093,-0.220703 0.01529,-9.26e-4 0.04032,0.0024 0.05664,0.002 0.904889,-0.222978 1.47222,-0.199865 2.326172,-0.144532 -0.0043,-0.0089 -0.01724,-0.0088 -0.01758,-0.02148 -0.0039,-0.147843 0.290786,-0.04774 0.4375,-0.06641 0.633063,-0.08054 1.004933,-0.112821 1.654297,-0.119141 0.445153,-0.112661 0.889304,-0.229334 1.333984,-0.34375 0.421479,1.19e-4 0.530815,5.25e-4 0.740234,0 0.02907,-0.400401 0.08491,-0.79814 0.132813,-1.197266 0.0098,-0.148649 0.01995,-0.29559 0.0293,-0.443359 -0.02359,-0.148414 -0.01304,-0.05865 -0.04492,-0.257812 -0.0037,-0.04237 -0.0079,-0.08637 -0.01172,-0.128907 z m -3.84375,2.941407 c -0.01824,1.66e-4 -0.03645,0.0036 -0.05469,0.0039 0.04612,0.0081 0.09982,0.02896 0.146484,0.03906 -0.03844,-0.01854 -0.04123,-0.02042 -0.0918,-0.04297 z m 0.0918,0.04297 c 0.04641,0.02238 0.104323,0.04442 0.111328,0.05078 0.05141,0.0074 0.102933,0.01365 0.154297,0.02148 -0.08893,-0.02599 -0.180891,-0.05392 -0.265625,-0.07227 z m 0.265625,0.07227 c 0.03475,0.01016 0.0678,0.01782 0.103516,0.0293 0.134082,0.014 0.268262,0.02702 0.402344,0.04102 -0.168657,-0.02334 -0.337468,-0.04464 -0.50586,-0.07031 z m 0.103516,0.0293 c -0.0645,-0.0067 -0.128854,-0.01475 -0.19336,-0.02148 -0.0048,-0.0014 0.02642,0.01189 0.01953,0.0098 -0.0095,-0.0032 -0.01579,-0.0065 -0.02539,-0.0098 -0.03125,-0.0033 -0.06249,-0.0066 -0.09375,-0.0098 0.01786,0.0073 0.08042,0.04393 0.257813,0.15039 -0.157548,-0.06574 -0.03242,-0.01385 -0.167969,-0.07031 0.140779,0.11522 0.335301,0.294462 0.08398,0.283203 0.0146,0.0043 0.02837,0.01126 0.04297,0.01563 0.205803,-0.07463 0.353702,-0.130422 0.505859,-0.1875 -0.148258,-0.06189 -0.299841,-0.118422 -0.429687,-0.160156 z m -0.119141,0.332031 c -0.03654,-0.01086 -0.07282,-0.02239 -0.109375,-0.0332 0.0089,0.0063 0.01849,0.01132 0.02734,0.01758 0.02186,0.0028 0.06468,0.01484 0.08203,0.01563 z m -0.08203,-0.01563 c -0.1857,-0.02348 -0.593018,-0.147024 -1.220703,-0.375 -0.13034,-0.03742 -0.260297,-0.07582 -0.390625,-0.113281 l 1.482422,0.630859 c 0.052,-0.02618 0.04799,-0.02686 0.115234,-0.06055 0.0379,-0.01355 0.04993,-0.01826 0.08594,-0.03125 -0.02407,-0.01702 -0.04819,-0.03377 -0.07227,-0.05078 z m -1.611328,-0.488281 -0.05469,-0.02344 c -0.01302,-0.0014 -0.02605,-0.0025 -0.03906,-0.0039 0.03129,0.009 0.06246,0.01835 0.09375,0.02734 z m -0.09375,-0.02734 c -0.03842,-0.01105 -0.07682,-0.02213 -0.115234,-0.0332 -0.0937,-0.0021 -0.158154,-0.0025 -0.261719,-0.0059 0.125642,0.01312 0.251311,0.02595 0.376953,0.03906 z M 51.898438,85.25 c 0.02517,5.67e-4 0.04578,0.0014 0.07031,0.002 L 51.0625,84.867188 c -0.148817,1.81e-4 -0.294122,-0.0027 -0.455078,0.0078 0.428834,0.129804 0.86032,0.250877 1.291016,0.375 z M 51.0625,84.867188 c 0.0032,-1.1e-5 0.0066,-10e-7 0.0098,0 -0.06552,-0.02654 -0.126786,-0.05012 -0.195313,-0.07813 z m -0.185547,-0.07813 -0.796875,-0.339843 c 0.01719,0.01377 0.02722,0.02664 0.08008,0.04883 0.294667,0.123685 0.464779,0.188049 0.716797,0.291015 z m 2.839844,0.742188 c -0.05767,-0.0472 -0.09358,-0.07444 -0.0957,-0.08008 -0.04364,-0.0044 -0.08724,-0.0091 -0.13086,-0.01367 0.145105,0.06031 0.04404,0.01771 0.226563,0.09375 z m -0.3125,-0.189453 c -0.0013,1.8e-5 -0.0026,-1.9e-5 -0.0039,0 -0.0423,6.13e-4 -0.08467,0.0047 -0.126953,0.0059 0.05515,0.02287 0.04793,0.02057 0.111328,0.04687 0.08224,0.0093 0.164116,0.02163 0.246093,0.0332 -0.0877,-0.03063 -0.135761,-0.05302 -0.226562,-0.08594 z m -0.632813,-0.236328 c -0.07453,-0.02057 -0.15372,-0.04256 -0.226562,-0.06055 0.05582,0.02339 0.361592,0.149828 0.65039,0.269531 0.06059,0.0075 0.129064,0.01115 0.189454,0.02148 -0.245769,-0.08932 -0.395703,-0.146843 -0.613282,-0.230469 z m -0.226562,-0.06055 c -0.01409,-0.0059 -0.162145,-0.06741 -0.164063,-0.06836 0.03719,0.0186 0.07456,0.03723 0.111329,0.05664 0.01784,0.0043 0.03482,0.0073 0.05273,0.01172 z M 37.292969,82.703125 c 0.491346,0.647022 0.982876,1.293192 1.585937,1.832031 0.563676,0.503647 -0.789628,-0.734812 -1.388672,-1.660156 l -0.08008,-0.08203 c -0.006,-0.0033 -0.0052,-2.08e-4 -0.01172,-0.0039 z m 0.667969,0.28125 c 0.193598,0.288324 0.138237,0.183625 0.296874,0.4375 0.252004,0.188286 0.499559,0.38225 0.763672,0.552734 0.40934,0.264228 -0.682823,-0.641177 -1.060546,-0.990234 z m 10.242187,1.529297 c 0.375801,0.100905 0.554363,0.16017 0.144531,0.02734 -0.04813,-0.0094 -0.09649,-0.01742 -0.144531,-0.02734 z m 6.441406,1.265625 c -0.153416,0.04062 -0.416893,0.103413 -0.533203,0.134765 0.224214,0.06775 0.446644,0.140329 0.669922,0.210938 0.03765,-0.01972 0.08414,-0.05375 0.111328,-0.0625 0.05888,-0.01894 0.09842,-0.02673 0.15625,-0.04492 0.01695,-0.0098 0.03385,-0.01945 0.05078,-0.0293 -0.17908,-0.09328 -0.30362,-0.138601 -0.455078,-0.208984 z m 0.404297,0.238281 c -0.07232,0.04182 -0.145789,0.08071 -0.21875,0.121094 0.300143,0.09528 0.602623,0.182604 0.900391,0.285156 -0.19259,-0.15908 -0.390469,-0.310298 -0.611328,-0.425781 -0.02574,0.008 -0.04436,0.01137 -0.07031,0.01953 z m -0.21875,0.121094 c -0.01611,-0.0051 -0.03272,-0.0086 -0.04883,-0.01367 -0.161195,0.08441 -0.314712,0.188123 -0.296875,0.195312 l 0.01172,0.0039 c 0.114297,-0.05526 0.222494,-0.123841 0.333984,-0.185547 z m -0.884766,-0.183594 c -0.03962,0.01068 -0.166656,0.04153 -0.201171,0.05078 l 0.726562,0.308594 c -0.177264,-0.115726 -0.351711,-0.237052 -0.525391,-0.359375 z m 0.53711,0.367188 c 0.004,4.38e-4 -0.03912,0.02984 -0.02148,0.02148 0.01,-0.0047 0.01936,-0.01084 0.0293,-0.01563 -0.0027,-0.0018 -0.0051,-0.0041 -0.0078,-0.0059 z m -32.90625,6.828125 c 0.01027,0.03832 0.05228,0.164447 0.0957,0.296875 -0.01903,-0.07136 -0.03483,-0.144631 -0.05664,-0.214844 -0.03506,-0.08605 -0.04473,-0.103178 -0.03906,-0.08203 z m 30.382812,1.210937 c -0.05212,0.04459 -0.337305,0.282186 -0.251953,0.212891 0.20894,-0.169632 0.107229,-0.09013 0.251953,-0.210938 z m 0,0.04883 c -0.592162,0.560531 -1.285304,1.203456 -1.015625,0.978516 -0.002,0.0026 -0.0039,0.0052 -0.0059,0.0078 0.296607,-0.255067 0.583497,-0.521341 0.865234,-0.792968 0.05159,-0.05849 0.102219,-0.117778 0.154297,-0.175782 0.0013,-0.0081 7.18e-4,-0.01018 0.002,-0.01758 z m -6.957031,3.677735 c -0.0078,5.95e-4 -0.01562,0.0014 -0.02344,0.002 -0.0497,0.03152 -0.112649,0.06909 -0.164063,0.101562 0.05178,-0.0058 0.103415,-0.01374 0.154297,-0.02539 0.01141,-0.02889 0.02182,-0.04963 0.0332,-0.07813 z m 13.486328,1.921879 c -0.184923,2e-5 -0.369764,0.002 -0.554687,0.002 -0.212478,0.0464 -0.426096,0.0824 -0.638672,0.11133 -0.04293,0.0151 -0.08579,0.0316 -0.128906,0.0469 0.125498,0.0671 0.255471,0.12559 0.382812,0.18946 0.31557,-0.1212 0.625252,-0.23747 0.939453,-0.34961 z" />
  <path
     id="flowRoot745"
     transform="scale(0.93750004)"
     style="font-style:normal;font-weight:normal;font-size:40px;line-height:1.25;font-family:sans-serif;letter-spacing:0px;word-spacing:0px;fill:#000000;fill-opacity:1;stroke:none;stroke-width:3.51895976"
     d="M 25.75,2.7597656 V 38.933594 H 12.236328 L 3.5097656,34.570312 v 96.279298 h 1.4082032 c 3.8004766,0 6.7558592,-2.11235 6.7558592,-3.09766 v -9.85156 h 37.722656 v 7.45899 h 1.267578 c 2.955931,0 6.896351,-2.25102 7.03711,-3.23633 V 49.068359 44.423828 C 60.234815,44.001553 62.346856,42.876067 63.191406,41.75 l -10.27539,-8.164062 -4.785157,5.347656 H 34.476562 V 24.013672 h 26.744141 c 1.970618,0 3.237881,-0.703611 3.660156,-2.251953 -3.941235,-3.941235 -10.55664,-9.572266 -10.55664,-9.572266 l -5.771485,7.882813 H 34.476562 V 7.8261719 c 3.096689,-0.5630336 4.22239,-1.8302971 4.503907,-3.6601563 z M 57.701172,49.068359 c 0.02358,-0.01407 0.04674,-0.02109 0.07031,-0.0332 8.89e-4,-0.01174 0.0029,-0.02344 0.0039,-0.03516 -0.0248,0.02195 -0.04942,0.04649 -0.07422,0.06836 z M 11.673828,43.015625 H 49.396484 V 74.40625 c -1.548342,-2.111376 -4.502877,-4.3635 -9.710937,-6.193359 l -1.689453,1.125 c 2.955926,2.674409 6.052067,7.742759 6.755859,11.261718 1.689101,1.407584 3.518464,1.407184 4.644531,0.421875 V 113.81836 H 11.673828 v -7.03906 l 0.5625,0.56445 c 7.319437,-7.460195 13.653401,-16.750828 18.720703,-26.181641 4.504269,6.19337 8.164415,12.385823 9.853516,17.453125 6.193369,4.363506 9.431356,-6.19271 -6.755859,-23.365234 3.800476,-7.741712 6.896303,-15.343473 9.148437,-21.818359 3.51896,0.422275 4.645951,-0.422224 5.208984,-2.111329 l -10.55664,-3.376953 c -1.689101,7.03792 -4.363986,15.201114 -7.742188,23.50586 -4.081993,-3.941235 -9.007936,-8.023342 -15.060547,-12.246094 l -1.970703,1.267578 c 4.504269,4.504269 9.852887,10.275381 14.638672,16.46875 -4.36351,9.712329 -9.853506,19.283695 -16.046875,27.025387 V 76.658203 c 2.111376,2.252134 3.799981,5.206717 4.644531,7.599609 5.489578,4.081998 10.416617,-6.192596 -4.644531,-11.11914 z m 7.742188,3.660156 -1.548828,1.126953 c 3.378201,2.955927 7.178486,8.021923 8.445312,11.681641 6.052611,4.222752 11.261349,-7.0375 -6.896484,-12.808594 z m 5.771484,46.591797 -1.548828,0.984375 c 3.237443,3.237443 7.178887,8.869047 8.023437,13.091797 5.771095,4.64503 11.542466,-7.17901 -6.474609,-14.076172 z m 33.599609,32.527342 c -0.07199,0.0865 -0.146314,0.16996 -0.21875,0.25586 0.07152,-0.0497 0.136595,-0.10533 0.210938,-0.15234 0.0032,-0.0345 0.0054,-0.069 0.0078,-0.10352 z" />
</svg>
