<?xml version="1.0" encoding="UTF-8" standalone="no"?>
<svg
   xmlns:dc="http://purl.org/dc/elements/1.1/"
   xmlns:cc="http://creativecommons.org/ns#"
   xmlns:rdf="http://www.w3.org/1999/02/22-rdf-syntax-ns#"
   xmlns:svg="http://www.w3.org/2000/svg"
   xmlns="http://www.w3.org/2000/svg"
   xmlns:sodipodi="http://sodipodi.sourceforge.net/DTD/sodipodi-0.dtd"
   xmlns:inkscape="http://www.inkscape.org/namespaces/inkscape"
   version="1.1"
   viewBox="0 0 125 125"
   width="100pt"
   height="100pt"
   id="svg2"
   inkscape:version="0.92.5 (2060ec1f9f, 2020-04-08)"
   sodipodi:docname="tehen.svg">
  <metadata
     id="metadata12">
    <rdf:RDF>
      <cc:Work
         rdf:about="">
        <dc:format>image/svg+xml</dc:format>
        <dc:type
           rdf:resource="http://purl.org/dc/dcmitype/StillImage" />
        <dc:title></dc:title>
      </cc:Work>
    </rdf:RDF>
  </metadata>
  <defs
     id="defs10" />
  <sodipodi:namedview
     pagecolor="#ffffff"
     bordercolor="#666666"
     borderopacity="1"
     objecttolerance="10"
     gridtolerance="10"
     guidetolerance="10"
     inkscape:pageopacity="0"
     inkscape:pageshadow="2"
     inkscape:window-width="2880"
     inkscape:window-height="1495"
     id="namedview8"
     showgrid="false"
     fit-margin-top="0"
     fit-margin-left="0"
     fit-margin-right="0"
     fit-margin-bottom="0"
     inkscape:zoom="3.337544"
     inkscape:cx="52.39549"
     inkscape:cy="54.543743"
     inkscape:window-x="-13"
     inkscape:window-y="-13"
     inkscape:window-maximized="1"
     inkscape:current-layer="svg2"
     units="pt" />
  <rect
     style="opacity:0.001;fill:#ffffff;fill-opacity:1;fill-rule:nonzero;stroke:none;stroke-width:0.41170192;stroke-linecap:square;stroke-miterlimit:4;stroke-dasharray:none;stroke-dashoffset:0;stroke-opacity:1"
     id="rect4133"
     width="125"
     height="125"
     x="0"
     y="0" />
  <flowRoot
     xml:space="preserve"
     id="flowRoot24"
     style="fill:black;fill-opacity:1;stroke:none;font-family:sans-serif;font-style:normal;font-weight:normal;font-size:40px;line-height:1.25;letter-spacing:0px;word-spacing:0px"><flowRegion
       id="flowRegion26"><rect
         id="rect28"
         width="95.878883"
         height="109.36185"
         x="-197.7502"
         y="-8.6872663" /></flowRegion><flowPara
       id="flowPara30"></flowPara></flowRoot>  <path
     id="flowRoot81"
     style="font-style:normal;font-weight:normal;font-size:40px;line-height:1.25;font-family:sans-serif;letter-spacing:0px;word-spacing:0px;fill:#000000;fill-opacity:1;stroke:none;stroke-width:3.233253"
     d="M 26.163225,3.6995266 V 33.187416 H 7.5394949 l 0.9048,3.879778 H 26.163225 v 28.45214 c -9.05311,2.97459 -16.5553501,5.173277 -20.6939101,6.207906 l 4.26868,10.993803 c 1.1639601,-0.517327 2.3277201,-1.810602 2.7157101,-3.362571 4.91454,-2.327942 9.44162,-4.526509 13.70952,-6.725115 v 36.341383 c 0,1.93991 -0.64675,2.58611 -2.84535,2.58611 -2.32796,0 -13.5798801,-0.90483 -13.5798801,-0.90483 v 2.19832 c 5.0438701,0.64681 7.8891701,1.55149 9.5704601,3.10344 1.55197,1.16389 2.19809,3.49296 2.58609,6.07957 11.12238,-1.16402 12.4158,-5.30365 12.4158,-12.28758 V 68.49431 c 7.50116,-3.879899 13.96774,-7.242119 19.14094,-9.95805 l -0.51721,-1.940553 c -6.33718,2.198619 -12.67453,4.268272 -18.62373,6.33755 V 37.067194 h 15.52044 c 1.68129,0 2.84493,-0.647549 3.23292,-2.070188 -3.49191,-3.750568 -9.7001,-8.923611 -9.7001,-8.923611 l -5.30311,7.114021 h -3.75015 V 8.6137387 c 3.10392,-0.387995 4.39791,-1.6802516 4.7859,-3.4908773 z M 115.82006,36.59495 c -0.23173,0.0103 -0.43756,0.06657 -0.63627,0.136256 l -0.23282,0.304245 c 0.39101,-0.144137 0.78136,-0.290245 1.17201,-0.435204 -0.10427,-0.0073 -0.20542,-0.0099 -0.30292,-0.0059 z m -3.78189,7.094189 c 0.002,0.0053 0.004,0.006 0.005,0.0094 l 0.002,0.0019 c 0.0228,0.02149 0.0385,0.03575 0.0608,0.05683 -0.0177,-0.01856 -0.0497,-0.04992 -0.0662,-0.06751 z m -27.450774,6.652363 c -0.0057,0.0032 -0.0078,0.0041 -0.01328,0.0061 -5e-6,0.002 0.0047,0.01094 0.0053,0.0133 0.0056,-0.0028 0.0098,-0.0055 0.0146,-0.0069 -0.0019,-0.0054 -0.0047,-0.0074 -0.006,-0.01189 z m 0.03705,0.0873 c -0.0087,0.0065 -0.01759,0.01112 -0.02652,0.01719 0.0047,0.01178 0.0037,0.01178 0.0071,0.02509 0.01347,-0.0096 0.01532,-0.01155 0.02915,-0.02118 -0.0047,-0.0074 -0.0065,-0.01417 -0.0094,-0.0212 z m 0.03436,0.116394 c -0.0089,0.0049 -0.02377,0.0098 -0.033,0.01332 0.06776,0.222879 0.142754,0.44878 0.117729,0.333343 -0.02527,-0.116287 -0.05572,-0.231223 -0.08465,-0.34657 z"
     inkscape:connector-curvature="0" />
</svg>
