<?xml version="1.0" encoding="UTF-8" standalone="no"?>
<svg
   xmlns:dc="http://purl.org/dc/elements/1.1/"
   xmlns:cc="http://creativecommons.org/ns#"
   xmlns:rdf="http://www.w3.org/1999/02/22-rdf-syntax-ns#"
   xmlns:svg="http://www.w3.org/2000/svg"
   xmlns="http://www.w3.org/2000/svg"
   xmlns:sodipodi="http://sodipodi.sourceforge.net/DTD/sodipodi-0.dtd"
   xmlns:inkscape="http://www.inkscape.org/namespaces/inkscape"
   version="1.1"
   viewBox="0 0 125 125"
   width="100pt"
   height="100pt"
   id="svg2"
   inkscape:version="0.92.5 (2060ec1f9f, 2020-04-08)"
   sodipodi:docname="toriashi.svg">
  <metadata
     id="metadata12">
    <rdf:RDF>
      <cc:Work
         rdf:about="">
        <dc:format>image/svg+xml</dc:format>
        <dc:type
           rdf:resource="http://purl.org/dc/dcmitype/StillImage" />
        <dc:title></dc:title>
      </cc:Work>
    </rdf:RDF>
  </metadata>
  <defs
     id="defs10" />
  <sodipodi:namedview
     pagecolor="#ffffff"
     bordercolor="#666666"
     borderopacity="1"
     objecttolerance="10"
     gridtolerance="10"
     guidetolerance="10"
     inkscape:pageopacity="0"
     inkscape:pageshadow="2"
     inkscape:window-width="2880"
     inkscape:window-height="1495"
     id="namedview8"
     showgrid="false"
     fit-margin-top="0"
     fit-margin-left="0"
     fit-margin-right="0"
     fit-margin-bottom="0"
     inkscape:zoom="4"
     inkscape:cx="116.83427"
     inkscape:cy="49.39245"
     inkscape:window-x="-13"
     inkscape:window-y="-13"
     inkscape:window-maximized="1"
     inkscape:current-layer="svg2"
     units="pt" />
  <path
     id="rect4133"
     transform="scale(0.93750004)"
     style="opacity:0.00100002;fill:#ffffff;fill-opacity:1;fill-rule:nonzero;stroke:none;stroke-width:0.43914869;stroke-linecap:square;stroke-miterlimit:4;stroke-dasharray:none;stroke-dashoffset:0;stroke-opacity:1"
     d="m -14.681641,82.396484 v 29.052736 c 1.513862,-0.72204 3.21599,-1.29808 4.027344,-1.54297 0.03578,-0.32934 0.08419,-0.65479 0.152344,-0.97266 0.259251,-1.20905 1.9603328,-1.23766 3.8320311,-1.07421 -0.5553634,-3.74141 4.2173395,-5.04607 6.4589844,-5.57813 1.6026294,-0.38039 3.2304561,-0.63552 4.8613281,-0.87695 -0.048106,-0.66772 0.045309,-1.38699 0.3203125,-2.250003 0.2834667,-0.889576 0.9150854,-1.657151 1.5800781,-2.3125 1.8519025,-1.825047 3.7745888,-2.180911 6.1718748,-3.039063 0.254087,-0.487732 0.535297,-0.954663 0.886719,-1.36914 -0.01095,-0.0585 -0.03225,-0.114874 -0.04102,-0.173828 -0.141608,-0.952605 -0.113192,-1.918543 0.05469,-2.861328 -0.711489,-1.55781 -0.891289,-3.129254 -0.714844,-5.19336 0.05603,-0.655477 0.458035,-1.238554 0.787109,-1.808594 H 5.0527344 c -1.3098855,1.621903 -2.7998641,2.676814 -6.3808594,0.875 -0.303862,-0.152891 -0.5793033,-0.469682 -0.8144531,-0.875 z M 6.0234375,104.66211 c -0.3011822,0.19813 -0.6182318,0.43426 -0.9511719,0.71289 0.4576567,-0.0707 0.9147337,-0.14472 1.3730469,-0.21094 -0.1481226,-0.16215 -0.2832008,-0.33306 -0.421875,-0.50195 z m -20.7050785,15.97266 v 95.09375 H 118.65234 v -70.87696 c -1.2305,-0.69702 -2.73787,-1.63171 -4.73632,-2.82422 -0.65008,-0.38791 -0.23779,-1.49896 -0.25196,-2.25586 -0.0188,-1.00332 0.0522,-2.0095 0.1543,-3.00781 0.0767,-0.74958 0.17655,-1.49611 0.2832,-2.24219 -4.89165,1.37262 -9.24731,1.71175 -14.656248,0.93946 -1.008516,-0.144 -1.945634,-0.36229 -2.849609,-0.6211 -0.662492,0.20725 -1.337179,0.37954 -2.017578,0.53516 2.578245,4.48423 0.671701,4.13551 -2.392578,4.14844 -0.454017,0.37234 -1.135383,0.22884 -1.84375,0.01 -5.711308,0.0322 -17.231445,0.0997 -20.578125,0.082 -4.880372,-0.0257 -9.761215,-0.0227 -14.638672,-0.19335 -2.17574,-0.0761 -4.348923,-0.20633 -6.517578,-0.38086 -1.55561,0.11514 -3.112914,0.21867 -4.671875,0.25781 -4.36631,0.10962 -10.388189,-0.19215 -14.814453,-0.57031 -1.658797,-0.14172 -8.201837,-0.87138 -10.195313,-1.28907 -1.058474,-0.22178 -2.071742,-0.62227 -3.107422,-0.93359 -0.03064,-0.0148 -1.8989,-0.94569 -2.132812,-0.97852 -2.343673,-0.3288 -6.7088365,0.6364 -7.919922,-2.375 -0.4498988,-1.11868 -0.5444247,-2.01815 -0.3964844,-2.75195 -0.7516908,-0.0414 -1.0002509,-0.067 -1.9902344,-0.11523 -13.2225613,-0.64463 0.082287,0.14769 -10.6992187,-0.10157 -1.4057051,-0.0325 -2.8075515,-0.17469 -4.2109375,-0.26171 -0.494141,-2.40393 -1.973053,-4.80632 -1.482422,-7.21094 0.218304,-1.06991 2.063477,-0.75869 3.1425782,-0.92578 0.4428019,-0.0686 0.8877743,-0.12465 1.3320313,-0.1836 -0.6005651,-0.0723 -1.1757968,-0.13835 -1.9374995,-0.25195 -0.55386,-0.0827 -1.088268,-0.26653 -1.634766,-0.38867 -0.272108,-0.0608 -0.544005,-0.1228 -0.820313,-0.16016 -0.578808,-0.0783 -1.216403,0.0522 -1.75,-0.16601 z" />
  <path
     id="flowRoot1439"
     transform="scale(0.93750004)"
     style="font-style:normal;font-weight:normal;font-size:40px;line-height:1.25;font-family:sans-serif;letter-spacing:0px;word-spacing:0px;fill:#000000;fill-opacity:1;stroke:none;stroke-width:3.51570892"
     d="m 82.759766,2.8046875 c -0.007,0.027966 -0.0164,0.057932 -0.02344,0.085937 0.04626,-0.022445 0.08871,-0.04029 0.134766,-0.0625 z m -46.15625,5.203125 c 0.0051,0.00713 0.01053,0.012327 0.01563,0.019531 0.02516,-0.00521 0.06681,-0.013926 0.09375,-0.019531 z m 9.171875,35.6601565 c -0.01344,0.01987 -0.02549,0.04078 -0.03906,0.06055 0.01283,0.01494 0.02624,0.03946 0.03906,0.05469 z m 6.046875,2.730469 c -0.703142,3.234452 -2.109352,8.015537 -3.09375,11.671874 h -12.65625 l -9.84375,-4.5 v 57.376958 h 1.546875 c 3.796965,0 7.59375,-2.10936 7.59375,-2.95313 v -2.10937 h 76.220699 c -1.40628,8.01581 -3.37495,13.21871 -5.48437,14.625 -0.84377,0.56251 -1.9687,0.84375 -4.21875,0.84375 -0.70314,0 -1.968718,0 -3.375001,-0.14063 2.250051,-3.37508 -0.985926,-11.10932 -17.861328,-13.21875 l -1.40625,1.40625 c 4.640735,2.53131 10.126889,7.17177 12.798828,11.39063 l -3.796875,-0.28125 v 2.39062 c 3.937594,0.56251 7.312463,1.54685 8.859375,2.67188 1.546912,1.26565 1.96875,3.65619 1.96875,5.90625 4.500111,0 8.859301,-0.98434 11.812501,-2.8125 4.92199,-3.09383 7.73434,-10.40598 9.28125,-21.79688 2.81257,-0.42188 4.49998,-0.98435 5.48437,-2.10937 l -9.84375,-7.875004 -5.0625,4.921874 H 35.369141 v -6.890624 h 89.158199 c 1.9688,0 3.37499,-0.703088 3.79688,-2.25 -4.64074,-4.078223 -11.8125,-9.703125 -11.8125,-9.703125 l -6.46875,7.875 H 35.369141 v -6.46875 h 58.923828 v 4.21875 h 1.40625 c 2.953195,0 7.593751,-2.109355 7.593751,-2.953125 V 63.132812 c 2.25005,-0.281256 4.07811,-1.2656 4.78125,-2.25 L 97.949219,53.148438 93.308594,58.070312 H 54.775391 c 1.828168,-1.968796 3.656219,-4.078084 4.921875,-5.765624 2.953195,0 4.781236,-1.124956 5.34375,-2.953126 z m -16.453125,15.75 h 58.923828 v 6.890624 H 35.369141 Z m 0,10.96875 h 58.923828 v 7.033203 H 35.369141 Z m 23.0625,35.439452 -1.546875,0.84375 c 3.234452,3.93759 6.75,10.68737 6.75,16.17188 7.593931,6.4689 16.031756,-9.28107 -5.203125,-17.01563 z m -20.25,0.28125 -1.96875,0.5625 c 1.406283,4.64074 2.25002,11.39049 1.40625,16.875 6.187647,7.73456 17.156646,-5.0622 0.5625,-17.4375 z m -18.703125,0.70313 c -1.125027,5.34387 -7.453005,9.70309 -12.5156254,10.96875 -2.8125671,1.40628 -4.7832266,3.93743 -3.7988281,6.60937 1.1250268,3.09382 5.7674972,3.37503 9.1425785,1.96875 5.343877,-2.39068 11.25004,-8.71849 9.5625,-19.40625 z" />
</svg>
