<?xml version="1.0" encoding="UTF-8" standalone="no"?>
<svg
   xmlns:dc="http://purl.org/dc/elements/1.1/"
   xmlns:cc="http://creativecommons.org/ns#"
   xmlns:rdf="http://www.w3.org/1999/02/22-rdf-syntax-ns#"
   xmlns:svg="http://www.w3.org/2000/svg"
   xmlns="http://www.w3.org/2000/svg"
   xmlns:sodipodi="http://sodipodi.sourceforge.net/DTD/sodipodi-0.dtd"
   xmlns:inkscape="http://www.inkscape.org/namespaces/inkscape"
   version="1.1"
   viewBox="0 0 125 125"
   width="100pt"
   height="100pt"
   id="svg2"
   inkscape:version="0.92.5 (2060ec1f9f, 2020-04-08)"
   sodipodi:docname="torikanmuri.svg">
  <metadata
     id="metadata12">
    <rdf:RDF>
      <cc:Work
         rdf:about="">
        <dc:format>image/svg+xml</dc:format>
        <dc:type
           rdf:resource="http://purl.org/dc/dcmitype/StillImage" />
        <dc:title></dc:title>
      </cc:Work>
    </rdf:RDF>
  </metadata>
  <defs
     id="defs10" />
  <sodipodi:namedview
     pagecolor="#ffffff"
     bordercolor="#666666"
     borderopacity="1"
     objecttolerance="10"
     gridtolerance="10"
     guidetolerance="10"
     inkscape:pageopacity="0"
     inkscape:pageshadow="2"
     inkscape:window-width="2880"
     inkscape:window-height="1495"
     id="namedview8"
     showgrid="false"
     fit-margin-top="0"
     fit-margin-left="0"
     fit-margin-right="0"
     fit-margin-bottom="0"
     inkscape:zoom="4"
     inkscape:cx="50.779369"
     inkscape:cy="9.0699733"
     inkscape:window-x="-13"
     inkscape:window-y="-13"
     inkscape:window-maximized="1"
     inkscape:current-layer="svg2"
     units="pt" />
  <path
     id="rect4133"
     transform="scale(0.93750004)"
     style="opacity:0.00100002;fill:#ffffff;fill-opacity:1;fill-rule:nonzero;stroke:none;stroke-width:0.43914869;stroke-linecap:square;stroke-miterlimit:4;stroke-dasharray:none;stroke-dashoffset:0;stroke-opacity:1"
     d="m -14.681641,82.396484 v 29.052736 c 1.513862,-0.72204 3.21599,-1.29808 4.027344,-1.54297 0.03578,-0.32934 0.08419,-0.65479 0.152344,-0.97266 0.259251,-1.20905 1.9603328,-1.23766 3.8320311,-1.07421 -0.5553634,-3.74141 4.2173395,-5.04607 6.4589844,-5.57813 1.6026294,-0.38039 3.2304561,-0.63552 4.8613281,-0.87695 -0.048106,-0.66772 0.045309,-1.38699 0.3203125,-2.250003 0.2834667,-0.889576 0.9150854,-1.657151 1.5800781,-2.3125 1.8519025,-1.825047 3.7745888,-2.180911 6.1718748,-3.039063 0.254087,-0.487732 0.535297,-0.954663 0.886719,-1.36914 -0.01095,-0.0585 -0.03225,-0.114874 -0.04102,-0.173828 -0.141608,-0.952605 -0.113192,-1.918543 0.05469,-2.861328 -0.711489,-1.55781 -0.891289,-3.129254 -0.714844,-5.19336 0.05603,-0.655477 0.458035,-1.238554 0.787109,-1.808594 H 5.0527344 c -1.3098855,1.621903 -2.7998641,2.676814 -6.3808594,0.875 -0.303862,-0.152891 -0.5793033,-0.469682 -0.8144531,-0.875 z M 6.0234375,104.66211 c -0.3011822,0.19813 -0.6182318,0.43426 -0.9511719,0.71289 0.4576567,-0.0707 0.9147337,-0.14472 1.3730469,-0.21094 -0.1481226,-0.16215 -0.2832008,-0.33306 -0.421875,-0.50195 z m -20.7050785,15.97266 v 95.09375 H 118.65234 v -70.87696 c -1.2305,-0.69702 -2.73787,-1.63171 -4.73632,-2.82422 -0.65008,-0.38791 -0.23779,-1.49896 -0.25196,-2.25586 -0.0188,-1.00332 0.0522,-2.0095 0.1543,-3.00781 0.0767,-0.74958 0.17655,-1.49611 0.2832,-2.24219 -4.89165,1.37262 -9.24731,1.71175 -14.656248,0.93946 -1.008516,-0.144 -1.945634,-0.36229 -2.849609,-0.6211 -0.662492,0.20725 -1.337179,0.37954 -2.017578,0.53516 2.578245,4.48423 0.671701,4.13551 -2.392578,4.14844 -0.454017,0.37234 -1.135383,0.22884 -1.84375,0.01 -5.711308,0.0322 -17.231445,0.0997 -20.578125,0.082 -4.880372,-0.0257 -9.761215,-0.0227 -14.638672,-0.19335 -2.17574,-0.0761 -4.348923,-0.20633 -6.517578,-0.38086 -1.55561,0.11514 -3.112914,0.21867 -4.671875,0.25781 -4.36631,0.10962 -10.388189,-0.19215 -14.814453,-0.57031 -1.658797,-0.14172 -8.201837,-0.87138 -10.195313,-1.28907 -1.058474,-0.22178 -2.071742,-0.62227 -3.107422,-0.93359 -0.03064,-0.0148 -1.8989,-0.94569 -2.132812,-0.97852 -2.343673,-0.3288 -6.7088365,0.6364 -7.919922,-2.375 -0.4498988,-1.11868 -0.5444247,-2.01815 -0.3964844,-2.75195 -0.7516908,-0.0414 -1.0002509,-0.067 -1.9902344,-0.11523 -13.2225613,-0.64463 0.082287,0.14769 -10.6992187,-0.10157 -1.4057051,-0.0325 -2.8075515,-0.17469 -4.2109375,-0.26171 -0.494141,-2.40393 -1.973053,-4.80632 -1.482422,-7.21094 0.218304,-1.06991 2.063477,-0.75869 3.1425782,-0.92578 0.4428019,-0.0686 0.8877743,-0.12465 1.3320313,-0.1836 -0.6005651,-0.0723 -1.1757968,-0.13835 -1.9374995,-0.25195 -0.55386,-0.0827 -1.088268,-0.26653 -1.634766,-0.38867 -0.272108,-0.0608 -0.544005,-0.1228 -0.820313,-0.16016 -0.578808,-0.0783 -1.216403,0.0522 -1.75,-0.16601 z" />
  <path
     id="flowRoot1410"
     transform="scale(0.93750004)"
     style="font-style:normal;font-weight:normal;font-size:40px;line-height:1.25;font-family:sans-serif;letter-spacing:0px;word-spacing:0px;fill:#000000;fill-opacity:1;stroke:none;stroke-width:3.52878714"
     d="M 56.734375,1.6542969 C 55.887466,5.3242355 54.616967,10.829008 53.628906,14.78125 H 34.996094 L 24.128906,9.8417969 V 71.806641 h 1.410156 c 4.658002,0 7.623047,-1.693733 7.623047,-2.117188 v -2.541015 h 81.021481 c -1.55266,11.43327 -3.52921,18.209426 -5.64648,20.185546 -0.70576,0.705758 -1.27065,0.845703 -2.54102,0.845704 -1.97612,0 -8.045054,-0.422776 -11.150387,-0.705079 l -0.142578,2.398438 c 3.387636,0.564606 6.775985,1.41323 8.187495,2.683594 1.55269,1.129212 2.11719,3.246535 2.11719,5.222656 3.10534,0 6.63363,-0.848625 9.03321,-2.683594 4.51684,-3.387636 6.91698,-11.856675 8.75195,-27.242187 2.82303,-0.141152 4.51637,-0.704773 5.36328,-1.833985 l -10.02148,-8.1875 -4.93946,5.222657 H 33.162109 v -7.763672 h 94.570311 c 1.97612,0 3.24647,-0.705147 3.66992,-2.257813 -4.51684,-4.375696 -11.71484,-9.880859 -11.71484,-9.880859 l -6.49219,7.904297 H 33.162109 v -7.621094 h 61.824219 v 4.375 h 1.269531 c 2.964182,0 7.622521,-1.975357 7.763671,-2.822266 V 20.708984 c 2.82303,-0.564606 5.08083,-1.693053 5.92774,-2.822265 L 98.515625,9.1347656 93.574219,14.78125 H 59.839844 c 2.399575,-2.258424 5.081046,-4.9398948 6.916015,-6.9160156 2.964182,0 4.799202,-1.129348 5.222657,-3.1054688 z M 33.162109,18.875 h 61.824219 v 8.044922 H 33.162109 Z m 0,12.138672 h 61.824219 v 8.1875 H 33.162109 Z m 49.826172,38.816406 -1.412109,1.271484 c 3.952242,2.681881 8.751495,7.903228 10.445312,11.855469 8.327936,4.516848 13.833336,-11.150832 -9.033203,-13.126953 z m -22.160156,0.140625 -1.412109,1.130859 c 3.246484,3.387638 7.057912,9.596808 7.763672,14.53711 7.904483,6.069514 15.668069,-9.457303 -6.351563,-15.667969 z m -20.75,0.566406 -1.833984,0.845703 c 2.823029,3.952244 5.504806,10.445364 5.787109,15.667969 7.198726,6.63412 16.372689,-8.044582 -3.953125,-16.513672 z m -14.820313,1.69336 c -0.98806,7.057574 -7.622571,12.844718 -12.986328,14.679687 -2.6818771,1.552667 -4.6579819,3.810309 -3.6699215,6.492188 1.2703634,3.105332 5.7876195,2.965302 9.3164065,1.271484 C 23.281725,91.99195 29.632371,84.510122 27.65625,72.371094 Z M 36.125,87.050781 v 0.01367 c 0.0044,-0.0031 0.0093,-0.0048 0.01367,-0.0078 z m 6.210938,3.878907 c -0.01769,-3.44e-4 -0.009,0.04724 0.0078,0.05273 0.04913,0.01603 0.104567,-1.41e-4 0.15625,0 0.0027,-5.05e-4 0.0046,-5.12e-4 0.0078,-0.002 0,0 0.002,-0.002 0.002,-0.002 -0.05829,-0.01738 -0.116873,-0.04773 -0.173828,-0.04883 z m 0.138671,0.09766 c -0.01697,0.01279 -0.03335,0.02454 -0.04883,0.03906 -0.01323,0.01241 0.03221,-0.01665 0.04297,-0.03125 0.0034,-0.0046 0.0027,-0.0035 0.0059,-0.0078 z m 81.812501,19.238276 c -0.008,0.0307 -0.0171,0.0631 -0.0254,0.0938 0.001,7.4e-4 0.003,9.5e-4 0.004,0.002 0.007,-0.0315 0.0144,-0.0636 0.0215,-0.0957 z" />
</svg>
