<?xml version="1.0" encoding="UTF-8" standalone="no"?>
<svg
   xmlns:dc="http://purl.org/dc/elements/1.1/"
   xmlns:cc="http://creativecommons.org/ns#"
   xmlns:rdf="http://www.w3.org/1999/02/22-rdf-syntax-ns#"
   xmlns:svg="http://www.w3.org/2000/svg"
   xmlns="http://www.w3.org/2000/svg"
   xmlns:sodipodi="http://sodipodi.sourceforge.net/DTD/sodipodi-0.dtd"
   xmlns:inkscape="http://www.inkscape.org/namespaces/inkscape"
   version="1.1"
   viewBox="0 0 125 125"
   width="100pt"
   height="100pt"
   id="svg2"
   inkscape:version="0.92.5 (2060ec1f9f, 2020-04-08)"
   sodipodi:docname="toritsukuri.svg">
  <metadata
     id="metadata12">
    <rdf:RDF>
      <cc:Work
         rdf:about="">
        <dc:format>image/svg+xml</dc:format>
        <dc:type
           rdf:resource="http://purl.org/dc/dcmitype/StillImage" />
        <dc:title></dc:title>
      </cc:Work>
    </rdf:RDF>
  </metadata>
  <defs
     id="defs10" />
  <sodipodi:namedview
     pagecolor="#ffffff"
     bordercolor="#666666"
     borderopacity="1"
     objecttolerance="10"
     gridtolerance="10"
     guidetolerance="10"
     inkscape:pageopacity="0"
     inkscape:pageshadow="2"
     inkscape:window-width="2880"
     inkscape:window-height="1495"
     id="namedview8"
     showgrid="false"
     fit-margin-top="0"
     fit-margin-left="0"
     fit-margin-right="0"
     fit-margin-bottom="0"
     inkscape:zoom="5.6568543"
     inkscape:cx="52.743165"
     inkscape:cy="84.426388"
     inkscape:window-x="-13"
     inkscape:window-y="-13"
     inkscape:window-maximized="1"
     inkscape:current-layer="svg2"
     units="pt" />
  <path
     id="rect4133"
     transform="scale(0.93750004)"
     style="opacity:0.00100002;fill:#ffffff;fill-opacity:1;fill-rule:nonzero;stroke:none;stroke-width:0.43914869;stroke-linecap:square;stroke-miterlimit:4;stroke-dasharray:none;stroke-dashoffset:0;stroke-opacity:1"
     d="m -14.681641,82.396484 v 29.052736 c 1.513862,-0.72204 3.21599,-1.29808 4.027344,-1.54297 0.03578,-0.32934 0.08419,-0.65479 0.152344,-0.97266 0.259251,-1.20905 1.9603328,-1.23766 3.8320311,-1.07421 -0.5553634,-3.74141 4.2173395,-5.04607 6.4589844,-5.57813 1.6026294,-0.38039 3.2304561,-0.63552 4.8613281,-0.87695 -0.048106,-0.66772 0.045309,-1.38699 0.3203125,-2.250003 0.2834667,-0.889576 0.9150854,-1.657151 1.5800781,-2.3125 1.8519025,-1.825047 3.7745888,-2.180911 6.1718748,-3.039063 0.254087,-0.487732 0.535297,-0.954663 0.886719,-1.36914 -0.01095,-0.0585 -0.03225,-0.114874 -0.04102,-0.173828 -0.141608,-0.952605 -0.113192,-1.918543 0.05469,-2.861328 -0.711489,-1.55781 -0.891289,-3.129254 -0.714844,-5.19336 0.05603,-0.655477 0.458035,-1.238554 0.787109,-1.808594 H 5.0527344 c -1.3098855,1.621903 -2.7998641,2.676814 -6.3808594,0.875 -0.303862,-0.152891 -0.5793033,-0.469682 -0.8144531,-0.875 z M 6.0234375,104.66211 c -0.3011822,0.19813 -0.6182318,0.43426 -0.9511719,0.71289 0.4576567,-0.0707 0.9147337,-0.14472 1.3730469,-0.21094 -0.1481226,-0.16215 -0.2832008,-0.33306 -0.421875,-0.50195 z m -20.7050785,15.97266 v 95.09375 H 118.65234 v -70.87696 c -1.2305,-0.69702 -2.73787,-1.63171 -4.73632,-2.82422 -0.65008,-0.38791 -0.23779,-1.49896 -0.25196,-2.25586 -0.0188,-1.00332 0.0522,-2.0095 0.1543,-3.00781 0.0767,-0.74958 0.17655,-1.49611 0.2832,-2.24219 -4.89165,1.37262 -9.24731,1.71175 -14.656248,0.93946 -1.008516,-0.144 -1.945634,-0.36229 -2.849609,-0.6211 -0.662492,0.20725 -1.337179,0.37954 -2.017578,0.53516 2.578245,4.48423 0.671701,4.13551 -2.392578,4.14844 -0.454017,0.37234 -1.135383,0.22884 -1.84375,0.01 -5.711308,0.0322 -17.231445,0.0997 -20.578125,0.082 -4.880372,-0.0257 -9.761215,-0.0227 -14.638672,-0.19335 -2.17574,-0.0761 -4.348923,-0.20633 -6.517578,-0.38086 -1.55561,0.11514 -3.112914,0.21867 -4.671875,0.25781 -4.36631,0.10962 -10.388189,-0.19215 -14.814453,-0.57031 -1.658797,-0.14172 -8.201837,-0.87138 -10.195313,-1.28907 -1.058474,-0.22178 -2.071742,-0.62227 -3.107422,-0.93359 -0.03064,-0.0148 -1.8989,-0.94569 -2.132812,-0.97852 -2.343673,-0.3288 -6.7088365,0.6364 -7.919922,-2.375 -0.4498988,-1.11868 -0.5444247,-2.01815 -0.3964844,-2.75195 -0.7516908,-0.0414 -1.0002509,-0.067 -1.9902344,-0.11523 -13.2225613,-0.64463 0.082287,0.14769 -10.6992187,-0.10157 -1.4057051,-0.0325 -2.8075515,-0.17469 -4.2109375,-0.26171 -0.494141,-2.40393 -1.973053,-4.80632 -1.482422,-7.21094 0.218304,-1.06991 2.063477,-0.75869 3.1425782,-0.92578 0.4428019,-0.0686 0.8877743,-0.12465 1.3320313,-0.1836 -0.6005651,-0.0723 -1.1757968,-0.13835 -1.9374995,-0.25195 -0.55386,-0.0827 -1.088268,-0.26653 -1.634766,-0.38867 -0.272108,-0.0608 -0.544005,-0.1228 -0.820313,-0.16016 -0.578808,-0.0783 -1.216403,0.0522 -1.75,-0.16601 z" />
  <path
     id="flowRoot1338"
     transform="scale(0.93750004)"
     style="font-style:normal;font-weight:normal;font-size:40px;line-height:1.25;font-family:sans-serif;letter-spacing:0px;word-spacing:0px;fill:#000000;fill-opacity:1;stroke:none;stroke-width:3.54539132"
     d="M 79.8125,1.5976562 C 79.245237,5.9939414 78.11066,12.51854 77.259766,17.056641 H 70.169922 L 59.675781,12.517578 v 78.423828 h 1.417969 c 4.538101,0 7.373047,-1.985472 7.373047,-2.552734 v -2.835938 h 47.367183 c -1.27634,19.428746 -3.82927,31.198846 -6.94921,34.035156 -1.13453,0.99271 -2.41064,1.27734 -4.67969,1.27734 -2.6945,0 -11.20366,-0.70931 -16.025392,-1.13476 l -0.140626,2.55273 c 4.538101,0.70908 9.074366,1.8428 10.917969,3.11914 1.843599,1.13453 2.269529,3.40359 2.269529,5.81446 4.96355,0 9.78588,-1.27621 13.18946,-3.97071 5.24717,-4.39628 8.50957,-17.58522 9.92773,-40.701168 2.83631,-0.425447 4.39596,-0.991666 5.38867,-1.984375 l -10.21094,-8.367188 -4.82226,5.105469 H 68.466797 V 69.810547 h 57.578123 c 1.84361,0 3.26205,-0.707606 3.6875,-2.267578 -4.25447,-3.970838 -11.20312,-9.361328 -11.20312,-9.361328 l -5.95703,7.517578 H 68.466797 V 53.927734 h 37.582033 v 3.970704 h 1.27539 c 2.97813,0 7.37576,-2.127622 7.51758,-2.978516 V 22.871094 c 2.69449,-0.567263 4.96237,-1.702603 5.95508,-2.695313 l -11.06055,-8.509765 -5.10547,5.390625 H 82.365234 c 2.410866,-2.978129 5.247003,-6.666831 7.232422,-9.3613285 2.978129,0 4.538206,-1.134484 5.105469,-3.2617187 z M 48,9.3203125 c 0.02027,0.011567 0.103819,0.044807 0.138672,0.0625 0.0015,-6.013e-4 0.0024,-0.00135 0.0039,-0.00195 C 48.124052,9.3755085 47.966234,9.3010406 48,9.3203125 Z m 1.654297,4.2011715 c -0.03662,0.01442 -0.179834,0.131005 -0.330078,0.25586 -0.02616,0.07049 -0.04494,0.143454 -0.07422,0.21289 0.12463,-0.136003 0.257334,-0.264721 0.375,-0.40625 0.04444,-0.05345 0.05107,-0.07107 0.0293,-0.0625 z m -0.06445,0.378907 c 0.165426,-0.118099 -0.08706,0.02561 -0.378906,0.191406 -0.0049,0.0043 -0.01055,0.0092 -0.01563,0.01367 -0.0042,0.0093 -0.0095,0.01808 -0.01367,0.02734 0.0074,0.0065 0.01409,0.01295 0.02148,0.01953 0.128831,-0.08388 0.261554,-0.162597 0.386719,-0.251953 z m -7.38086,0.841797 c -0.0214,-0.05931 0.04386,0.249641 0.0332,0.1875 -0.0071,-0.04148 -0.01158,-0.0941 -0.01953,-0.140626 -0.0054,-0.0153 -0.0082,-0.03162 -0.01367,-0.04687 z m 8.160157,4.958984 c -0.0066,8.03e-4 -0.01293,0.0012 -0.01953,0.002 -2.6e-4,2.12e-4 -0.0037,0.0017 -0.0039,0.002 -0.0065,0.0053 0.01517,-0.0023 0.02344,-0.0039 z m 18.097656,1.466797 H 106.04883 V 33.222656 H 68.466797 Z m 0,16.167969 h 37.582033 v 12.33789 H 68.466797 Z M 9.8222656,51.544922 c 0.00353,0.02067 0.00346,0.04197 0.00781,0.0625 0.022066,0.104171 0.049913,0.211165 0.1074219,0.300781 0.01705,0.02657 0.087103,0.04453 0.09375,0.01367 0.0075,-0.03498 -0.01359,-0.206653 -0.041016,-0.347656 -0.051178,-0.0097 -0.1037327,-0.01143 -0.1542969,-0.02539 -0.00528,-0.0015 -0.0084,-0.0025 -0.013672,-0.0039 z m 83.0371094,38.121094 -1.558594,1.27539 c 4.821732,3.119945 10.492759,9.218524 12.052739,13.898434 7.65804,4.5381 12.05454,-10.777539 -10.494145,-15.173824 z M 81.65625,93.210938 80.095703,94.0625 c 3.403576,4.538101 7.517913,12.19532 7.943359,18.00977 6.807152,5.95625 14.180458,-8.79242 -6.382812,-18.861332 z m -11.486328,2.552734 -1.986328,0.566406 c 1.701788,5.814442 3.262575,14.749492 2.695312,21.556642 5.956258,6.94897 14.607106,-6.52333 -0.708984,-22.123048 z m -12.337891,0.851562 c 0,7.374416 -3.545549,15.741386 -7.658203,18.861326 -2.410866,1.84361 -3.830266,4.82156 -2.412109,7.23242 1.701788,2.83632 6.382102,1.8437 8.792969,-0.70898 3.829022,-3.82902 6.807444,-13.0468 3.6875,-25.384766 z M 30.845703,114.21094 c 0.140144,0.18761 0.285201,0.37353 0.423828,0.5625 0.112892,-0.10345 -0.55656,-0.7402 -0.423828,-0.5625 z" />
</svg>
