<?xml version="1.0" encoding="UTF-8" standalone="no"?>
<svg
   xmlns:dc="http://purl.org/dc/elements/1.1/"
   xmlns:cc="http://creativecommons.org/ns#"
   xmlns:rdf="http://www.w3.org/1999/02/22-rdf-syntax-ns#"
   xmlns:svg="http://www.w3.org/2000/svg"
   xmlns="http://www.w3.org/2000/svg"
   xmlns:sodipodi="http://sodipodi.sourceforge.net/DTD/sodipodi-0.dtd"
   xmlns:inkscape="http://www.inkscape.org/namespaces/inkscape"
   version="1.1"
   viewBox="0 0 125 125"
   width="100pt"
   height="100pt"
   id="svg2"
   inkscape:version="0.92.5 (2060ec1f9f, 2020-04-08)"
   sodipodi:docname="torihen.svg">
  <metadata
     id="metadata12">
    <rdf:RDF>
      <cc:Work
         rdf:about="">
        <dc:format>image/svg+xml</dc:format>
        <dc:type
           rdf:resource="http://purl.org/dc/dcmitype/StillImage" />
        <dc:title></dc:title>
      </cc:Work>
    </rdf:RDF>
  </metadata>
  <defs
     id="defs10" />
  <sodipodi:namedview
     pagecolor="#ffffff"
     bordercolor="#666666"
     borderopacity="1"
     objecttolerance="10"
     gridtolerance="10"
     guidetolerance="10"
     inkscape:pageopacity="0"
     inkscape:pageshadow="2"
     inkscape:window-width="2880"
     inkscape:window-height="1495"
     id="namedview8"
     showgrid="false"
     fit-margin-top="0"
     fit-margin-left="0"
     fit-margin-right="0"
     fit-margin-bottom="0"
     inkscape:zoom="5.6568543"
     inkscape:cx="3.7534568"
     inkscape:cy="50.587112"
     inkscape:window-x="-13"
     inkscape:window-y="-13"
     inkscape:window-maximized="1"
     inkscape:current-layer="svg2"
     units="pt" />
  <path
     id="rect4133"
     transform="scale(0.93750004)"
     style="opacity:0.00100002;fill:#ffffff;fill-opacity:1;fill-rule:nonzero;stroke:none;stroke-width:0.43914869;stroke-linecap:square;stroke-miterlimit:4;stroke-dasharray:none;stroke-dashoffset:0;stroke-opacity:1"
     d="m -14.681641,82.396484 v 29.052736 c 1.513862,-0.72204 3.21599,-1.29808 4.027344,-1.54297 0.03578,-0.32934 0.08419,-0.65479 0.152344,-0.97266 0.259251,-1.20905 1.9603328,-1.23766 3.8320311,-1.07421 -0.5553634,-3.74141 4.2173395,-5.04607 6.4589844,-5.57813 1.6026294,-0.38039 3.2304561,-0.63552 4.8613281,-0.87695 -0.048106,-0.66772 0.045309,-1.38699 0.3203125,-2.250003 0.2834667,-0.889576 0.9150854,-1.657151 1.5800781,-2.3125 1.8519025,-1.825047 3.7745888,-2.180911 6.1718748,-3.039063 0.254087,-0.487732 0.535297,-0.954663 0.886719,-1.36914 -0.01095,-0.0585 -0.03225,-0.114874 -0.04102,-0.173828 -0.141608,-0.952605 -0.113192,-1.918543 0.05469,-2.861328 -0.711489,-1.55781 -0.891289,-3.129254 -0.714844,-5.19336 0.05603,-0.655477 0.458035,-1.238554 0.787109,-1.808594 H 5.0527344 c -1.3098855,1.621903 -2.7998641,2.676814 -6.3808594,0.875 -0.303862,-0.152891 -0.5793033,-0.469682 -0.8144531,-0.875 z M 6.0234375,104.66211 c -0.3011822,0.19813 -0.6182318,0.43426 -0.9511719,0.71289 0.4576567,-0.0707 0.9147337,-0.14472 1.3730469,-0.21094 -0.1481226,-0.16215 -0.2832008,-0.33306 -0.421875,-0.50195 z m -20.7050785,15.97266 v 95.09375 H 118.65234 v -70.87696 c -1.2305,-0.69702 -2.73787,-1.63171 -4.73632,-2.82422 -0.65008,-0.38791 -0.23779,-1.49896 -0.25196,-2.25586 -0.0188,-1.00332 0.0522,-2.0095 0.1543,-3.00781 0.0767,-0.74958 0.17655,-1.49611 0.2832,-2.24219 -4.89165,1.37262 -9.24731,1.71175 -14.656248,0.93946 -1.008516,-0.144 -1.945634,-0.36229 -2.849609,-0.6211 -0.662492,0.20725 -1.337179,0.37954 -2.017578,0.53516 2.578245,4.48423 0.671701,4.13551 -2.392578,4.14844 -0.454017,0.37234 -1.135383,0.22884 -1.84375,0.01 -5.711308,0.0322 -17.231445,0.0997 -20.578125,0.082 -4.880372,-0.0257 -9.761215,-0.0227 -14.638672,-0.19335 -2.17574,-0.0761 -4.348923,-0.20633 -6.517578,-0.38086 -1.55561,0.11514 -3.112914,0.21867 -4.671875,0.25781 -4.36631,0.10962 -10.388189,-0.19215 -14.814453,-0.57031 -1.658797,-0.14172 -8.201837,-0.87138 -10.195313,-1.28907 -1.058474,-0.22178 -2.071742,-0.62227 -3.107422,-0.93359 -0.03064,-0.0148 -1.8989,-0.94569 -2.132812,-0.97852 -2.343673,-0.3288 -6.7088365,0.6364 -7.919922,-2.375 -0.4498988,-1.11868 -0.5444247,-2.01815 -0.3964844,-2.75195 -0.7516908,-0.0414 -1.0002509,-0.067 -1.9902344,-0.11523 -13.2225613,-0.64463 0.082287,0.14769 -10.6992187,-0.10157 -1.4057051,-0.0325 -2.8075515,-0.17469 -4.2109375,-0.26171 -0.494141,-2.40393 -1.973053,-4.80632 -1.482422,-7.21094 0.218304,-1.06991 2.063477,-0.75869 3.1425782,-0.92578 0.4428019,-0.0686 0.8877743,-0.12465 1.3320313,-0.1836 -0.6005651,-0.0723 -1.1757968,-0.13835 -1.9374995,-0.25195 -0.55386,-0.0827 -1.088268,-0.26653 -1.634766,-0.38867 -0.272108,-0.0608 -0.544005,-0.1228 -0.820313,-0.16016 -0.578808,-0.0783 -1.216403,0.0522 -1.75,-0.16601 z" />
  <path
     id="flowRoot1353"
     transform="scale(0.93750004)"
     style="font-style:normal;font-weight:normal;font-size:40px;line-height:1.25;font-family:sans-serif;letter-spacing:0px;word-spacing:0px;fill:#000000;fill-opacity:1;stroke:none;stroke-width:3.46587205"
     d="M 27.322266,3.0273438 C 26.767726,7.46366 26.073997,13.702319 25.242188,18 H 20.529297 L 10.269531,13.425781 v 79.021485 h 1.386719 c 4.297681,0 7.070318,-2.078347 7.070312,-2.910157 v -4.4375 h 36.876954 c -1.109079,20.517961 -3.188277,31.471371 -6.09961,33.966801 -0.831809,0.97044 -1.941998,1.10742 -4.160156,1.10742 -2.495428,0 -9.149547,-0.41418 -13.308594,-0.83008 v 2.49414 c 3.743142,0.55454 7.348063,1.66436 8.873047,2.77344 1.663619,1.10908 1.941406,3.46547 1.941406,5.82226 4.574952,0 9.01058,-1.24679 12.060547,-3.88086 4.990856,-4.15904 7.625296,-16.22135 8.734375,-40.621089 2.772698,-0.27727 4.435806,-0.832328 5.40625,-1.941407 l -9.841797,-8.039062 -4.853515,4.990234 H 18.726562 V 70.265625 H 60.59375 c 1.802253,0 3.050855,-0.691813 3.328125,-2.216797 -0.723098,-0.723098 -1.562261,-1.497187 -2.425781,-2.271484 -0.261234,-0.133919 -0.45973,-0.312707 -0.591797,-0.533203 -3.287364,-2.899053 -6.826172,-5.652344 -6.826172,-5.652344 l -5.40625,6.792969 H 18.726562 V 55.015625 h 29.806641 v 4.298828 h 1.109375 c 2.772698,0 7.209021,-1.941665 7.347656,-2.912109 V 22.853516 c 2.079524,-0.415905 3.742373,-1.248306 4.435547,-2.21875 L 51.722656,13.148438 47.423828,18 H 30.373047 C 32.45257,15.088667 35.086381,11.485588 36.75,8.7128906 39.522698,8.5742557 41.185658,7.325654 41.601562,5.3847656 Z M 18.726562,22.021484 H 48.533203 V 34.498047 H 18.726562 Z m 45.75,6.654297 0.02344,0.07617 c 0.01118,-0.02534 0.02176,-0.05092 0.0332,-0.07617 z m 58.117188,2.71875 c 0.0481,0.100384 0.0867,0.204609 0.13086,0.306641 0.0366,-0.03815 0.0835,-0.07479 0.11719,-0.113281 z m -103.867188,7.125 H 48.533203 V 50.857422 H 18.726562 Z m 45.066407,27.064453 c -0.03308,0.03329 -0.05516,0.07222 -0.06641,0.115235 l 0.0039,0.01367 c 0.01272,-0.0017 0.02272,-0.0095 0.03516,-0.01172 0.0087,-0.03419 0.01856,-0.0817 0.02734,-0.117188 z M 38.134766,88.705078 36.75,89.814453 c 4.159046,3.049968 9.148807,8.87226 10.535156,13.308597 6.79311,4.15904 11.367572,-9.427116 -9.15039,-14.417972 z m -8.455078,3.88086 -1.802735,0.832031 c 2.911333,4.713586 6.654519,12.339411 7.486328,18.023441 5.9613,5.12949 12.477576,-7.34878 -5.683593,-18.855472 z m -9.150391,2.773437 -2.21875,0.554687 c 1.663618,5.961298 3.189311,15.388508 2.634765,22.320318 5.545402,6.51583 13.308838,-6.51609 -0.416015,-22.875005 z m -10.259766,1.941406 c -0.5545381,8.733999 -3.4658793,16.219749 -7.347656,19.962889 -6.7931093,10.53625 16.636785,14.4186 9.566406,-19.824217 z" />
</svg>
