<?xml version="1.0" encoding="UTF-8" standalone="no"?>
<svg
   xmlns:dc="http://purl.org/dc/elements/1.1/"
   xmlns:cc="http://creativecommons.org/ns#"
   xmlns:rdf="http://www.w3.org/1999/02/22-rdf-syntax-ns#"
   xmlns:svg="http://www.w3.org/2000/svg"
   xmlns="http://www.w3.org/2000/svg"
   xmlns:sodipodi="http://sodipodi.sourceforge.net/DTD/sodipodi-0.dtd"
   xmlns:inkscape="http://www.inkscape.org/namespaces/inkscape"
   version="1.1"
   viewBox="0 0 125 125"
   width="100pt"
   height="100pt"
   id="svg2"
   inkscape:version="0.92.5 (2060ec1f9f, 2020-04-08)"
   sodipodi:docname="tsuzumi.svg">
  <metadata
     id="metadata12">
    <rdf:RDF>
      <cc:Work
         rdf:about="">
        <dc:format>image/svg+xml</dc:format>
        <dc:type
           rdf:resource="http://purl.org/dc/dcmitype/StillImage" />
        <dc:title></dc:title>
      </cc:Work>
    </rdf:RDF>
  </metadata>
  <defs
     id="defs10" />
  <sodipodi:namedview
     pagecolor="#ffffff"
     bordercolor="#666666"
     borderopacity="1"
     objecttolerance="10"
     gridtolerance="10"
     guidetolerance="10"
     inkscape:pageopacity="0"
     inkscape:pageshadow="2"
     inkscape:window-width="2880"
     inkscape:window-height="1495"
     id="namedview8"
     showgrid="false"
     fit-margin-top="0"
     fit-margin-left="0"
     fit-margin-right="0"
     fit-margin-bottom="0"
     inkscape:zoom="2.8284271"
     inkscape:cx="151.71665"
     inkscape:cy="83.856497"
     inkscape:window-x="-13"
     inkscape:window-y="-13"
     inkscape:window-maximized="1"
     inkscape:current-layer="svg2"
     units="pt" />
  <path
     id="rect4133"
     transform="scale(0.93750004)"
     style="opacity:0.00100002;fill:#ffffff;fill-opacity:1;fill-rule:nonzero;stroke:none;stroke-width:0.43914869;stroke-linecap:square;stroke-miterlimit:4;stroke-dasharray:none;stroke-dashoffset:0;stroke-opacity:1"
     d="M -14.681641,82.396484 V 215.72852 H 118.65234 v -96.46094 c -1.42906,0.49773 -2.83826,0.87 -4.89257,1.47851 -2.2998,0.19303 -1.79618,0.20783 -3.82422,0.19727 -0.48668,-0.002 -0.97899,0.0404 -1.46094,-0.0273 -0.12639,-0.0178 -0.25915,-0.0285 -0.38867,-0.041 0.54878,0.85488 1.07084,1.72581 1.51172,2.64844 -0.18521,1.2627 -0.10919,2.59387 -0.55664,3.78906 -0.40107,1.07125 -3.75582,3.31989 -4.2129,3.60742 -3.45232,2.17186 -7.160187,3.90215 -11.187495,4.66211 -1.013466,-0.0498 -2.049297,0.0662 -3.041016,-0.14844 -1.533151,-0.33189 -3.472078,-1.55693 -4.539062,-2.71679 -0.448691,-0.0795 -0.858828,-0.15816 -1.386719,-0.23828 -0.263484,-0.04 -0.187486,-0.42022 -0.158203,-0.75196 -0.09312,-0.15296 -0.08627,-0.26134 -0.0039,-0.33789 -0.01257,-0.0898 -0.02276,-0.1797 -0.03516,-0.26953 -0.332808,-0.41517 -0.518419,-0.83822 -0.27539,-1.25195 0.0186,-0.0317 0.04326,-0.0588 0.0625,-0.0898 -0.02833,-0.14526 -0.04054,-0.28806 0.01172,-0.42187 0.05285,-0.13532 0.07628,0.0452 0.09375,0.27344 0.03143,-0.0471 0.06478,-0.0927 0.09766,-0.13868 -0.04255,-1.02708 0.03783,-2.04769 0.453125,-3.01953 0.364095,-0.88656 0.770759,-1.74096 1.18164,-2.59375 -0.467107,-0.75945 -0.860362,-1.54346 -1.144531,-2.32226 -0.285234,-0.78172 -0.337396,-1.63041 -0.505859,-2.44531 -0.0041,-0.68466 -0.04732,-1.36902 -0.01172,-2.05274 0.07984,-1.53278 0.27704,-2.77685 0.705078,-4.24414 0.103681,-0.35541 0.740018,-2.35062 1.222657,-2.91211 -0.03995,-0.21739 -0.07874,-0.43542 -0.107422,-0.65625 -0.0898,-0.69132 -0.03105,-1.3929 -0.04687,-2.08984 0.05583,-0.69265 0.08069,-1.38868 0.166015,-2.07813 -0.187589,-0.21932 -0.357518,-0.43428 -0.482422,-0.63867 -0.146589,-0.23987 -0.270476,-0.46301 -0.386718,-0.68164 -0.100849,-0.0625 -0.200645,-0.12186 -0.302735,-0.19922 -2.31027,-1.75062 -2.091234,-4.047638 -2.328125,-6.568359 -0.0043,-0.806848 -0.06276,-1.614557 -0.01367,-2.419922 0.126651,-2.077696 0.35413,-2.902489 0.890625,-4.849609 0.193753,-0.703197 0.407972,-1.400685 0.623047,-2.097656 0.149314,-0.483866 0.109631,-1.088306 0.46875,-1.445313 0.01919,-0.01908 0.0333,-0.01986 0.04687,-0.02344 0.0014,-0.80139 0.144882,-1.484957 0.556641,-2.109375 C 85.335896,83.877368 85.228361,83.706882 85.128906,83.53125 84.917774,83.1584 84.749007,82.779435 84.601562,82.396484 H 57.302734 c -0.368408,0.330441 -0.757638,0.632012 -1.240234,0.902344 -0.349107,0.195557 -0.737102,0.312467 -1.105469,0.46875 -0.782505,0.07123 -1.424407,0.247997 -2.130859,-0.183594 -0.08283,0.031 -0.165528,0.07015 -0.248047,0.09961 -0.459094,0.163904 -0.936463,0.275132 -1.404297,0.412109 -0.430575,0.06612 -1.900409,0.316941 -2.210937,0.230469 -0.747097,-0.208044 -1.494855,-0.530493 -2.082032,-1.03711 -0.262017,-0.226068 -0.401997,-0.554705 -0.519531,-0.892578 z m 99.19336,48.992186 c 0.0026,0.0183 0.0053,0.0364 0.0078,0.0547 0.01139,0.0812 0.0051,0.18107 -0.0039,0.2832 0.04253,0.0699 0.09492,0.14386 0.179687,0.23242 0.09294,-0.15158 0.02409,-0.0264 -0.0293,-0.45703 -0.0076,-0.0612 -0.01515,-0.12244 -0.02344,-0.18359 -9.05e-4,-9.9e-4 -0.003,-9.1e-4 -0.0039,-0.002 -0.05246,0.0198 -0.09586,0.0434 -0.126953,0.0723 z M 106.47266,82.396484 c -0.95886,0.804881 -2.15657,1.067919 -3.47071,1.199219 -1.49485,0.07545 -1.99627,0.180634 -3.525388,-0.09766 -0.05208,-0.0095 -0.105858,-0.02864 -0.158203,-0.03906 -0.08854,0.07479 -0.175292,0.151423 -0.265625,0.22461 0.240106,0.245996 0.487638,0.522032 0.761719,0.876953 1.689207,2.187438 1.812937,4.923692 1.757817,7.550781 -0.13544,0.648052 -0.15276,1.333711 -0.40625,1.945313 -0.43365,1.046272 -1.13557,1.87221 -1.996098,2.445312 -0.04043,0.206101 -0.08158,0.412382 -0.117188,0.619141 -0.186653,0.216546 -0.382233,0.425814 -0.576172,0.636718 0.0573,-0.02924 0.114685,-0.04861 0.166016,-0.04492 0.28988,0.02083 -0.04923,0.341003 -0.394531,0.626953 0.08259,0.407209 0.174706,0.812835 0.228515,1.224609 0.07321,0.560267 0.10566,1.122067 0.117188,1.683597 2.08849,-0.87726 3.43203,-1.07841 5.67187,-1.56055 2.10428,-0.31235 4.39214,-0.908647 6.09961,1.06836 0.2215,0.25646 0.31671,0.57761 0.38477,0.91406 0.0357,-0.005 0.0716,-0.009 0.10742,-0.0137 10e-4,-0.004 7.9e-4,-0.0113 0.002,-0.0156 0.004,0.005 0.008,0.009 0.0117,0.0137 0.0609,-0.007 0.12025,-0.0238 0.18164,-0.0274 0.061,-0.12131 0.22548,-0.37769 0.33204,-0.56054 -0.0111,-0.17851 -0.0287,-0.36109 -0.0391,-0.53711 -0.10144,-3.522041 -0.002,-0.672193 -0.1582,-4.003909 -0.0719,-1.539402 -0.29457,-3.124592 0.74609,-4.523438 -0.47109,-0.727578 -0.71296,-2.208958 -0.74218,-2.847656 -0.10489,-2.292107 0.34633,-4.547905 0.92382,-6.757813 z m -2.61719,31.134766 c -0.24743,0.002 -0.49501,0.004 -0.74219,0.004 0.0463,0.0545 0.0972,0.10487 0.14258,0.16015 0.16352,0.19932 0.26501,0.33944 0.40234,0.51367 0.002,-0.0102 9.1e-4,-0.0211 0.004,-0.0312 0.0525,-0.2187 0.12526,-0.43183 0.19336,-0.64648 z m -7.152345,3.19336 c -0.0059,0.20169 0.0013,0.43681 -0.0078,0.61914 -0.02279,0.45498 8.18e-4,0.92305 -0.05078,1.375 0.396145,0.34579 0.825297,0.66227 1.138672,1.08203 1.117355,1.49668 1.415416,2.89998 1.302735,4.69922 -0.02598,0.41471 -0.05659,0.83261 -0.146485,1.23828 -0.06034,0.2723 -0.1468,0.53684 -0.238281,0.80078 0.748505,-0.38286 1.527928,-0.83477 2.718748,-1.60742 0.24758,-0.16063 0.48529,-0.33652 0.72461,-0.50976 -0.0844,-0.15308 -0.16476,-0.30883 -0.25976,-0.45313 -0.41341,-0.6279 -0.83983,-1.24635 -1.2461,-1.87891 -1.207418,-1.87991 -1.531767,-2.6328 -2.917967,-4.28906 -0.316833,-0.37856 -0.669077,-0.72594 -1.017578,-1.07617 z m -2.150391,6.00586 c -0.03295,0.0206 -0.0625,0.0462 -0.0957,0.0664 0.06457,0.0331 0.09792,0.0159 0.0957,-0.0664 z" />
  <g
     id="g460">
    <path
       id="flowRoot423"
       transform="scale(0.93750004)"
       style="font-style:normal;font-weight:normal;font-size:40px;line-height:1.25;font-family:sans-serif;letter-spacing:0px;word-spacing:0px;fill:#000000;fill-opacity:1;stroke:none;stroke-width:3.42580891"
       d="M 88.0625,4.7636719 V 18.603516 H 65.589844 c 0.685162,-0.411097 1.097019,-0.959056 1.371094,-1.78125 C 63.124022,13.122392 57.09375,8.6015625 57.09375,8.6015625 L 51.613281,15.041016 H 38.732422 V 9.5605469 c 2.740647,-0.4110971 3.83531,-1.5079555 4.109375,-3.1523438 L 30.509766,5.0371094 V 15.041016 H 4.1992188 l 1.0957031,3.974609 H 30.509766 v 7.400391 H 8.3105469 L 9.40625,30.525391 h 51.525391 c 1.78142,0 3.014684,-0.684051 3.425781,-2.191407 -3.836906,-3.425808 -9.59375,-7.810549 -9.59375,-7.810546 l -5.207031,5.892578 H 38.732422 v -7.400391 h 24.664062 c 0.54813,0 0.959997,3.14e-4 1.371094,-0.136719 l 1.095703,3.835938 H 88.0625 V 33.951172 H 66.960938 l 1.232421,3.83789 H 75.59375 C 78.745494,45.18882 82.855584,51.355271 87.925781,56.5625 81.348228,61.084568 73.40093,64.784744 64.630859,67.525391 l 0.958985,2.054687 c 10.140394,-2.192518 18.910172,-5.207702 26.583984,-9.18164 7.399747,6.029423 16.580382,10.55302 27.542972,13.841796 0.95922,-4.11097 3.56411,-6.578823 7.12695,-7.126953 l 0.13672,-1.507812 c -10.55149,-1.918393 -20.14392,-4.931361 -28.091798,-9.316407 7.125678,-4.933164 12.744188,-10.826116 16.992188,-17.677734 3.01471,-0.137032 4.52288,-0.548272 5.61914,-1.644531 l -9.18164,-8.222656 -5.61914,5.207031 H 96.421875 V 22.714844 h 24.529295 c 1.91845,0 3.1514,-0.684051 3.5625,-2.191406 -4.38503,-3.973949 -10.96289,-9.181641 -10.96289,-9.181641 l -5.89258,7.261719 H 96.421875 V 9.5605469 c 3.014712,-0.5481294 4.110705,-1.6443607 4.384765,-3.4257813 z m -23.431641,62.7617191 -0.0625,0.03711 c 0.002,0.0042 0.0058,0.0075 0.0078,0.01172 0.0183,-0.01404 0.03639,-0.03576 0.05469,-0.04883 z M 55.175781,32.855469 50.791016,37.240234 H 20.78125 l -8.634766,-3.835937 v 23.021484 h 1.234375 c 3.151744,0 6.714844,-1.918354 6.714844,-2.603515 v -0.685547 h 2.054688 l -1.507813,0.685547 c 2.055485,2.740647 3.83695,7.124345 4.248047,10.824218 -9.181168,0.959227 -16.5805072,1.645544 -21.5136719,2.056641 l 5.7558594,10.001953 c 1.2332915,-0.411097 2.4671815,-1.232565 3.1523435,-2.876953 15.895753,-3.151744 31.790306,-6.303256 42.341797,-8.632813 5.070197,-1.096258 9.455749,-2.056398 13.429688,-3.015624 l -0.41211,-2.464844 c -7.947876,0.959226 -15.758456,1.91804 -23.158203,2.740234 1.644388,-1.507356 3.288507,-2.87835 4.384766,-3.974609 2.603614,0.137032 3.974296,-1.370852 4.111328,-2.330078 l -9.042969,-3.013672 h 7.947266 v 2.054687 h 1.371093 c 2.603625,0 6.851563,-1.781321 6.851563,-2.603515 V 42.173828 c 2.055485,-0.411097 3.836323,-1.507884 4.521484,-2.330078 z m 23.707031,4.933593 h 27.269528 c -3.15174,5.481305 -7.675256,10.550512 -13.019528,14.935547 -5.892391,-3.973938 -10.687148,-9.043145 -14.25,-14.935547 z m -58.787109,3.425782 h 31.791016 v 7.947265 H 20.095703 Z m 2.603516,11.921875 h 19.458984 c -0.548129,2.603614 -1.782647,6.576458 -2.878906,9.865234 l -7.537109,0.960938 c 0.548129,-3.014712 -1.369157,-7.400363 -9.042969,-10.826172 z m 31.546875,13.917969 c 0.0742,-0.01474 -0.05223,0.01658 0.002,0.0059 -0.03387,0.0068 0.03171,-0.014 -0.002,-0.0059 z m -0.486328,0.164062 c 0.03136,-0.01056 0.0035,0.0017 -0.02734,0.01367 0.01281,-0.0044 0.01238,-0.0086 0.02734,-0.01367 z m 9.242187,1.564453 c 0.0014,4.24e-4 0.0025,0.0015 0.0039,0.002 v -0.002 c -0.0012,3.98e-4 -0.0028,-3.98e-4 -0.0039,0 z m 33.814453,4.193359 c 0.01824,0.0098 0.03646,0.01951 0.05469,0.0293 0.07454,0.0288 0.149535,0.0567 0.224609,0.08398 0.09432,0.03428 -0.367783,-0.160644 -0.279297,-0.113282 z m -6.765625,2.392579 c -0.0316,0.01529 -0.09965,0.04803 -0.125,0.06055 -0.01931,0.01975 -0.03046,0.02971 -0.05078,0.05078 0.0096,-0.0033 0.103592,-0.0408 0.115234,-0.04492 0.0204,-0.02191 0.04047,-0.04426 0.06055,-0.06641 z" />
  </g>
</svg>
