<?xml version="1.0" encoding="UTF-8" standalone="no"?>
<svg
   xmlns:dc="http://purl.org/dc/elements/1.1/"
   xmlns:cc="http://creativecommons.org/ns#"
   xmlns:rdf="http://www.w3.org/1999/02/22-rdf-syntax-ns#"
   xmlns:svg="http://www.w3.org/2000/svg"
   xmlns="http://www.w3.org/2000/svg"
   xmlns:sodipodi="http://sodipodi.sourceforge.net/DTD/sodipodi-0.dtd"
   xmlns:inkscape="http://www.inkscape.org/namespaces/inkscape"
   version="1.1"
   viewBox="0 0 125 125"
   width="100pt"
   height="100pt"
   id="svg2"
   inkscape:version="0.92.5 (2060ec1f9f, 2020-04-08)"
   sodipodi:docname="uohen.svg">
  <metadata
     id="metadata12">
    <rdf:RDF>
      <cc:Work
         rdf:about="">
        <dc:format>image/svg+xml</dc:format>
        <dc:type
           rdf:resource="http://purl.org/dc/dcmitype/StillImage" />
        <dc:title></dc:title>
      </cc:Work>
    </rdf:RDF>
  </metadata>
  <defs
     id="defs10" />
  <sodipodi:namedview
     pagecolor="#ffffff"
     bordercolor="#666666"
     borderopacity="1"
     objecttolerance="10"
     gridtolerance="10"
     guidetolerance="10"
     inkscape:pageopacity="0"
     inkscape:pageshadow="2"
     inkscape:window-width="2880"
     inkscape:window-height="1495"
     id="namedview8"
     showgrid="false"
     fit-margin-top="0"
     fit-margin-left="0"
     fit-margin-right="0"
     fit-margin-bottom="0"
     inkscape:zoom="5.6568543"
     inkscape:cx="28.010231"
     inkscape:cy="85.829363"
     inkscape:window-x="-13"
     inkscape:window-y="-13"
     inkscape:window-maximized="1"
     inkscape:current-layer="svg2"
     units="pt" />
  <path
     id="rect4133"
     transform="scale(0.93750004)"
     style="opacity:0.00100002;fill:#ffffff;fill-opacity:1;fill-rule:nonzero;stroke:none;stroke-width:0.43914869;stroke-linecap:square;stroke-miterlimit:4;stroke-dasharray:none;stroke-dashoffset:0;stroke-opacity:1"
     d="M -14.681641,82.396484 V 215.72852 H 118.65234 V 133.2207 c -0.49766,0.16178 -0.97911,0.26686 -1.45703,0.33399 -0.10778,0.0371 -0.17954,0.0647 -0.29297,0.10351 -6.11096,2.0912 -11.03839,2.7192 -17.457028,1.80274 -1.008516,-0.144 -1.945634,-0.36229 -2.849609,-0.6211 -0.96601,0.3022 -1.950291,0.55259 -2.955078,0.74219 -1.013466,-0.0498 -2.049297,0.0662 -3.041016,-0.14844 -1.533151,-0.33189 -3.472078,-1.55693 -4.539062,-2.71679 -0.448691,-0.0795 -0.858828,-0.15816 -1.386719,-0.23828 -0.263484,-0.04 -0.187486,-0.42022 -0.158203,-0.75196 -0.09312,-0.15296 -0.08634,-0.26134 -0.0039,-0.33789 -0.01257,-0.0898 -0.02276,-0.1797 -0.03516,-0.26953 -0.332808,-0.41517 -0.518419,-0.83822 -0.27539,-1.25195 0.0186,-0.0317 0.04326,-0.0589 0.0625,-0.0898 -0.02833,-0.14526 -0.04054,-0.28806 0.01172,-0.42187 0.05285,-0.13532 0.07628,0.0452 0.09375,0.27344 0.03143,-0.0471 0.06478,-0.0927 0.09766,-0.13868 -0.01956,-0.47216 -0.0081,-0.94288 0.04492,-1.4082 -0.183081,-0.22033 -0.364799,-0.42961 -0.554688,-0.70117 -0.368559,-0.52708 -0.734827,-1.07716 -0.93164,-1.68945 -0.429447,-1.33604 -0.414839,-2.51966 0.09375,-3.75 -0.02153,-0.0731 -0.03412,-0.14858 -0.05273,-0.22266 -0.813155,0.95682 -1.983169,1.60533 -3.082031,2.12891 -1.117245,0.53234 -2.25487,1.01807 -3.382813,1.52734 -0.669281,0.27965 -1.909329,0.79658 -3.046874,1.27148 0.234157,0.4318 0.269813,0.69266 0.101562,0.9004 0.116296,-0.0823 0.230748,-0.1674 0.351562,-0.24219 0.09808,-0.0607 -0.176348,0.14956 -0.271484,0.21484 -0.133804,0.0918 -0.328375,0.37524 -0.419922,0.2793 -0.04142,0.0207 -0.08925,0.0418 -0.136718,0.0625 -0.140895,0.0946 -0.280025,0.19333 -0.431641,0.26953 -0.380895,0.19142 -0.805602,0.2762 -1.208985,0.41406 -0.230538,0.0439 -0.441517,0.0838 -0.65625,0.11524 -0.162335,0.0567 -0.328922,0.10578 -0.46875,0.16406 -0.392578,0.16364 -0.761882,0.3777 -1.15039,0.55078 -0.875769,0.39015 -1.762138,0.75724 -2.642578,1.13672 -0.412949,0.16467 -1.398718,0.56877 -1.884766,0.72851 -0.281254,0.0925 -0.570385,0.16152 -0.853516,0.24805 -0.0098,0.003 -0.03527,0.008 -0.04687,0.0117 -0.340226,0.17864 -0.609615,0.29028 -0.660157,0.20117 -0.0017,-0.003 -0.0022,-0.007 -0.0039,-0.01 0.01804,-0.002 0.0036,0.003 0.06055,-0.008 l -0.0039,-0.0156 c -0.02311,0.006 -0.04523,0.011 -0.06055,0.0156 -0.24348,-0.43108 -0.448914,-0.87718 -0.636719,-1.33203 -0.193776,0.0509 -0.389024,0.0949 -0.580078,0.11719 -0.467892,0.11029 -0.582196,0.13667 -0.740234,0.18164 -0.177535,0.10771 -0.237147,0.14444 -0.458985,0.27734 -1.088161,0.62295 -2.81366,1.63297 -3.986328,2.23633 -0.348647,0.17938 -0.732131,0.69906 -1.066406,0.49414 -0.43942,-0.26938 -0.898093,-0.53563 -1.353516,-0.80273 -0.299741,0.11413 -0.600212,0.22689 -0.900391,0.33984 -0.433016,0.14621 -0.86637,0.28968 -1.298828,0.4375 -0.274787,0.20454 -0.557076,0.39466 -0.886718,0.50196 -2.775829,0.81883 -5.225865,1.96742 -7.142578,-3.57227 -0.956083,-2.76327 0.903159,-4.29753 2.96875,-5.26172 0.177259,-0.0928 0.398798,-0.16194 0.554687,-0.26172 0.767649,-0.49136 1.293584,-0.76217 2.185547,-1.06054 0.194507,-0.065 0.490822,-0.12252 0.765625,-0.17969 -0.0026,-0.0195 -0.0052,-0.0391 -0.0078,-0.0586 -0.03059,-0.22912 0.399612,-0.10516 0.669922,-0.0996 0.203038,-0.045 0.362772,-0.0847 0.642578,-0.14453 0.0015,-5.6e-4 0.0024,5.7e-4 0.0039,0 0.555965,-0.20843 1.111172,-0.41996 1.265625,-0.47461 0.402428,-0.14237 0.980231,-0.76091 1.214843,-0.40429 0.02429,0.0369 0.04437,0.0762 0.06836,0.11328 0.422284,-0.15218 0.838116,-0.32204 1.263672,-0.46485 0.537181,-0.18024 1.081061,-0.3448 1.625,-0.50585 0.446721,-0.26737 1.140534,-0.648 1.552734,-0.86915 0.480169,-0.39407 0.976364,-0.7515 1.632813,-1.08007 0.487863,-0.2442 1.020869,-0.38537 1.53125,-0.57813 0.0909,-0.0157 0.214899,-0.0332 0.3125,-0.0508 1.48206,-0.70766 2.968307,-1.40728 4.484374,-2.03711 0.993261,-1.01242 2.173709,-1.61545 3.462891,-2.24023 0.295213,-0.32158 0.597713,-0.63137 0.900391,-0.91016 0.438213,-0.40364 0.912593,-0.76371 1.36914,-1.14648 1.188024,-0.81199 1.287259,-0.90428 2.525391,-1.65235 0.08706,-0.0526 0.176587,-0.10115 0.265625,-0.15039 0.231947,-0.53678 0.46277,-1.0555 0.707031,-1.58008 -0.398661,-0.0506 -0.79433,-0.12309 -1.1875,-0.23046 -0.260922,-0.0922 -0.729419,-0.2577 -0.933593,-0.34376 -0.452382,-0.19049 -0.861217,-0.4453 -1.257813,-0.71679 -0.07732,-0.0223 -0.13265,-0.0369 -0.220703,-0.0625 -0.08392,-0.0243 -0.164144,-0.0606 -0.240234,-0.10352 -0.166463,-0.094 -0.327935,-0.19778 -0.490235,-0.29883 0.01748,0.02 0.01533,0.0167 0.0332,0.0371 -0.08808,-0.0595 -0.357987,-0.23032 -0.265625,-0.17773 0.07858,0.0448 0.15563,0.0928 0.232422,0.14062 -0.03349,-0.0382 -0.03239,-0.0338 -0.06445,-0.0703 -0.03753,-0.0238 -0.07574,-0.0465 -0.113281,-0.0703 -0.279138,-0.0346 -0.54653,-0.0943 -0.757813,-0.26953 -1.761704,-1.46139 -1.557699,-1.87026 -1.503906,-3.38867 0.01095,-0.0603 0.02033,-0.11944 0.03125,-0.17969 0.0019,-0.0148 0.0038,-0.0301 0.0059,-0.0449 0.0018,-0.0132 0.01172,-0.0503 0.0098,-0.0371 -0.0046,0.0277 -0.01063,0.0544 -0.01563,0.082 -0.0055,0.0431 -0.01021,0.0875 -0.01367,0.13086 -0.003,0.0374 -0.03696,0.12927 -0.0039,0.11133 0.440591,-0.23965 0.864184,-0.5159 1.289062,-0.78907 -0.03588,-0.15886 -0.06137,-0.31992 -0.08984,-0.48047 -0.712489,0.12542 -1.460646,0.12437 -2.128907,0.0469 -0.230961,-0.0268 -0.455764,-0.0923 -0.683593,-0.13867 -0.908854,-0.32608 -1.833777,-0.55908 -2.56836,-1.25 -0.608482,-0.57231 -1.186127,-1.20415 -1.603515,-1.927736 -0.03007,-0.05213 -0.04892,-0.107302 -0.07617,-0.160156 -1.010243,0.339415 -2.025507,0.637382 -2.259766,0.515624 -0.221406,-0.115077 -0.445544,-0.249497 -0.669922,-0.373046 -0.509009,0.222796 -1.044922,0.381904 -1.861328,0.322265 -0.819167,-0.05984 -1.569117,-0.486872 -2.353516,-0.730469 -1.00005,-0.792121 -1.985652,-1.414128 -2.148437,-2.99414 -0.132901,-1.28995 0.267565,-2.607235 0.720703,-3.822266 0.208394,-0.558777 0.754801,-0.930682 1.201172,-1.326172 0.605329,-0.536328 1.141617,-0.881525 1.705078,-1.1875 0.500675,-0.438614 1.236118,-0.99841 1.257813,-1.013672 0.324921,-0.22854 0.672165,-0.423869 1.023437,-0.609374 1.665962,-0.87979 1.490588,-0.742437 3.25586,-1.326172 0.07688,-0.0194 0.153548,-0.03935 0.230468,-0.05859 0.164895,-0.157251 0.368815,-0.344285 0.646485,-0.595703 0.455476,-0.599678 0.86168,-1.240674 1.367187,-1.798828 0.277942,-0.306889 0.595024,-0.575447 0.919922,-0.833985 -0.03342,-0.04818 -0.07425,-0.09078 -0.105469,-0.140625 -0.218249,-0.348375 -0.361755,-0.636231 -0.474609,-0.904297 h -8.617188 c -0.368408,0.330441 -0.757638,0.632012 -1.240234,0.902344 -0.349107,0.195557 -0.737102,0.312467 -1.105469,0.46875 -0.782505,0.07123 -1.424407,0.247997 -2.130859,-0.183594 -0.08283,0.031 -0.165528,0.07015 -0.248047,0.09961 -0.459094,0.163904 -0.936463,0.275132 -1.404297,0.412109 -0.430575,0.06612 -1.900409,0.316941 -2.210937,0.230469 -0.747097,-0.208044 -1.494855,-0.530486 -2.082032,-1.03711 -0.262017,-0.226068 -0.401997,-0.554705 -0.519531,-0.892578 H 5.0527344 c -1.3098855,1.621903 -2.7998641,2.676814 -6.3808594,0.875 -0.303862,-0.152891 -0.5793033,-0.469682 -0.8144531,-0.875 z m 87.998047,45.402346 c 0.157274,-0.0786 0.266703,-0.16165 0.339844,-0.25195 -0.118125,0.0836 -0.240774,0.15954 -0.359375,0.24218 0,0 0.002,0.002 0.002,0.002 0.0044,0.008 0.01243,0.002 0.01758,0.008 z m 11.195313,3.58984 c 0.0026,0.0183 0.0053,0.0364 0.0078,0.0547 0.01139,0.0812 0.0051,0.18107 -0.0039,0.2832 0.04253,0.0699 0.09492,0.14386 0.179687,0.23242 0.09294,-0.15158 0.02409,-0.0264 -0.0293,-0.45703 -0.0076,-0.0612 -0.01515,-0.12244 -0.02344,-0.18359 -9.05e-4,-9.9e-4 -0.003,-5.6e-4 -0.0039,-0.002 -0.05246,0.0198 -0.09586,0.0434 -0.126953,0.0723 z M 70.332031,106.18945 c -0.08913,-0.0105 0.708673,1.00926 0.84375,1.09375 0.1071,0.067 0.222694,0.11791 0.339844,0.16602 -0.730143,-0.82348 -1.137618,-1.25433 -1.183594,-1.25977 z m 0.158203,0.69336 c 0.321139,0.31634 0.516579,0.43218 0.955078,0.60352 -0.318245,-0.2015 -0.636811,-0.40205 -0.955078,-0.60352 z m 1.357422,0.86133 c -0.0114,-0.003 0.04113,0.0219 0.03125,0.0156 -0.0064,-0.004 -0.01313,-0.008 -0.01953,-0.0117 -0.0028,-6.7e-4 -0.009,-0.003 -0.01172,-0.004 z M 51.46875,131.00391 c -0.304353,1.83987 -0.644923,2.33289 0.101562,2.31836 0.18644,-0.25529 0.381782,-0.51132 0.587891,-0.76563 -0.0044,-0.30536 -0.01096,-0.61865 -0.0098,-0.9043 -0.01972,-0.0674 -0.04322,-0.13363 -0.0625,-0.20117 -0.210831,-0.14395 -0.414635,-0.29536 -0.617188,-0.44726 z m 0.679688,0.64843 c 0.06482,0.22161 0.133424,0.44205 0.203124,0.66211 0.0021,-0.003 0.0038,-0.005 0.0059,-0.008 -0.01951,-0.24015 -0.03531,-0.49461 -0.05859,-0.7207 -0.0501,-0.0333 -0.102606,-0.064 -0.152344,-0.0977 -3.97e-4,0.052 0.0022,0.11138 0.002,0.16406 z m 0.203124,0.66211 c -0.06531,0.0809 -0.127897,0.16142 -0.193359,0.24219 0.0034,0.2315 8.91e-4,0.4424 0.0078,0.68555 2.59e-4,0.009 -0.01716,0.0104 -0.02148,0.0176 0.08547,-0.0123 0.175808,-0.0254 0.275391,-0.041 0.0027,-0.0109 0.0086,-0.0192 0.0078,-0.0332 -0.01676,-0.30049 -0.04393,-0.55914 -0.06641,-0.83985 -0.0033,-0.0104 -0.0065,-0.0208 -0.0098,-0.0312 z m -1.230468,1.69922 c -0.05355,0.0219 -0.108717,0.0403 -0.16211,0.0625 -0.04668,0.0194 0.122486,0.005 0.146485,-0.0391 0.0043,-0.008 0.01126,-0.0155 0.01563,-0.0234 z" />
  <path
     id="flowRoot530"
     transform="scale(0.93750004)"
     style="font-style:normal;font-weight:normal;font-size:40px;line-height:1.25;font-family:sans-serif;letter-spacing:0px;word-spacing:0px;fill:#000000;fill-opacity:1;stroke:none;stroke-width:3.45464253"
     d="M 22.886719,2.421875 C 18.326591,20.662388 10.310673,38.487618 2.0195312,49.957031 l 2.0742188,1.38086 c 2.2109712,-1.9346 4.2826811,-4.283656 6.355469,-6.632813 v 51.681641 h 1.382812 c 3.8692,0 6.632813,-2.209462 6.632813,-2.900391 v -4.976562 h 28.880859 v 5.666015 h 1.519531 c 3.040086,0 6.21777,-1.934071 6.494141,-2.625 V 43.876953 c 1.215837,-0.0853 3.051878,-0.420414 4.734375,-2.332031 l -9.017578,-7.617188 -4.421875,4.97461 H 34.494141 c 4.007385,-4.8365 8.56685,-11.469177 11.46875,-15.476563 2.763714,-0.138185 4.284653,-0.27684 5.251953,-1.24414 l -9.535156,-9.121094 -5.113282,5.527344 h -9.810547 c 1.381857,-3.040086 2.762188,-6.218214 4.00586,-9.3964848 2.901899,0.1381865 4.560538,-1.1054434 5.113281,-2.7636718 z m 1.933593,20.035156 H 36.84375 c -1.658228,4.974686 -3.731416,11.608813 -5.666016,16.445313 H 20.123047 l -4.007813,-1.796875 c 3.178272,-4.421943 6.07955,-9.397381 8.705078,-14.648438 z M 18.464844,43.046875 H 28.966797 V 61.011719 H 18.464844 Z m 17.6875,0 H 47.345703 V 61.011719 H 36.152344 Z m -17.6875,22.111328 H 28.966797 V 84.503906 H 18.464844 Z m 17.6875,0 H 47.345703 V 84.503906 H 36.152344 Z m 10.08789,30.953125 -1.658203,0.966797 c 3.8692,4.421945 7.323247,12.022855 7.046875,17.964845 7.047471,6.49473 14.924626,-9.39683 -5.388672,-18.931642 z m -11.746093,1.519531 -1.935547,0.691407 c 2.625528,5.527424 5.250981,14.232324 4.974609,20.865234 6.356542,6.63291 14.510522,-7.73807 -3.039062,-21.556641 z m -10.779297,1.658203 -2.072266,0.414063 c 1.381857,6.218355 2.072784,15.477915 0.552734,23.078125 5.665621,7.32384 15.199916,-6.9099 1.519532,-23.492188 z m -11.330078,0.138672 c 0.414557,8.291146 -3.1781619,17.549746 -7.1855472,21.142576 -2.3491577,2.07279 -3.5947477,4.83639 -2.2128907,7.18555 1.7964141,2.62553 6.2196914,1.52006 8.7070309,-1.10547 3.731014,-4.00738 6.770077,-14.09501 3.039063,-27.222656 z" />
</svg>
